{"glyphs":{"0":{"ha":804,"x_min":65,"x_max":740,"o":"m 401 -15 q 227 22 293 -15 q 125 126 161 58 q 77 289 89 193 q 65 501 65 385 q 77 713 65 618 q 125 875 89 808 q 226 978 161 942 q 400 1015 292 1015 q 576 978 508 1015 q 679 872 643 940 q 728 709 715 804 q 740 499 740 614 q 728 288 740 383 q 679 126 715 193 q 576 22 643 58 q 401 -15 510 -15 m 407 85 q 512 113 474 85 q 569 195 550 142 q 592 325 588 249 q 596 496 596 401 q 592 668 596 590 q 569 801 588 746 q 512 885 550 856 q 406 915 474 915 q 299 887 338 915 q 240 804 260 858 q 215 673 219 750 q 210 499 210 596 q 215 324 210 400 q 240 194 221 247 q 299 113 260 140 q 407 85 339 85 z "},"1":{"ha":489,"x_min":44,"x_max":460,"o":"m 331 111 l 460 83 l 460 0 l 50 0 l 50 83 l 193 111 l 193 876 l 44 865 l 44 961 l 331 1000 l 331 111 z "},"2":{"ha":701,"x_min":53,"x_max":639,"o":"m 639 0 l 53 0 l 53 125 l 383 551 q 433 618 414 590 q 462 669 451 646 q 476 711 472 692 q 479 751 479 731 q 447 870 479 825 q 342 915 414 915 q 272 900 300 915 q 228 859 244 885 q 203 798 211 833 q 196 722 196 763 l 57 722 q 71 839 57 785 q 118 932 85 893 q 206 993 151 971 q 340 1015 260 1015 q 471 995 417 1015 q 559 940 525 975 q 608 858 593 906 q 624 757 624 811 q 621 716 624 738 q 607 666 618 694 q 574 601 596 638 q 515 515 553 564 l 206 104 l 501 104 l 529 271 l 639 271 l 639 0 z "},"3":{"ha":711,"x_min":54,"x_max":653,"o":"m 349 85 q 422 100 392 85 q 472 141 453 115 q 500 202 492 167 q 508 278 508 238 q 500 347 508 314 q 467 406 492 381 q 400 445 443 431 q 288 460 357 460 l 288 560 q 391 574 351 560 q 452 614 431 589 q 481 672 474 639 q 488 743 488 706 q 456 872 488 828 q 351 915 425 915 q 236 863 268 915 q 204 722 204 810 l 65 722 q 78 835 65 782 q 124 929 92 889 q 210 992 157 969 q 344 1015 264 1015 q 475 994 421 1015 q 564 939 529 974 q 615 857 599 904 q 632 758 632 810 q 622 681 632 718 q 592 610 613 643 q 538 553 571 578 q 458 514 506 528 q 606 423 560 488 q 653 268 653 358 q 636 163 653 214 q 582 73 619 113 q 485 9 544 33 q 342 -15 426 -15 q 206 7 261 -15 q 117 70 151 29 q 69 167 83 111 q 54 292 54 224 l 193 292 q 201 208 193 246 q 226 143 208 171 q 274 100 244 115 q 349 85 304 85 z "},"4":{"ha":768,"x_min":26,"x_max":721,"o":"m 454 278 l 26 278 l 26 396 l 371 1000 l 592 1000 l 592 382 l 721 382 l 721 278 l 592 278 l 592 111 l 721 83 l 721 0 l 325 0 l 325 83 l 454 111 l 454 278 m 167 382 l 454 382 l 454 901 l 167 382 z "},"5":{"ha":704,"x_min":60,"x_max":658,"o":"m 215 547 q 279 622 235 594 q 399 649 324 649 q 589 572 519 649 q 658 335 658 494 q 642 200 658 264 q 590 88 626 136 q 493 13 553 40 q 346 -15 433 -15 q 212 8 267 -15 q 124 72 157 31 q 75 169 90 113 q 60 292 60 225 l 199 292 q 207 210 199 247 q 233 144 215 172 q 281 101 251 117 q 353 85 310 85 q 429 103 399 85 q 478 153 460 121 q 506 228 497 185 q 514 321 514 271 q 507 404 514 364 q 483 475 500 444 q 438 524 467 506 q 368 543 410 543 q 282 522 324 543 q 217 461 240 500 l 86 461 l 86 1000 l 596 1000 l 596 896 l 219 896 l 215 547 z "},"6":{"ha":750,"x_min":65,"x_max":692,"o":"m 388 -15 q 203 29 268 -15 q 107 146 138 74 q 71 309 76 218 q 65 493 65 400 q 81 703 65 607 q 136 869 97 800 q 239 976 175 938 q 397 1015 303 1015 q 531 992 476 1015 q 619 929 586 969 q 667 835 653 889 q 682 722 682 782 l 543 722 q 536 799 543 764 q 512 860 529 833 q 465 901 494 886 q 389 915 435 915 q 306 888 339 915 q 251 807 272 860 q 221 679 231 754 q 210 508 211 604 l 215 508 q 282 590 232 561 q 388 618 332 618 q 546 587 486 618 q 638 508 606 556 q 681 406 671 461 q 692 304 692 351 q 681 200 692 256 q 638 97 671 144 q 546 17 606 49 q 388 -15 486 -15 m 390 83 q 478 107 446 83 q 526 164 511 131 q 546 234 542 197 q 550 299 550 271 q 547 366 550 328 q 527 440 543 404 q 479 499 511 475 q 390 524 447 524 q 294 501 329 524 q 242 443 260 478 q 220 369 225 408 q 215 299 215 331 q 220 234 215 271 q 242 164 225 197 q 294 107 260 131 q 390 83 329 83 z "},"7":{"ha":658,"x_min":38,"x_max":631,"o":"m 38 1000 l 631 1000 l 631 882 l 364 0 l 217 0 l 496 896 l 165 896 l 147 694 l 38 694 l 38 1000 z "},"8":{"ha":738,"x_min":60,"x_max":679,"o":"m 365 -15 q 219 9 278 -15 q 124 74 160 33 q 74 167 89 115 q 60 272 60 218 q 103 431 60 367 q 246 522 147 494 q 119 615 158 553 q 81 772 81 678 q 94 860 81 817 q 141 938 108 904 q 228 994 174 972 q 363 1015 282 1015 q 501 994 444 1015 q 592 938 557 972 q 643 858 628 903 q 658 769 658 814 q 617 611 658 675 q 485 521 575 547 q 633 428 586 493 q 679 269 679 364 q 663 164 679 215 q 608 73 646 113 q 511 9 571 33 q 365 -15 451 -15 m 369 471 q 290 455 321 471 q 239 412 258 439 q 212 349 219 385 q 204 275 204 314 q 213 203 204 238 q 240 143 221 169 q 291 101 260 117 q 369 85 322 85 q 447 100 415 85 q 498 141 478 115 q 526 201 518 167 q 535 272 535 235 q 526 350 535 314 q 498 413 518 386 q 447 456 478 440 q 369 471 415 471 m 369 571 q 438 583 410 571 q 482 618 465 596 q 506 669 499 640 q 514 731 514 697 q 506 803 514 769 q 481 863 499 838 q 436 901 464 888 q 369 915 408 915 q 301 901 329 915 q 257 861 274 886 q 233 803 240 836 q 225 733 225 769 q 232 672 225 701 q 256 621 239 643 q 300 585 272 599 q 369 571 328 571 z "},"9":{"ha":758,"x_min":58,"x_max":692,"o":"m 369 1015 q 554 971 489 1015 q 650 854 619 926 q 686 691 681 782 q 692 507 692 600 q 679 285 692 382 q 631 121 667 188 q 530 19 594 54 q 360 -15 465 -15 q 225 7 279 -15 q 138 69 171 29 q 90 166 104 110 q 75 292 75 222 l 214 292 q 221 210 214 247 q 245 144 228 172 q 292 101 263 117 q 368 85 322 85 q 467 108 431 85 q 523 180 504 131 q 547 306 542 229 q 554 492 553 383 l 549 492 q 476 405 531 435 q 363 375 422 375 q 203 407 264 375 q 111 488 143 439 q 69 592 79 536 q 58 696 58 647 q 69 800 58 744 q 113 903 79 856 q 207 983 146 951 q 369 1015 268 1015 m 367 917 q 275 893 308 917 q 225 836 242 869 q 204 765 208 803 q 200 701 200 728 q 203 634 200 672 q 222 560 207 596 q 270 501 238 525 q 360 476 303 476 q 459 499 422 476 q 514 557 496 522 q 537 631 532 592 q 542 701 542 669 q 537 765 542 728 q 515 836 532 803 q 462 893 497 869 q 367 917 426 917 z "}," ":{"ha":275,"x_min":0,"x_max":0,"o":""},"n":{"ha":814,"x_min":42,"x_max":800,"o":"m 563 426 q 558 497 563 464 q 541 556 554 531 q 503 596 528 581 q 436 611 478 611 q 366 593 396 611 q 317 546 336 575 q 288 482 297 517 q 279 414 279 447 l 279 111 l 383 83 l 383 0 l 43 0 l 43 83 l 147 111 l 147 583 l 42 611 l 42 694 l 251 694 l 279 583 q 348 677 293 646 q 479 708 403 708 q 592 683 550 708 q 658 618 635 658 q 688 527 681 578 q 696 425 696 476 l 696 111 l 800 83 l 800 0 l 563 0 l 563 426 z "},"o":{"ha":692,"x_min":58,"x_max":636,"o":"m 347 -14 q 210 13 265 -14 q 121 87 154 39 q 73 201 88 135 q 58 347 58 267 q 73 494 58 428 q 121 608 88 560 q 210 682 154 656 q 347 708 265 708 q 485 682 429 708 q 574 608 540 656 q 622 494 607 560 q 636 347 636 428 q 622 201 636 267 q 574 87 607 135 q 485 13 540 39 q 347 -14 429 -14 m 347 69 q 423 93 394 69 q 466 156 451 117 q 485 245 481 196 q 489 347 489 294 q 485 449 489 399 q 466 538 481 499 q 423 601 451 578 q 347 625 394 625 q 271 601 299 625 q 228 538 243 578 q 210 449 214 499 q 206 347 206 399 q 210 245 206 294 q 228 156 214 196 q 271 93 243 117 q 347 69 299 69 z "},"s":{"ha":581,"x_min":57,"x_max":526,"o":"m 163 86 l 135 0 l 57 0 l 57 215 l 176 215 q 213 109 176 142 q 300 76 250 76 q 371 97 338 76 q 404 161 404 117 q 379 219 404 197 q 317 257 354 240 q 238 290 281 274 q 158 333 194 307 q 96 401 121 360 q 71 507 71 442 q 88 599 71 561 q 133 662 106 638 q 195 697 161 686 q 263 708 229 708 q 308 703 286 708 q 349 685 331 697 q 381 653 368 672 q 397 607 393 633 l 403 607 l 431 694 l 508 694 l 508 478 l 390 478 q 358 581 389 543 q 275 618 328 618 q 215 596 238 618 q 192 536 192 574 q 217 475 192 497 q 278 435 242 453 q 359 401 315 418 q 440 359 403 385 q 501 294 476 333 q 526 190 526 254 q 508 99 526 138 q 462 35 490 60 q 397 -2 433 10 q 322 -14 360 -14 q 272 -8 297 -14 q 225 10 246 -3 q 189 41 204 22 q 168 86 174 60 l 163 86 z "},"p":{"ha":739,"x_min":18,"x_max":682,"o":"m 18 -218 l 122 -190 l 122 583 l 18 611 l 18 694 l 226 694 l 254 585 q 319 677 269 646 q 444 708 368 708 q 558 680 513 708 q 632 603 604 651 q 671 488 660 554 q 682 347 682 422 q 670 206 682 272 q 631 92 658 140 q 558 15 604 43 q 443 -14 511 -14 q 319 17 365 -14 q 254 100 274 47 l 254 -190 l 400 -212 l 400 -299 l 18 -299 l 18 -218 m 410 611 q 293 560 332 611 q 254 439 254 510 l 254 268 q 264 199 254 232 q 293 140 274 167 q 342 99 313 114 q 410 83 371 83 q 474 105 449 83 q 515 163 500 126 q 535 246 529 199 q 540 346 540 293 q 535 446 540 397 q 515 531 529 494 q 474 589 500 567 q 410 611 449 611 z "},"q":{"ha":739,"x_min":57,"x_max":721,"o":"m 325 -212 l 485 -190 l 485 100 q 419 17 465 47 q 296 -14 374 -14 q 181 15 226 -14 q 108 92 135 43 q 69 206 81 140 q 57 347 57 272 q 68 488 57 422 q 107 603 79 554 q 180 680 135 651 q 294 708 225 708 q 420 677 371 708 q 485 585 469 646 l 513 694 l 721 694 l 721 611 l 617 583 l 617 -196 l 719 -218 l 719 -299 l 325 -299 l 325 -212 m 329 611 q 264 589 289 611 q 224 531 239 567 q 204 446 210 494 q 199 346 199 397 q 204 246 199 293 q 224 163 210 199 q 264 105 239 126 q 329 83 289 83 q 397 99 368 83 q 446 140 426 114 q 475 199 465 167 q 485 268 485 232 l 485 439 q 446 560 485 510 q 329 611 407 611 z "},"b":{"ha":739,"x_min":17,"x_max":682,"o":"m 226 0 l 18 0 l 18 83 l 122 111 l 122 938 l 17 965 l 17 1049 l 254 1049 l 254 585 q 319 677 269 646 q 444 708 368 708 q 558 680 513 708 q 632 603 604 651 q 671 488 660 554 q 682 347 682 422 q 670 206 682 272 q 631 92 658 140 q 558 15 604 43 q 443 -14 511 -14 q 319 17 365 -14 q 254 100 274 47 l 226 0 m 410 611 q 293 560 332 611 q 254 439 254 510 l 254 268 q 264 199 254 232 q 293 140 274 167 q 342 99 313 114 q 410 83 371 83 q 474 105 449 83 q 515 163 500 126 q 535 246 529 199 q 540 346 540 293 q 535 446 540 397 q 515 531 529 494 q 474 589 500 567 q 410 611 449 611 z "},"m":{"ha":1153,"x_min":42,"x_max":1138,"o":"m 43 83 l 147 111 l 147 583 l 42 611 l 42 694 l 251 694 l 279 583 q 341 672 290 636 q 460 708 392 708 q 592 672 550 708 q 647 576 635 636 q 719 673 669 638 q 838 708 769 708 q 937 690 899 708 q 997 640 975 671 q 1026 569 1018 608 q 1033 488 1033 529 l 1033 111 l 1138 83 l 1138 0 l 900 0 l 900 378 q 897 470 900 428 q 883 544 894 513 q 848 593 871 575 q 785 611 825 611 q 724 589 749 611 q 685 534 700 567 q 663 465 669 501 q 656 397 656 428 l 656 111 l 760 83 l 760 0 l 524 0 l 524 378 q 521 470 524 428 q 506 544 518 513 q 472 593 494 575 q 408 611 449 611 q 350 590 375 611 q 310 537 325 568 q 287 470 294 506 q 279 406 279 435 l 279 111 l 383 83 l 383 0 l 43 0 l 43 83 z "},"l":{"ha":374,"x_min":15,"x_max":356,"o":"m 18 83 l 119 111 l 119 938 l 15 965 l 15 1049 l 251 1049 l 251 111 l 356 83 l 356 0 l 18 0 l 18 83 z "},"u":{"ha":763,"x_min":21,"x_max":744,"o":"m 318 -14 q 222 2 263 -14 q 156 46 182 18 q 117 110 129 74 q 104 189 104 147 l 104 583 l 21 611 l 21 694 l 238 694 l 238 281 q 242 199 238 236 q 259 137 246 163 q 296 97 272 111 q 357 83 319 83 q 426 99 397 83 q 472 140 454 114 q 499 197 490 165 q 507 263 507 229 l 507 583 l 382 611 l 382 694 l 639 694 l 639 111 l 744 83 l 744 0 l 535 0 l 507 115 q 443 18 493 50 q 318 -14 393 -14 z "},"c":{"ha":642,"x_min":57,"x_max":582,"o":"m 336 -14 q 200 13 254 -14 q 114 87 146 39 q 69 201 82 135 q 57 347 57 267 q 72 494 57 428 q 117 608 86 560 q 197 682 149 656 q 315 708 246 708 q 419 685 376 708 q 472 607 461 663 l 478 607 l 506 694 l 582 694 l 582 468 l 464 468 q 458 519 464 493 q 438 565 453 544 q 399 599 424 586 q 339 611 375 611 q 264 590 290 611 q 224 531 238 568 q 207 447 210 494 q 204 347 204 399 q 207 245 204 294 q 224 156 210 196 q 264 93 238 117 q 339 69 290 69 q 396 85 372 69 q 433 126 419 100 q 453 185 447 151 q 460 253 460 218 l 581 253 q 569 149 581 197 q 528 64 557 100 q 453 7 500 28 q 336 -14 407 -14 z "},"f":{"ha":469,"x_min":43,"x_max":525,"o":"m 43 694 l 147 694 l 147 769 q 158 893 147 839 q 193 985 168 947 q 258 1042 218 1022 q 358 1061 299 1061 q 446 1049 404 1061 q 525 1010 488 1038 l 492 933 q 435 950 467 944 q 378 956 404 956 q 333 948 351 956 q 302 919 314 940 q 285 863 290 899 q 279 769 279 826 l 279 694 l 424 694 l 424 593 l 279 593 l 279 111 l 424 92 l 424 0 l 43 0 l 43 83 l 147 111 l 147 593 l 43 593 l 43 694 z "},"k":{"ha":729,"x_min":17,"x_max":713,"o":"m 18 83 l 122 111 l 122 938 l 17 965 l 17 1049 l 254 1049 l 254 407 l 481 694 l 664 694 l 664 611 l 540 590 l 396 424 l 606 111 l 713 83 l 713 0 l 529 0 l 310 325 l 254 260 l 254 111 l 344 83 l 344 0 l 18 0 l 18 83 z "},"g":{"ha":649,"x_min":42,"x_max":624,"o":"m 304 708 q 357 704 331 708 q 406 689 383 700 q 447 658 429 678 q 472 607 464 639 l 479 607 l 507 694 l 583 694 l 583 457 q 572 355 583 403 q 532 271 561 307 q 453 214 503 235 q 325 193 403 193 q 198 184 238 193 q 158 150 158 175 q 166 126 158 135 q 193 113 174 118 q 246 107 213 108 q 332 106 279 106 q 444 100 392 106 q 537 74 497 94 q 600 13 576 53 q 624 -99 624 -28 q 599 -208 624 -167 q 535 -273 575 -250 q 442 -304 494 -296 q 332 -312 389 -312 q 209 -305 263 -312 q 118 -277 156 -297 q 61 -222 81 -257 q 42 -131 42 -186 q 53 -67 42 -93 q 81 -25 64 -42 q 120 1 99 -8 q 163 15 142 11 l 163 21 q 89 52 117 29 q 61 119 61 75 q 81 188 61 158 q 158 224 100 217 l 158 232 q 83 324 103 267 q 63 447 63 381 q 76 552 63 504 q 118 635 89 600 q 193 689 147 669 q 304 708 239 708 m 331 288 q 394 300 369 288 q 432 334 418 313 q 451 385 446 356 q 457 451 457 415 q 451 515 457 486 q 432 566 446 544 q 394 599 418 588 q 331 611 369 611 q 267 599 292 611 q 227 566 242 588 q 207 515 213 544 q 201 451 201 486 q 207 387 201 417 q 227 335 213 357 q 267 300 242 313 q 331 288 292 288 m 326 11 q 214 -12 253 11 q 175 -101 175 -36 q 186 -158 175 -136 q 218 -192 197 -179 q 268 -208 239 -204 q 333 -212 297 -212 q 397 -208 368 -212 q 447 -192 426 -204 q 479 -158 468 -179 q 490 -100 490 -136 q 479 -38 490 -61 q 447 -5 468 -15 q 394 8 425 6 q 326 11 364 11 z "},"r":{"ha":507,"x_min":40,"x_max":482,"o":"m 482 582 q 385 575 424 582 q 322 547 346 568 q 288 490 299 526 q 278 396 278 454 l 278 108 l 422 90 l 422 0 l 42 0 l 42 81 l 146 108 l 146 583 l 40 611 l 40 694 l 243 694 l 271 583 q 353 678 294 647 q 482 708 411 708 l 482 582 z "},"t":{"ha":438,"x_min":17,"x_max":431,"o":"m 17 667 l 121 694 l 149 876 l 253 876 l 253 694 l 383 694 l 383 593 l 253 593 l 253 215 q 268 122 253 151 q 318 93 283 93 q 357 97 333 93 q 401 108 381 101 l 431 31 q 370 -1 410 11 q 288 -14 331 -14 q 160 41 200 -14 q 121 215 121 96 l 121 593 l 17 593 l 17 667 z "},"v":{"ha":742,"x_min":13,"x_max":729,"o":"m 88 583 l 13 611 l 13 694 l 313 694 l 313 604 l 218 583 l 371 89 l 524 583 l 431 604 l 431 694 l 729 694 l 729 611 l 654 583 l 468 0 l 274 0 l 88 583 z "},"w":{"ha":1083,"x_min":17,"x_max":1067,"o":"m 542 585 l 426 0 l 222 0 l 92 583 l 17 611 l 17 694 l 325 694 l 325 604 l 222 583 l 319 89 l 447 694 l 636 694 l 764 89 l 861 583 l 760 604 l 760 694 l 1067 694 l 1067 611 l 992 583 l 861 0 l 656 0 l 542 585 z "},"h":{"ha":782,"x_min":17,"x_max":768,"o":"m 531 426 q 526 496 531 463 q 510 555 522 529 q 472 596 497 581 q 406 611 447 611 q 337 597 365 611 q 290 560 308 583 q 263 507 272 538 q 254 443 254 476 l 254 111 l 358 83 l 358 0 l 18 0 l 18 83 l 122 111 l 122 938 l 17 965 l 17 1049 l 254 1049 l 254 583 q 320 677 267 646 q 449 708 374 708 q 560 683 518 708 q 626 618 603 658 q 656 527 649 578 q 664 425 664 476 l 664 111 l 768 83 l 768 0 l 531 0 l 531 426 z "},"y":{"ha":726,"x_min":11,"x_max":714,"o":"m 79 583 l 11 611 l 11 694 l 326 694 l 326 604 l 217 583 l 365 96 l 511 583 l 400 604 l 400 694 l 714 694 l 714 611 l 644 583 l 381 -187 l 486 -215 l 486 -299 l 128 -299 l 128 -211 l 260 -187 l 329 0 l 286 0 l 79 583 z "},"x":{"ha":756,"x_min":31,"x_max":725,"o":"m 31 83 l 106 111 l 311 356 l 119 583 l 38 611 l 38 694 l 354 694 l 354 611 l 264 583 l 378 443 l 492 583 l 401 611 l 401 694 l 718 694 l 718 611 l 636 583 l 443 356 l 650 111 l 725 83 l 725 0 l 404 0 l 404 83 l 503 111 l 378 268 l 253 111 l 351 83 l 351 0 l 31 0 l 31 83 z "},"˙":{"ha":365,"x_min":93,"x_max":271,"o":"m 182 832 q 118 857 143 832 q 93 921 93 882 q 118 984 93 960 q 182 1008 143 1008 q 246 984 221 1008 q 271 921 271 960 q 246 857 271 882 q 182 832 221 832 z "},"¨":{"ha":643,"x_min":96,"x_max":547,"o":"m 178 844 q 119 867 142 844 q 96 926 96 890 q 119 985 96 963 q 178 1008 142 1008 q 238 985 214 1008 q 261 926 261 963 q 238 867 261 890 q 178 844 214 844 m 464 844 q 405 867 428 844 q 382 926 382 890 q 405 985 382 963 q 464 1008 428 1008 q 524 985 500 1008 q 547 926 547 963 q 524 867 547 890 q 464 844 500 844 z "},"ı":{"ha":397,"x_min":39,"x_max":379,"o":"m 42 83 l 143 111 l 143 592 l 39 619 l 39 694 l 275 694 l 275 111 l 379 83 l 379 0 l 42 0 l 42 83 z "},"ȷ":{"ha":339,"x_min":-124,"x_max":254,"o":"m 254 -21 q 208 -237 254 -161 q 43 -312 163 -312 q -44 -301 -3 -312 q -124 -261 -86 -289 l -90 -185 q -34 -201 -65 -196 q 24 -207 -3 -207 q 69 -199 50 -207 q 99 -171 88 -192 q 117 -114 111 -150 q 122 -21 122 -78 l 122 583 l 18 611 l 18 694 l 254 694 l 254 -21 z "},"z":{"ha":636,"x_min":47,"x_max":581,"o":"m 75 694 l 564 694 l 564 576 l 190 104 l 488 104 l 503 229 l 581 229 l 581 0 l 47 0 l 47 118 l 424 590 l 167 590 l 153 486 l 75 486 l 75 694 z "},"H":{"ha":1026,"x_min":46,"x_max":981,"o":"m 981 917 l 851 889 l 851 111 l 981 83 l 981 0 l 585 0 l 585 83 l 714 111 l 714 449 l 313 449 l 313 111 l 442 83 l 442 0 l 46 0 l 46 83 l 175 111 l 175 889 l 46 917 l 46 1000 l 442 1000 l 442 917 l 313 889 l 313 564 l 714 564 l 714 889 l 585 917 l 585 1000 l 981 1000 l 981 917 z "},"A":{"ha":922,"x_min":-11,"x_max":933,"o":"m 364 1000 l 558 1000 l 831 111 l 933 83 l 933 0 l 568 0 l 568 83 l 692 111 l 624 342 l 299 342 l 231 111 l 356 83 l 356 0 l -11 0 l -11 83 l 92 111 l 364 1000 m 332 457 l 589 457 l 461 893 l 332 457 z "},"I":{"ha":488,"x_min":46,"x_max":442,"o":"m 442 917 l 313 889 l 313 111 l 442 83 l 442 0 l 46 0 l 46 83 l 175 111 l 175 889 l 46 917 l 46 1000 l 442 1000 l 442 917 z "},"V":{"ha":936,"x_min":-11,"x_max":947,"o":"m 106 889 l -11 917 l -11 1000 l 369 1000 l 369 917 l 244 889 l 468 107 l 692 889 l 568 917 l 568 1000 l 947 1000 l 947 917 l 831 889 l 565 0 l 371 0 l 106 889 z "},"O":{"ha":885,"x_min":63,"x_max":821,"o":"m 446 -15 q 249 26 324 -15 q 132 137 174 67 q 76 301 90 207 q 63 501 63 394 q 76 701 63 607 q 129 865 89 794 q 243 975 169 935 q 439 1015 317 1015 q 637 974 561 1015 q 753 863 713 933 q 807 698 793 792 q 821 499 821 604 q 808 300 821 393 q 756 137 796 207 q 642 26 717 67 q 446 -15 568 -15 m 446 85 q 575 117 529 85 q 644 206 621 150 q 672 337 667 263 q 676 496 676 411 q 672 656 676 581 q 644 790 667 732 q 574 881 621 847 q 444 915 528 915 q 315 883 363 915 q 244 794 268 850 q 213 662 219 738 q 207 499 207 586 q 213 335 207 411 q 244 204 219 260 q 316 117 268 149 q 446 85 364 85 z "},"C":{"ha":839,"x_min":64,"x_max":778,"o":"m 422 915 q 313 887 354 915 q 248 804 271 858 q 217 672 225 750 q 208 496 208 594 q 216 328 208 404 q 247 199 224 253 q 315 115 271 144 q 433 85 360 85 q 535 106 496 85 q 598 162 575 126 q 630 245 621 197 q 639 347 639 293 l 778 347 q 760 205 778 271 q 701 90 742 139 q 592 13 660 40 q 428 -15 525 -15 q 242 24 313 -15 q 131 133 171 63 q 78 303 92 204 q 64 521 64 401 q 75 713 64 622 q 123 870 86 803 q 229 976 160 938 q 414 1015 299 1015 q 490 1009 454 1015 q 553 987 525 1003 q 601 942 582 971 q 628 871 619 914 l 635 871 l 663 1000 l 772 1000 l 772 660 l 635 660 q 583 847 635 778 q 422 915 531 915 z "},"D":{"ha":921,"x_min":46,"x_max":857,"o":"m 313 896 l 313 104 l 468 104 q 605 136 556 104 q 678 223 654 168 q 708 351 703 278 q 713 510 713 425 q 705 670 713 599 q 671 792 697 742 q 593 869 644 842 q 453 896 542 896 l 313 896 m 447 1000 q 655 965 575 1000 q 780 867 735 931 q 841 713 825 803 q 857 513 857 622 q 843 314 857 407 q 788 151 829 221 q 668 40 746 81 q 463 0 590 0 l 46 0 l 46 83 l 175 111 l 175 889 l 46 917 l 46 1000 l 447 1000 z "},"G":{"ha":857,"x_min":64,"x_max":776,"o":"m 443 467 l 776 467 l 776 0 l 667 0 l 653 143 l 646 143 q 617 76 635 106 q 573 26 600 47 q 506 -5 546 6 q 410 -15 465 -15 q 237 22 304 -15 q 131 129 169 60 q 78 297 93 199 q 64 517 64 394 q 76 711 64 621 q 126 869 88 801 q 235 976 164 938 q 425 1015 307 1015 q 490 1010 458 1015 q 549 991 522 1006 q 597 949 576 976 q 629 876 617 922 l 636 876 l 663 1000 l 772 1000 l 772 660 l 635 660 q 582 840 635 778 q 424 901 529 901 q 312 874 354 901 q 247 795 269 847 q 216 667 224 743 q 208 492 208 590 q 216 319 208 393 q 247 196 224 244 q 313 123 269 147 q 425 99 356 99 q 528 117 488 99 q 594 169 569 136 q 628 249 618 203 q 639 351 638 296 l 443 351 l 443 467 z "},"J":{"ha":649,"x_min":24,"x_max":543,"o":"m 281 -14 q 160 1 210 -14 q 81 47 111 17 q 37 124 50 78 q 24 231 24 169 q 24 256 24 243 q 26 283 25 269 l 143 283 q 176 131 143 179 q 275 83 208 83 q 378 136 351 83 q 406 286 406 189 l 406 889 l 204 917 l 204 1000 l 543 1000 l 543 292 q 481 58 543 131 q 281 -14 418 -14 z "},"E":{"ha":785,"x_min":46,"x_max":713,"o":"m 46 83 l 175 111 l 175 889 l 46 917 l 46 1000 l 713 1000 l 713 694 l 603 694 l 585 896 l 313 896 l 313 564 l 574 564 l 574 449 l 313 449 l 313 104 l 583 104 l 603 326 l 713 326 l 713 0 l 46 0 l 46 83 z "},"F":{"ha":742,"x_min":46,"x_max":699,"o":"m 571 896 l 313 896 l 313 550 l 560 550 l 560 435 l 313 435 l 313 111 l 469 90 l 469 0 l 46 0 l 46 83 l 175 111 l 175 889 l 46 917 l 46 1000 l 699 1000 l 699 694 l 589 694 l 571 896 z "},"L":{"ha":722,"x_min":46,"x_max":685,"o":"m 575 326 l 685 326 l 685 0 l 46 0 l 46 83 l 175 111 l 175 889 l 46 917 l 46 1000 l 442 1000 l 442 917 l 313 889 l 313 104 l 556 104 l 575 326 z "},"W":{"ha":1332,"x_min":-6,"x_max":1338,"o":"m 111 889 l -6 917 l -6 1000 l 375 1000 l 375 917 l 250 889 l 404 107 l 575 1000 l 756 1000 l 928 107 l 1082 889 l 958 917 l 958 1000 l 1338 1000 l 1338 917 l 1221 889 l 1025 0 l 817 0 l 665 808 l 515 0 l 307 0 l 111 889 z "},"U":{"ha":983,"x_min":11,"x_max":972,"o":"m 843 889 l 843 443 q 832 276 843 358 q 784 130 821 194 q 678 25 747 65 q 490 -15 608 -15 q 303 25 372 -15 q 197 131 233 65 q 151 278 161 196 q 140 446 140 361 l 140 889 l 11 917 l 11 1000 l 407 1000 l 407 917 l 278 889 l 278 443 q 284 314 278 378 q 312 199 290 250 q 376 117 333 149 q 490 85 418 85 q 606 117 563 85 q 671 201 649 150 q 699 316 693 253 q 706 440 706 379 l 706 889 l 576 917 l 576 1000 l 972 1000 l 972 917 l 843 889 z "},"S":{"ha":768,"x_min":64,"x_max":703,"o":"m 414 -15 q 324 -4 360 -15 q 267 25 289 7 q 232 67 244 43 q 211 114 219 90 l 203 114 l 175 0 l 64 0 l 64 308 l 203 308 q 217 212 203 251 q 257 147 232 172 q 317 110 282 122 q 394 99 353 99 q 472 110 440 99 q 525 143 504 122 q 555 192 546 164 q 564 250 564 219 q 528 355 564 317 q 438 419 492 393 q 322 467 385 446 q 205 523 258 489 q 115 611 151 557 q 79 756 79 665 q 100 869 79 821 q 156 951 121 918 q 240 999 192 983 q 343 1015 289 1015 q 412 1008 379 1015 q 472 983 444 1000 q 517 939 499 967 q 542 871 535 911 l 549 871 l 576 1000 l 686 1000 l 686 660 l 549 660 q 539 744 549 701 q 507 822 529 788 q 451 879 485 857 q 368 901 417 901 q 310 892 338 901 q 263 864 283 882 q 230 820 242 846 q 218 761 218 794 q 254 667 218 701 q 344 608 290 633 q 460 560 397 583 q 577 502 524 538 q 667 410 631 467 q 703 260 703 353 q 627 58 703 131 q 414 -15 551 -15 z "},"Y":{"ha":924,"x_min":-4,"x_max":926,"o":"m 113 889 l -4 917 l -4 1000 l 386 1000 l 386 917 l 256 889 l 461 454 l 667 889 l 538 917 l 538 1000 l 926 1000 l 926 917 l 810 889 l 531 347 l 531 111 l 660 83 l 660 0 l 264 0 l 264 83 l 393 111 l 393 347 l 113 889 z "},"ĸ":{"ha":782,"x_min":42,"x_max":765,"o":"m 43 83 l 147 111 l 147 583 l 42 611 l 42 694 l 279 694 l 279 390 l 540 694 l 717 694 l 717 611 l 593 583 l 425 396 l 644 111 l 765 83 l 765 0 l 568 0 l 347 308 l 279 232 l 279 111 l 369 83 l 369 0 l 43 0 l 43 83 z "},"X":{"ha":961,"x_min":18,"x_max":943,"o":"m 18 83 l 135 111 l 393 500 l 160 889 l 36 917 l 36 1000 l 424 1000 l 424 917 l 304 889 l 481 599 l 657 889 l 538 917 l 538 1000 l 925 1000 l 925 917 l 801 889 l 567 500 l 826 111 l 943 83 l 943 0 l 546 0 l 546 83 l 665 111 l 481 407 l 296 111 l 415 83 l 415 0 l 18 0 l 18 83 z "},"Z":{"ha":804,"x_min":50,"x_max":743,"o":"m 78 1000 l 726 1000 l 726 882 l 210 104 l 614 104 l 633 339 l 743 339 l 743 0 l 50 0 l 50 118 l 571 896 l 206 896 l 188 688 l 78 688 l 78 1000 z "},"T":{"ha":860,"x_min":38,"x_max":822,"o":"m 693 896 l 499 896 l 499 111 l 642 83 l 642 0 l 218 0 l 218 83 l 361 111 l 361 896 l 165 896 l 147 688 l 38 688 l 38 1000 l 822 1000 l 822 688 l 713 688 l 693 896 z "},"Q":{"ha":886,"x_min":64,"x_max":849,"o":"m 64 501 q 77 701 64 607 q 131 865 90 794 q 244 975 171 935 q 440 1015 318 1015 q 638 974 563 1015 q 754 863 714 933 q 808 698 794 792 q 822 499 822 604 q 813 326 822 408 q 775 178 803 244 q 697 66 747 113 q 565 -1 646 19 l 849 -106 l 779 -226 l 268 14 q 165 91 204 43 q 103 201 125 139 q 72 340 81 264 q 64 501 64 415 m 447 85 q 576 117 531 85 q 645 206 622 150 q 673 337 668 263 q 678 496 678 411 q 673 656 678 581 q 645 790 668 732 q 576 881 622 847 q 446 915 529 915 q 317 883 364 915 q 245 794 269 850 q 215 662 221 738 q 208 499 208 586 q 215 335 208 411 q 245 204 221 260 q 317 117 269 149 q 447 85 365 85 z "},"P":{"ha":821,"x_min":46,"x_max":786,"o":"m 442 83 l 442 0 l 46 0 l 46 83 l 175 111 l 175 889 l 46 917 l 46 1000 l 442 1000 q 628 974 560 1000 q 732 903 697 947 q 776 799 767 858 q 786 674 786 740 q 773 548 786 607 q 722 444 760 489 q 617 373 685 399 q 442 347 550 347 l 313 347 l 313 111 l 442 83 m 419 451 q 536 468 492 451 q 604 514 581 485 q 636 583 628 543 q 644 668 644 622 q 636 760 644 718 q 603 833 628 803 q 535 879 579 863 q 419 896 490 896 l 313 896 l 313 451 l 419 451 z "},"R":{"ha":881,"x_min":46,"x_max":863,"o":"m 518 83 l 624 94 l 435 431 l 313 431 l 313 111 l 442 83 l 442 0 l 46 0 l 46 83 l 175 111 l 175 889 l 46 917 l 46 1000 l 476 1000 q 633 977 574 1000 q 724 916 692 954 q 768 826 757 878 q 779 715 779 774 q 772 619 779 665 q 742 538 764 574 q 679 475 719 501 q 575 438 639 449 l 774 111 l 863 83 l 863 0 l 518 0 l 518 83 m 454 535 q 552 548 515 535 q 608 584 589 561 q 633 640 628 607 q 639 710 639 672 q 633 787 639 753 q 608 845 628 821 q 552 883 589 869 q 454 896 515 896 l 313 896 l 313 535 l 454 535 z "},"B":{"ha":824,"x_min":46,"x_max":772,"o":"m 46 1000 l 428 1000 q 584 984 525 1000 q 676 935 643 968 q 719 855 708 903 q 731 744 731 807 q 721 664 731 700 q 690 602 711 628 q 633 561 668 576 q 546 546 597 546 l 546 540 q 644 522 601 540 q 715 472 686 504 q 758 394 743 439 q 772 297 772 350 q 760 178 772 232 q 712 84 747 124 q 612 22 676 44 q 442 0 547 0 l 46 0 l 46 83 l 175 111 l 175 889 l 46 917 l 46 1000 m 447 104 q 538 118 503 104 q 594 157 574 132 q 621 217 614 182 q 628 297 628 253 q 620 380 628 344 q 593 439 613 415 q 541 475 574 463 q 457 488 508 488 l 313 488 l 313 104 l 447 104 m 586 744 q 580 808 586 779 q 557 856 574 836 q 510 885 540 875 q 433 896 481 896 l 313 896 l 313 592 l 442 592 q 513 602 485 592 q 558 632 542 613 q 580 680 574 651 q 586 744 586 708 z "},"K":{"ha":942,"x_min":46,"x_max":922,"o":"m 525 83 l 633 97 l 369 457 l 313 396 l 313 111 l 442 83 l 442 0 l 46 0 l 46 83 l 175 111 l 175 889 l 46 917 l 46 1000 l 429 1000 l 429 917 l 313 894 l 313 574 l 606 899 l 510 917 l 510 1000 l 908 1000 l 908 917 l 785 889 l 469 560 l 794 111 l 922 83 l 922 0 l 525 0 l 525 83 z "},"M":{"ha":1276,"x_min":46,"x_max":1231,"o":"m 313 896 l 313 111 l 414 83 l 414 0 l 46 0 l 46 83 l 175 111 l 175 889 l 46 917 l 46 1000 l 414 1000 l 638 122 l 863 1000 l 1231 1000 l 1231 917 l 1101 889 l 1101 111 l 1231 83 l 1231 0 l 863 0 l 863 83 l 964 111 l 964 896 l 738 0 l 538 0 l 313 896 z "},"N":{"ha":1056,"x_min":46,"x_max":1026,"o":"m 760 111 l 760 889 l 658 917 l 658 1000 l 1026 1000 l 1026 917 l 897 889 l 897 0 l 658 0 l 313 889 l 313 111 l 414 83 l 414 0 l 46 0 l 46 83 l 175 111 l 175 889 l 46 917 l 46 1000 l 414 1000 l 760 111 z "},"ə":{"ha":651,"x_min":49,"x_max":594,"o":"m 319 708 q 458 683 404 708 q 542 611 511 658 q 583 494 572 564 q 594 335 594 424 q 585 200 594 264 q 547 88 576 136 q 462 13 517 40 q 315 -15 407 -15 q 172 12 225 -15 q 92 87 119 39 q 56 202 64 135 q 49 350 49 269 l 467 350 q 460 466 467 415 q 439 551 454 517 q 395 603 424 585 q 321 621 367 621 q 253 609 279 621 q 214 578 228 597 q 195 535 200 560 q 190 488 190 511 l 69 488 q 81 572 69 532 q 120 642 92 613 q 197 690 149 672 q 319 708 244 708 m 321 74 q 424 123 392 74 q 464 260 456 172 l 182 260 q 211 119 182 165 q 321 74 240 74 z "}," ":{"ha":275,"x_min":0,"x_max":0,"o":""},"d":{"ha":739,"x_min":57,"x_max":721,"o":"m 485 938 l 365 965 l 365 1049 l 617 1049 l 617 111 l 721 83 l 721 0 l 513 0 l 485 100 q 419 17 465 47 q 296 -14 374 -14 q 181 15 226 -14 q 108 92 135 43 q 69 206 81 140 q 57 347 57 272 q 68 488 57 422 q 107 603 79 554 q 180 680 135 651 q 294 708 225 708 q 420 677 371 708 q 485 585 469 646 l 485 938 m 329 611 q 264 589 289 611 q 224 531 239 567 q 204 446 210 494 q 199 346 199 397 q 204 246 199 293 q 224 163 210 199 q 264 105 239 126 q 329 83 289 83 q 397 99 368 83 q 446 140 426 114 q 475 199 465 167 q 485 268 485 232 l 485 439 q 446 560 485 510 q 329 611 407 611 z "},"e":{"ha":656,"x_min":57,"x_max":597,"o":"m 346 -14 q 207 11 263 -14 q 118 83 151 36 q 71 197 85 131 q 57 347 57 264 q 71 498 57 431 q 119 612 85 565 q 209 683 153 658 q 349 708 265 708 q 467 689 419 708 q 543 630 514 669 q 585 530 572 590 q 597 388 597 469 q 597 353 597 371 q 596 317 597 336 l 204 317 q 208 220 204 265 q 227 142 213 175 q 269 89 242 108 q 346 69 297 69 q 410 83 386 69 q 447 116 435 96 q 464 160 460 136 q 469 206 468 183 l 596 206 q 578 126 592 165 q 537 55 565 86 q 463 5 508 24 q 346 -14 417 -14 m 340 625 q 271 607 297 625 q 230 558 244 589 q 210 487 215 528 q 204 400 206 446 l 468 400 q 438 575 468 525 q 340 625 408 625 z "},".":{"ha":299,"x_min":74,"x_max":225,"o":"m 74 142 l 225 142 l 225 0 l 74 0 l 74 142 z "},",":{"ha":299,"x_min":74,"x_max":225,"o":"m 74 140 l 225 140 l 225 0 l 167 -154 l 94 -154 l 132 0 l 74 0 l 74 140 z "},":":{"ha":307,"x_min":78,"x_max":229,"o":"m 78 142 l 229 142 l 229 0 l 78 0 l 78 142 m 78 583 l 229 583 l 229 442 l 78 442 l 78 583 z "},";":{"ha":307,"x_min":78,"x_max":229,"o":"m 78 140 l 229 140 l 229 0 l 171 -154 l 99 -154 l 136 0 l 78 0 l 78 140 m 78 583 l 229 583 l 229 442 l 78 442 l 78 583 z "},"=":{"ha":556,"x_min":81,"x_max":475,"o":"m 81 532 l 475 532 l 475 431 l 81 431 l 81 532 m 81 264 l 475 264 l 475 163 l 81 163 l 81 264 z "},"!":{"ha":357,"x_min":103,"x_max":254,"o":"m 103 142 l 254 142 l 254 0 l 103 0 l 103 142 m 103 660 l 103 1000 l 254 1000 l 254 660 l 232 239 l 125 239 l 103 660 z "},"¡":{"ha":338,"x_min":93,"x_max":244,"o":"m 93 694 l 244 694 l 244 553 l 93 553 l 93 694 m 115 456 l 222 456 l 244 42 l 244 -299 l 93 -299 l 93 42 l 115 456 z "},"?":{"ha":617,"x_min":32,"x_max":571,"o":"m 365 238 l 242 238 l 228 483 q 305 540 268 514 q 370 597 342 567 q 415 663 399 626 q 432 753 432 700 q 426 808 432 782 q 406 855 421 835 q 368 887 392 875 q 308 899 344 899 q 202 849 233 899 q 171 719 171 799 l 32 719 q 45 836 32 782 q 90 929 58 890 q 174 990 121 968 q 304 1013 226 1013 q 433 991 382 1013 q 515 934 485 969 q 558 851 546 899 q 571 753 571 804 q 553 638 571 685 q 508 555 536 590 q 447 492 481 519 q 379 436 413 465 l 365 238 m 228 142 l 379 142 l 379 0 l 228 0 l 228 142 z "},"¿":{"ha":606,"x_min":38,"x_max":576,"o":"m 243 457 l 367 457 l 381 217 q 301 158 339 185 q 236 101 264 131 q 192 35 208 72 q 176 -54 176 -1 q 182 -109 176 -83 q 202 -155 188 -135 q 241 -187 217 -175 q 301 -199 265 -199 q 406 -149 375 -199 q 438 1 438 -99 l 576 1 q 563 -130 576 -72 q 519 -228 550 -187 q 435 -291 488 -269 q 306 -312 383 -312 q 175 -291 226 -312 q 93 -234 124 -269 q 50 -151 63 -199 q 38 -53 38 -104 q 55 63 38 15 q 100 145 72 110 q 162 208 128 181 q 229 264 196 235 l 243 457 m 381 553 l 229 553 l 229 694 l 381 694 l 381 553 z "},"-":{"ha":592,"x_min":78,"x_max":514,"o":"m 78 399 l 514 399 l 514 297 l 78 297 l 78 399 z "},"–":{"ha":706,"x_min":78,"x_max":628,"o":"m 78 399 l 628 399 l 628 297 l 78 297 l 78 399 z "},"—":{"ha":1042,"x_min":78,"x_max":964,"o":"m 78 399 l 964 399 l 964 297 l 78 297 l 78 399 z "},"_":{"ha":569,"x_min":10,"x_max":560,"o":"m 10 0 l 560 0 l 560 -101 l 10 -101 l 10 0 z "},"(":{"ha":396,"x_min":54,"x_max":393,"o":"m 296 -299 q 113 -50 171 -210 q 54 347 54 110 q 113 747 54 585 q 296 1000 171 908 l 393 1000 q 296 868 333 939 q 237 716 258 797 q 208 542 215 635 q 200 349 200 450 q 208 155 200 246 q 237 -17 215 64 q 296 -169 258 -99 q 393 -299 333 -239 l 296 -299 z "},")":{"ha":396,"x_min":3,"x_max":342,"o":"m 3 -299 q 100 -169 63 -239 q 159 -18 138 -99 q 188 153 181 63 q 196 346 196 244 q 188 541 196 449 q 159 715 181 633 q 100 868 138 797 q 3 1000 63 939 l 100 1000 q 283 747 225 908 q 342 346 342 585 q 283 -49 342 111 q 100 -299 225 -210 l 3 -299 z "},"[":{"ha":440,"x_min":104,"x_max":413,"o":"m 104 1000 l 413 1000 l 413 903 l 236 903 l 236 -201 l 413 -201 l 413 -299 l 104 -299 l 104 1000 z "},"]":{"ha":440,"x_min":28,"x_max":336,"o":"m 336 -299 l 28 -299 l 28 -201 l 204 -201 l 204 903 l 28 903 l 28 1000 l 336 1000 l 336 -299 z "},"Æ":{"ha":1242,"x_min":-12,"x_max":1174,"o":"m 692 111 l 642 349 l 329 349 l 260 111 l 413 90 l 413 0 l -12 0 l -12 83 l 113 111 l 375 911 l 264 924 l 264 1000 l 1164 1000 l 1164 694 l 1054 694 l 1036 896 l 656 896 l 726 564 l 1035 564 l 1035 449 l 756 449 l 832 104 l 1044 104 l 1064 326 l 1174 326 l 1174 0 l 549 0 l 549 83 l 692 111 m 363 464 l 610 464 l 519 896 l 507 896 l 363 464 z "},"Œ":{"ha":1293,"x_min":63,"x_max":1221,"o":"m 683 69 q 587 8 643 31 q 454 -15 531 -15 q 256 26 332 -15 q 136 137 179 67 q 78 301 93 207 q 63 501 63 394 q 78 701 63 607 q 135 865 93 794 q 254 975 178 935 q 453 1015 331 1015 q 587 992 531 1015 q 683 929 643 968 l 683 1000 l 1221 1000 l 1221 694 l 1111 694 l 1093 896 l 821 896 l 821 564 l 1082 564 l 1082 449 l 821 449 l 821 104 l 1092 104 l 1111 326 l 1221 326 l 1221 0 l 683 0 l 683 69 m 446 85 q 575 117 529 85 q 644 206 621 150 q 672 337 667 263 q 676 496 676 411 q 672 656 676 581 q 644 790 667 732 q 574 881 621 847 q 444 915 528 915 q 315 883 363 915 q 244 794 268 850 q 213 662 219 738 q 207 499 207 586 q 213 335 207 411 q 244 204 219 260 q 316 117 268 149 q 446 85 364 85 z "},"æ":{"ha":1047,"x_min":46,"x_max":996,"o":"m 739 -15 q 581 15 639 -15 q 492 106 522 46 q 408 19 461 54 q 271 -15 356 -15 q 191 -6 231 -15 q 119 27 151 4 q 66 88 86 50 q 46 185 46 126 q 108 335 46 281 q 306 396 171 389 l 450 403 l 450 467 q 426 569 450 526 q 338 611 403 611 q 276 599 301 611 q 235 565 251 586 q 212 519 219 544 q 204 468 204 493 l 86 468 l 86 694 l 176 694 l 204 607 l 210 607 q 284 684 236 660 q 389 708 332 708 q 476 692 438 708 q 539 649 514 676 q 622 692 572 676 q 743 708 672 708 q 878 680 828 708 q 955 599 929 651 q 988 475 981 547 q 996 315 996 403 l 592 315 q 597 210 592 256 q 617 135 601 165 q 660 88 632 104 q 738 72 689 72 q 805 84 779 72 q 844 115 831 96 q 863 158 858 133 q 868 206 868 182 l 989 206 q 977 121 989 161 q 938 51 965 81 q 862 3 910 21 q 739 -15 814 -15 m 308 72 q 377 89 350 72 q 420 132 404 106 q 443 192 436 158 q 450 260 450 226 l 450 318 l 326 310 q 212 268 243 303 q 181 189 181 233 q 192 135 181 157 q 223 99 204 113 q 265 78 242 85 q 308 72 288 72 m 738 619 q 669 604 696 619 q 625 561 642 589 q 601 494 608 533 q 592 406 593 454 l 863 406 q 836 567 863 514 q 738 619 810 619 z "},"i":{"ha":397,"x_min":39,"x_max":379,"o":"m 42 83 l 143 111 l 143 592 l 39 619 l 39 694 l 275 694 l 275 111 l 379 83 l 379 0 l 42 0 l 42 83 m 204 832 q 140 857 165 832 q 115 921 115 882 q 140 984 115 960 q 204 1008 165 1008 q 268 984 243 1008 q 293 921 293 960 q 268 857 293 882 q 204 832 243 832 z "},"j":{"ha":339,"x_min":-124,"x_max":275,"o":"m 254 -21 q 208 -237 254 -161 q 43 -312 163 -312 q -44 -301 -3 -312 q -124 -261 -86 -289 l -90 -185 q -34 -201 -65 -196 q 24 -207 -3 -207 q 69 -199 50 -207 q 99 -171 88 -192 q 117 -114 111 -150 q 122 -21 122 -78 l 122 583 l 18 611 l 18 694 l 254 694 l 254 -21 m 186 832 q 122 857 147 832 q 97 921 97 882 q 122 984 97 960 q 186 1008 147 1008 q 250 984 225 1008 q 275 921 275 960 q 250 857 275 882 q 186 832 225 832 z "},"œ":{"ha":1093,"x_min":57,"x_max":1040,"o":"m 344 -15 q 194 13 251 -15 q 107 91 138 42 q 67 206 76 140 q 57 346 57 272 q 67 488 57 421 q 107 603 76 554 q 194 680 138 651 q 344 708 251 708 q 480 686 426 708 q 565 625 533 664 q 651 686 597 664 q 790 708 706 708 q 924 680 875 708 q 999 599 974 651 q 1033 475 1025 547 q 1040 315 1040 403 l 635 315 q 642 209 636 256 q 663 131 647 163 q 708 82 679 99 q 785 65 738 65 q 851 78 826 65 q 889 112 875 92 q 908 157 903 132 q 913 206 913 182 l 1033 206 q 1022 121 1033 161 q 983 51 1011 81 q 907 3 954 21 q 786 -15 860 -15 q 652 6 706 -15 q 567 67 599 26 q 481 6 535 28 q 344 -15 428 -15 m 347 69 q 425 92 397 69 q 467 151 453 114 q 485 237 482 188 q 489 340 489 286 q 485 447 489 396 q 467 536 482 497 q 425 598 453 575 q 347 621 397 621 q 270 599 299 621 q 227 539 242 576 q 208 450 213 501 q 204 340 204 399 q 208 237 204 286 q 227 151 213 188 q 270 92 242 114 q 347 69 299 69 m 785 626 q 717 610 744 626 q 672 565 689 594 q 646 496 654 536 q 635 406 638 456 l 914 406 q 885 570 914 514 q 785 626 856 626 z "},"{":{"ha":453,"x_min":19,"x_max":425,"o":"m 374 -299 q 253 -279 300 -299 q 179 -221 207 -260 q 141 -125 151 -182 q 131 7 131 -68 l 131 104 q 106 267 131 221 q 19 313 82 313 l 19 410 q 106 457 82 410 q 131 618 131 504 l 131 694 q 141 826 131 769 q 179 922 151 883 q 253 981 207 961 q 374 1000 300 1000 l 425 1000 l 425 903 l 374 903 q 287 857 311 903 q 263 694 263 811 l 263 618 q 258 533 263 572 q 242 463 254 494 q 206 405 229 431 q 146 361 183 379 q 206 317 183 342 q 242 259 229 292 q 258 188 254 226 q 263 104 263 150 l 263 7 q 287 -156 263 -110 q 374 -201 311 -201 l 425 -201 l 425 -299 l 374 -299 z "},"}":{"ha":453,"x_min":28,"x_max":433,"o":"m 28 -299 l 28 -201 l 79 -201 q 166 -156 142 -201 q 190 7 190 -110 l 190 104 q 194 188 190 150 q 211 259 199 226 q 247 317 224 292 q 307 361 269 342 q 247 405 269 379 q 211 463 224 431 q 194 533 199 494 q 190 618 190 572 l 190 694 q 166 857 190 811 q 79 903 142 903 l 28 903 l 28 1000 l 79 1000 q 199 981 151 1000 q 274 922 246 961 q 312 826 301 883 q 322 694 322 769 l 322 618 q 347 457 322 504 q 433 410 371 410 l 433 313 q 347 267 371 313 q 322 104 322 221 l 322 7 q 312 -125 322 -68 q 274 -221 301 -182 q 199 -279 246 -260 q 79 -299 151 -299 l 28 -299 z "},"|":{"ha":326,"x_min":104,"x_max":222,"o":"m 104 -299 l 104 1049 l 222 1049 l 222 -299 l 104 -299 z "},"¦":{"ha":329,"x_min":106,"x_max":224,"o":"m 106 479 l 106 1049 l 224 1049 l 224 479 l 106 479 m 106 -299 l 106 271 l 224 271 l 224 -299 l 106 -299 z "},"·":{"ha":307,"x_min":78,"x_max":229,"o":"m 78 418 l 229 418 l 229 276 l 78 276 l 78 418 z "},"∙":{"ha":307,"x_min":78,"x_max":229,"o":"m 78 418 l 229 418 l 229 276 l 78 276 l 78 418 z "},"¬":{"ha":600,"x_min":79,"x_max":515,"o":"m 79 399 l 515 399 l 515 122 l 397 122 l 397 297 l 79 297 l 79 399 z "},"­":{"ha":592,"x_min":78,"x_max":514,"o":"m 78 399 l 514 399 l 514 297 l 78 297 l 78 399 z "},"‹":{"ha":413,"x_min":43,"x_max":368,"o":"m 43 347 l 224 644 l 368 644 l 175 347 l 368 61 l 224 61 l 43 347 z "},"›":{"ha":413,"x_min":44,"x_max":369,"o":"m 189 61 l 44 61 l 238 347 l 44 644 l 189 644 l 369 347 l 189 61 z "},"«":{"ha":685,"x_min":43,"x_max":640,"o":"m 43 347 l 224 644 l 368 644 l 175 347 l 368 61 l 224 61 l 43 347 m 315 347 l 496 644 l 640 644 l 447 347 l 640 61 l 496 61 l 315 347 z "},"»":{"ha":685,"x_min":44,"x_max":642,"o":"m 461 61 l 317 61 l 510 347 l 317 644 l 461 644 l 642 347 l 461 61 m 189 61 l 44 61 l 238 347 l 44 644 l 189 644 l 369 347 l 189 61 z "},"#":{"ha":779,"x_min":35,"x_max":744,"o":"m 71 694 l 224 694 l 276 1049 l 374 1049 l 321 694 l 508 694 l 561 1049 l 658 1049 l 606 694 l 744 694 l 744 607 l 593 607 l 568 435 l 708 435 l 708 347 l 556 347 l 506 0 l 408 0 l 458 347 l 271 347 l 221 0 l 124 0 l 174 347 l 35 347 l 35 435 l 186 435 l 211 607 l 71 607 l 71 694 m 283 435 l 471 435 l 496 607 l 308 607 l 283 435 z "},"*":{"ha":410,"x_min":47,"x_max":363,"o":"m 97 968 l 182 879 l 154 1000 l 256 1000 l 228 879 l 313 968 l 363 881 l 236 847 l 363 815 l 311 728 l 228 815 l 256 694 l 154 694 l 182 815 l 99 728 l 47 815 l 172 847 l 47 881 l 97 968 z "},"•":{"ha":453,"x_min":93,"x_max":360,"o":"m 226 206 q 131 245 168 206 q 93 347 93 285 q 131 450 93 411 q 226 489 168 489 q 322 450 285 489 q 360 347 360 411 q 322 245 360 285 q 226 206 285 206 z "},"§":{"ha":604,"x_min":69,"x_max":535,"o":"m 78 831 q 92 917 78 882 q 133 974 107 951 q 194 1006 158 996 q 269 1015 229 1015 q 309 1013 288 1015 q 351 999 331 1010 q 385 968 371 989 q 404 913 400 947 l 410 913 l 438 1000 l 515 1000 l 515 783 l 397 783 q 392 832 397 808 q 376 874 388 856 q 347 905 365 893 q 299 917 328 917 q 230 888 250 917 q 210 825 210 858 q 233 765 210 786 q 291 728 256 743 q 367 699 326 713 q 442 660 407 685 q 501 597 478 636 q 524 490 524 557 q 506 394 524 431 q 464 332 488 357 q 515 272 496 308 q 535 181 535 236 q 517 91 535 128 q 469 31 499 54 q 402 -3 440 8 q 324 -14 364 -14 q 278 -10 301 -14 q 234 6 254 -6 q 199 37 214 17 q 181 89 185 57 l 175 89 l 147 1 l 69 1 l 69 218 l 188 218 q 193 169 188 193 q 211 126 199 144 q 245 96 224 107 q 300 85 267 85 q 379 113 356 85 q 403 178 403 142 q 380 237 403 215 q 322 273 357 258 q 246 302 286 288 q 170 341 206 317 q 112 405 135 365 q 89 511 89 444 q 106 606 89 569 q 147 668 124 643 q 97 731 117 693 q 78 831 78 769 m 406 458 q 390 520 406 496 q 349 563 374 544 q 292 593 324 581 q 228 621 260 606 q 213 587 218 606 q 207 544 207 568 q 222 482 207 507 q 263 439 238 457 q 319 407 288 421 q 383 379 351 393 q 399 415 393 394 q 406 458 406 435 z "},"†":{"ha":494,"x_min":29,"x_max":465,"o":"m 29 744 l 188 744 l 188 1049 l 306 1049 l 306 744 l 465 744 l 465 643 l 306 643 l 306 -299 l 188 -299 l 188 643 l 29 643 l 29 744 z "},"‡":{"ha":486,"x_min":46,"x_max":440,"o":"m 46 743 l 183 743 l 183 1049 l 301 1049 l 301 743 l 440 743 l 440 642 l 301 642 l 301 108 l 440 108 l 440 7 l 301 7 l 301 -299 l 183 -299 l 183 7 l 46 7 l 46 108 l 183 108 l 183 642 l 46 642 l 46 743 z "},"¶":{"ha":838,"x_min":31,"x_max":804,"o":"m 675 -299 l 585 -299 l 585 889 l 493 889 l 493 -299 l 257 -299 l 257 -215 l 403 -193 l 403 403 l 256 403 q 149 431 192 403 q 79 504 106 460 q 42 603 53 549 q 31 708 31 657 q 94 928 31 856 q 271 1000 158 1000 l 804 1000 l 804 917 l 675 889 l 675 -299 z "},"´":{"ha":275,"x_min":28,"x_max":247,"o":"m 104 1000 l 247 1000 l 113 785 l 28 785 l 104 1000 z "},"`":{"ha":275,"x_min":28,"x_max":247,"o":"m 247 785 l 163 785 l 28 1000 l 171 1000 l 247 785 z "},"˝":{"ha":501,"x_min":28,"x_max":474,"o":"m 104 1000 l 247 1000 l 113 785 l 28 785 l 104 1000 m 331 1000 l 474 1000 l 339 785 l 254 785 l 331 1000 z "},"˜":{"ha":600,"x_min":42,"x_max":558,"o":"m 558 963 q 549 891 558 925 q 519 832 539 857 q 470 792 499 807 q 404 778 442 778 q 335 792 364 778 q 283 824 307 807 q 240 855 260 840 q 197 869 219 869 q 174 865 186 869 q 151 852 163 861 q 133 828 140 843 q 126 792 126 813 l 42 792 q 50 855 42 824 q 76 911 58 886 q 123 951 94 936 q 192 967 151 967 q 260 952 233 967 q 309 921 288 938 q 350 890 331 904 q 396 875 369 875 q 451 899 428 875 q 475 963 475 922 l 558 963 z "},"~":{"ha":733,"x_min":74,"x_max":660,"o":"m 660 438 q 650 365 660 399 q 621 307 640 332 q 570 267 601 282 q 497 253 539 253 q 415 267 453 253 q 346 299 378 282 q 286 330 314 315 q 233 344 258 344 q 183 327 208 344 q 158 267 158 310 l 74 267 q 81 330 74 299 q 108 386 89 361 q 156 426 126 411 q 232 442 186 442 q 314 427 278 442 q 380 396 350 413 q 437 365 410 379 q 493 350 464 350 q 553 374 529 350 q 576 438 576 397 l 660 438 z "},"˘":{"ha":550,"x_min":69,"x_max":481,"o":"m 481 965 q 473 895 481 928 q 443 838 465 863 q 380 799 421 813 q 274 785 339 785 q 169 799 208 785 q 107 838 129 813 q 77 895 85 863 q 69 965 69 928 l 178 965 q 200 895 178 928 q 276 863 222 863 q 352 895 331 863 q 374 965 374 928 l 481 965 z "},"˚":{"ha":317,"x_min":42,"x_max":275,"o":"m 158 776 q 74 810 107 776 q 42 893 42 843 q 74 976 42 944 q 158 1008 107 1008 q 242 976 210 1008 q 275 893 275 944 q 242 810 275 843 q 158 776 210 776 m 158 843 q 193 857 179 843 q 207 892 207 871 q 193 927 207 914 q 158 940 179 940 q 124 927 138 940 q 110 892 110 914 q 124 857 110 871 q 158 843 138 843 z "},"¯":{"ha":533,"x_min":76,"x_max":457,"o":"m 76 942 l 457 942 l 457 854 l 76 854 l 76 942 z "},"ˆ":{"ha":533,"x_min":42,"x_max":492,"o":"m 492 785 l 383 785 l 271 899 l 150 785 l 42 785 l 194 986 l 353 986 l 492 785 z "},"^":{"ha":586,"x_min":54,"x_max":532,"o":"m 532 250 l 424 250 l 297 447 l 163 250 l 54 250 l 221 535 l 379 535 l 532 250 z "},"ˇ":{"ha":533,"x_min":28,"x_max":506,"o":"m 353 785 l 194 785 l 28 986 l 136 986 l 271 872 l 397 986 l 506 986 l 353 785 z "},"ʼ":{"ha":263,"x_min":63,"x_max":186,"o":"m 63 1000 l 186 1000 l 165 694 l 83 694 l 63 1000 z "},"¸":{"ha":360,"x_min":42,"x_max":318,"o":"m 56 -244 q 163 -224 131 -244 q 196 -175 196 -203 q 153 -140 196 -140 q 111 -154 129 -140 l 51 -154 l 133 40 l 204 40 l 156 -72 q 189 -67 171 -68 q 217 -65 207 -65 q 290 -87 263 -65 q 318 -158 318 -110 q 253 -262 318 -226 q 42 -299 189 -299 l 56 -244 z "},"˛":{"ha":311,"x_min":42,"x_max":269,"o":"m 226 13 q 165 -75 182 -32 q 147 -142 147 -118 q 161 -180 147 -164 q 207 -196 175 -196 q 250 -189 232 -196 q 269 -181 260 -185 l 269 -276 q 240 -285 256 -281 q 178 -292 213 -292 q 126 -285 151 -292 q 83 -262 101 -278 q 53 -222 64 -246 q 42 -164 42 -197 q 49 -115 42 -137 q 69 -73 56 -93 q 101 -32 82 -53 q 143 13 119 -11 l 226 13 z "},"":{"ha":221,"x_min":42,"x_max":179,"o":"m 42 -60 l 179 -60 l 179 -186 l 149 -299 l 69 -299 l 86 -186 l 42 -186 l 42 -60 z "},"⁄":{"ha":111,"x_min":-224,"x_max":335,"o":"m -224 0 l 249 1000 l 335 1000 l -137 0 l -224 0 z "},"∕":{"ha":533,"x_min":-12,"x_max":546,"o":"m -12 0 l 460 1000 l 546 1000 l 74 0 l -12 0 z "},"/":{"ha":438,"x_min":33,"x_max":404,"o":"m 33 0 l 283 1000 l 404 1000 l 154 0 l 33 0 z "},"\\":{"ha":438,"x_min":33,"x_max":404,"o":"m 283 0 l 33 1000 l 154 1000 l 404 0 l 283 0 z "},"\"":{"ha":439,"x_min":61,"x_max":378,"o":"m 61 1000 l 178 1000 l 157 694 l 82 694 l 61 1000 m 261 1000 l 378 1000 l 357 694 l 282 694 l 261 1000 z "},"'":{"ha":239,"x_min":61,"x_max":178,"o":"m 61 1000 l 178 1000 l 157 694 l 82 694 l 61 1000 z "},"‘":{"ha":265,"x_min":64,"x_max":201,"o":"m 143 835 l 201 835 l 201 694 l 64 694 l 64 835 l 122 1000 l 174 1000 l 143 835 z "},"’":{"ha":253,"x_min":60,"x_max":197,"o":"m 60 1000 l 197 1000 l 197 860 l 139 694 l 88 694 l 118 860 l 60 860 l 60 1000 z "},"‚":{"ha":285,"x_min":74,"x_max":211,"o":"m 74 140 l 211 140 l 211 0 l 153 -165 l 101 -165 l 132 0 l 74 0 l 74 140 z "},"“":{"ha":479,"x_min":64,"x_max":415,"o":"m 143 835 l 201 835 l 201 694 l 64 694 l 64 835 l 122 1000 l 174 1000 l 143 835 m 357 835 l 415 835 l 415 694 l 278 694 l 278 835 l 336 1000 l 388 1000 l 357 835 z "},"”":{"ha":467,"x_min":60,"x_max":411,"o":"m 274 1000 l 411 1000 l 411 860 l 353 694 l 301 694 l 332 860 l 274 860 l 274 1000 m 60 1000 l 197 1000 l 197 860 l 139 694 l 88 694 l 118 860 l 60 860 l 60 1000 z "},"„":{"ha":499,"x_min":74,"x_max":425,"o":"m 288 140 l 425 140 l 425 0 l 367 -165 l 315 -165 l 346 0 l 288 0 l 288 140 m 74 140 l 211 140 l 211 0 l 153 -165 l 101 -165 l 132 0 l 74 0 l 74 140 z "},"€":{"ha":864,"x_min":44,"x_max":807,"o":"m 44 669 l 144 669 q 174 812 153 749 q 236 920 196 875 q 338 990 276 965 q 489 1014 399 1014 q 630 992 569 1014 q 729 931 690 971 q 788 837 768 892 q 807 715 807 782 l 668 715 q 628 860 668 807 q 494 914 588 914 q 401 898 439 914 q 340 851 364 882 q 304 774 317 819 q 286 669 292 729 l 481 669 l 481 568 l 281 568 l 281 429 l 481 429 l 481 328 l 286 328 q 304 223 292 268 q 341 147 317 178 q 403 101 365 117 q 494 85 440 85 q 627 139 586 85 q 668 283 668 193 l 807 283 q 788 162 807 217 q 730 67 769 107 q 631 6 690 28 q 489 -15 571 -15 q 338 9 400 -15 q 236 78 276 33 q 174 185 196 122 q 144 328 153 249 l 44 328 l 44 429 l 136 429 l 136 568 l 44 568 l 44 669 z "},"$":{"ha":744,"x_min":58,"x_max":699,"o":"m 338 -156 l 338 -8 q 247 40 274 6 q 207 114 221 75 l 199 114 l 171 6 l 60 6 l 60 308 l 199 308 q 237 164 199 213 q 338 103 275 115 l 338 457 q 238 497 288 475 q 148 552 188 519 q 83 633 108 585 q 58 756 58 682 q 79 869 58 821 q 138 951 100 918 q 226 999 175 983 q 338 1015 276 1015 l 338 1174 l 407 1174 l 407 1004 q 481 959 450 990 q 521 871 511 928 l 528 871 l 556 1000 l 665 1000 l 665 660 l 528 660 q 521 731 528 694 q 499 798 514 767 q 462 853 485 829 q 407 890 439 878 l 407 576 q 510 534 458 557 q 604 476 563 511 q 672 388 646 440 q 699 260 699 336 q 622 58 699 131 q 407 -15 546 -15 l 407 -156 l 338 -156 m 560 250 q 548 314 560 286 q 515 363 536 342 q 467 399 494 383 q 407 429 439 415 l 407 99 q 525 147 490 104 q 560 250 560 190 m 197 761 q 237 664 197 699 q 338 603 276 629 l 338 901 q 238 861 279 899 q 197 761 197 824 z "},"¥":{"ha":983,"x_min":26,"x_max":957,"o":"m 253 236 l 424 236 l 424 325 l 253 325 l 253 426 l 381 426 l 143 889 l 26 917 l 26 1000 l 417 1000 l 417 917 l 286 889 l 492 454 l 697 889 l 568 917 l 568 1000 l 957 1000 l 957 917 l 840 889 l 601 426 l 731 426 l 731 325 l 561 325 l 561 236 l 731 236 l 731 135 l 561 135 l 561 0 l 424 0 l 424 135 l 253 135 l 253 236 z "},"¢":{"ha":644,"x_min":57,"x_max":582,"o":"m 296 -156 l 296 -11 q 179 24 225 -6 q 106 99 133 53 q 68 209 79 146 q 57 347 57 272 q 70 488 57 424 q 113 600 83 553 q 187 675 142 647 q 296 707 232 703 l 296 861 l 365 861 l 365 704 q 435 673 407 696 q 472 607 463 650 l 478 607 l 506 694 l 582 694 l 582 468 l 464 468 q 459 514 464 490 q 442 557 454 538 q 412 590 431 576 q 365 608 393 604 l 365 72 q 410 95 392 78 q 439 137 428 113 q 455 191 450 161 q 460 253 460 221 l 581 253 q 570 153 581 200 q 535 72 560 107 q 468 14 510 36 q 365 -12 426 -8 l 365 -156 l 296 -156 m 204 347 q 206 257 204 301 q 217 176 208 213 q 245 113 226 139 q 296 75 264 86 l 296 606 q 245 571 264 596 q 217 512 226 546 q 206 435 208 478 q 204 347 204 393 z "},"£":{"ha":729,"x_min":46,"x_max":682,"o":"m 46 504 l 175 532 l 175 689 q 186 824 175 764 q 227 924 197 883 q 308 987 257 965 q 438 1008 358 1008 q 558 985 511 1008 q 633 924 606 963 q 672 836 661 886 q 682 732 682 786 l 561 732 q 535 861 561 817 q 444 906 508 906 q 341 858 369 906 q 313 703 313 810 l 313 532 l 496 532 l 496 431 l 313 431 l 313 104 l 515 104 l 533 271 l 643 271 l 643 0 l 46 0 l 46 83 l 175 111 l 175 431 l 46 431 l 46 504 z "},"à":{"ha":694,"x_min":46,"x_max":686,"o":"m 263 -14 q 190 -5 228 -14 q 119 27 151 4 q 67 90 88 50 q 46 190 46 129 q 60 272 46 235 q 104 335 74 308 q 184 377 135 361 q 306 397 233 393 l 450 404 l 450 467 q 426 569 450 526 q 338 611 403 611 q 276 599 301 611 q 235 565 251 586 q 212 519 219 544 q 204 468 204 493 l 86 468 l 86 694 l 176 694 l 204 607 l 210 607 q 285 685 238 661 q 394 708 332 708 q 533 664 483 708 q 582 521 582 619 l 582 111 l 686 83 l 686 0 l 478 0 l 450 100 q 417 42 439 64 q 368 7 394 19 q 313 -10 342 -6 q 263 -14 285 -14 m 300 83 q 371 101 342 83 q 417 145 400 118 q 442 206 435 172 q 450 274 450 240 l 450 332 l 326 325 q 254 311 282 322 q 210 283 226 300 q 187 244 193 265 q 181 199 181 222 q 192 142 181 164 q 219 106 203 119 q 258 88 236 93 q 300 83 279 83 m 399 785 l 314 785 l 179 1000 l 322 1000 l 399 785 z "},"á":{"ha":694,"x_min":46,"x_max":686,"o":"m 263 -14 q 190 -5 228 -14 q 119 27 151 4 q 67 90 88 50 q 46 190 46 129 q 60 272 46 235 q 104 335 74 308 q 184 377 135 361 q 306 397 233 393 l 450 404 l 450 467 q 426 569 450 526 q 338 611 403 611 q 276 599 301 611 q 235 565 251 586 q 212 519 219 544 q 204 468 204 493 l 86 468 l 86 694 l 176 694 l 204 607 l 210 607 q 285 685 238 661 q 394 708 332 708 q 533 664 483 708 q 582 521 582 619 l 582 111 l 686 83 l 686 0 l 478 0 l 450 100 q 417 42 439 64 q 368 7 394 19 q 313 -10 342 -6 q 263 -14 285 -14 m 300 83 q 371 101 342 83 q 417 145 400 118 q 442 206 435 172 q 450 274 450 240 l 450 332 l 326 325 q 254 311 282 322 q 210 283 226 300 q 187 244 193 265 q 181 199 181 222 q 192 142 181 164 q 219 106 203 119 q 258 88 236 93 q 300 83 279 83 m 382 1000 l 525 1000 l 390 785 l 306 785 l 382 1000 z "},"â":{"ha":694,"x_min":46,"x_max":686,"o":"m 263 -14 q 190 -5 228 -14 q 119 27 151 4 q 67 90 88 50 q 46 190 46 129 q 60 272 46 235 q 104 335 74 308 q 184 377 135 361 q 306 397 233 393 l 450 404 l 450 467 q 426 569 450 526 q 338 611 403 611 q 276 599 301 611 q 235 565 251 586 q 212 519 219 544 q 204 468 204 493 l 86 468 l 86 694 l 176 694 l 204 607 l 210 607 q 285 685 238 661 q 394 708 332 708 q 533 664 483 708 q 582 521 582 619 l 582 111 l 686 83 l 686 0 l 478 0 l 450 100 q 417 42 439 64 q 368 7 394 19 q 313 -10 342 -6 q 263 -14 285 -14 m 300 83 q 371 101 342 83 q 417 145 400 118 q 442 206 435 172 q 450 274 450 240 l 450 332 l 326 325 q 254 311 282 322 q 210 283 226 300 q 187 244 193 265 q 181 199 181 222 q 192 142 181 164 q 219 106 203 119 q 258 88 236 93 q 300 83 279 83 m 563 785 l 454 785 l 342 899 l 221 785 l 113 785 l 265 986 l 424 986 l 563 785 z "},"ã":{"ha":694,"x_min":46,"x_max":686,"o":"m 263 -14 q 190 -5 228 -14 q 119 27 151 4 q 67 90 88 50 q 46 190 46 129 q 60 272 46 235 q 104 335 74 308 q 184 377 135 361 q 306 397 233 393 l 450 404 l 450 467 q 426 569 450 526 q 338 611 403 611 q 276 599 301 611 q 235 565 251 586 q 212 519 219 544 q 204 468 204 493 l 86 468 l 86 694 l 176 694 l 204 607 l 210 607 q 285 685 238 661 q 394 708 332 708 q 533 664 483 708 q 582 521 582 619 l 582 111 l 686 83 l 686 0 l 478 0 l 450 100 q 417 42 439 64 q 368 7 394 19 q 313 -10 342 -6 q 263 -14 285 -14 m 300 83 q 371 101 342 83 q 417 145 400 118 q 442 206 435 172 q 450 274 450 240 l 450 332 l 326 325 q 254 311 282 322 q 210 283 226 300 q 187 244 193 265 q 181 199 181 222 q 192 142 181 164 q 219 106 203 119 q 258 88 236 93 q 300 83 279 83 m 603 963 q 593 891 603 925 q 563 832 583 857 q 515 792 543 807 q 449 778 486 778 q 380 792 408 778 q 328 824 351 807 q 284 855 304 840 q 242 869 264 869 q 219 865 231 869 q 196 852 207 861 q 178 828 185 843 q 171 792 171 813 l 86 792 q 94 855 86 824 q 121 911 103 886 q 167 951 139 936 q 236 967 196 967 q 305 952 278 967 q 353 921 332 938 q 394 890 375 904 q 440 875 414 875 q 496 899 472 875 q 519 963 519 922 l 603 963 z "},"ä":{"ha":694,"x_min":46,"x_max":686,"o":"m 263 -14 q 190 -5 228 -14 q 119 27 151 4 q 67 90 88 50 q 46 190 46 129 q 60 272 46 235 q 104 335 74 308 q 184 377 135 361 q 306 397 233 393 l 450 404 l 450 467 q 426 569 450 526 q 338 611 403 611 q 276 599 301 611 q 235 565 251 586 q 212 519 219 544 q 204 468 204 493 l 86 468 l 86 694 l 176 694 l 204 607 l 210 607 q 285 685 238 661 q 394 708 332 708 q 533 664 483 708 q 582 521 582 619 l 582 111 l 686 83 l 686 0 l 478 0 l 450 100 q 417 42 439 64 q 368 7 394 19 q 313 -10 342 -6 q 263 -14 285 -14 m 300 83 q 371 101 342 83 q 417 145 400 118 q 442 206 435 172 q 450 274 450 240 l 450 332 l 326 325 q 254 311 282 322 q 210 283 226 300 q 187 244 193 265 q 181 199 181 222 q 192 142 181 164 q 219 106 203 119 q 258 88 236 93 q 300 83 279 83 m 189 844 q 130 867 153 844 q 107 926 107 890 q 130 985 107 963 q 189 1008 153 1008 q 249 985 225 1008 q 272 926 272 963 q 249 867 272 890 q 189 844 225 844 m 475 844 q 416 867 439 844 q 393 926 393 890 q 416 985 393 963 q 475 1008 439 1008 q 535 985 511 1008 q 558 926 558 963 q 535 867 558 890 q 475 844 511 844 z "},"å":{"ha":694,"x_min":46,"x_max":686,"o":"m 263 -14 q 190 -5 228 -14 q 119 27 151 4 q 67 90 88 50 q 46 190 46 129 q 60 272 46 235 q 104 335 74 308 q 184 377 135 361 q 306 397 233 393 l 450 404 l 450 467 q 426 569 450 526 q 338 611 403 611 q 276 599 301 611 q 235 565 251 586 q 212 519 219 544 q 204 468 204 493 l 86 468 l 86 694 l 176 694 l 204 607 l 210 607 q 285 685 238 661 q 394 708 332 708 q 533 664 483 708 q 582 521 582 619 l 582 111 l 686 83 l 686 0 l 478 0 l 450 100 q 417 42 439 64 q 368 7 394 19 q 313 -10 342 -6 q 263 -14 285 -14 m 300 83 q 371 101 342 83 q 417 145 400 118 q 442 206 435 172 q 450 274 450 240 l 450 332 l 326 325 q 254 311 282 322 q 210 283 226 300 q 187 244 193 265 q 181 199 181 222 q 192 142 181 164 q 219 106 203 119 q 258 88 236 93 q 300 83 279 83 m 354 776 q 270 810 303 776 q 238 893 238 843 q 270 976 238 944 q 354 1008 303 1008 q 438 976 406 1008 q 471 893 471 944 q 438 810 471 843 q 354 776 406 776 m 354 843 q 389 857 375 843 q 403 892 403 871 q 389 927 403 914 q 354 940 375 940 q 319 927 333 940 q 306 892 306 914 q 319 857 306 871 q 354 843 333 843 z "},"ă":{"ha":694,"x_min":46,"x_max":686,"o":"m 263 -14 q 190 -5 228 -14 q 119 27 151 4 q 67 90 88 50 q 46 190 46 129 q 60 272 46 235 q 104 335 74 308 q 184 377 135 361 q 306 397 233 393 l 450 404 l 450 467 q 426 569 450 526 q 338 611 403 611 q 276 599 301 611 q 235 565 251 586 q 212 519 219 544 q 204 468 204 493 l 86 468 l 86 694 l 176 694 l 204 607 l 210 607 q 285 685 238 661 q 394 708 332 708 q 533 664 483 708 q 582 521 582 619 l 582 111 l 686 83 l 686 0 l 478 0 l 450 100 q 417 42 439 64 q 368 7 394 19 q 313 -10 342 -6 q 263 -14 285 -14 m 300 83 q 371 101 342 83 q 417 145 400 118 q 442 206 435 172 q 450 274 450 240 l 450 332 l 326 325 q 254 311 282 322 q 210 283 226 300 q 187 244 193 265 q 181 199 181 222 q 192 142 181 164 q 219 106 203 119 q 258 88 236 93 q 300 83 279 83 m 546 965 q 538 895 546 928 q 508 838 531 863 q 445 799 486 813 q 339 785 404 785 q 234 799 274 785 q 172 838 194 813 q 142 895 150 863 q 135 965 135 928 l 243 965 q 265 895 243 928 q 342 863 288 863 q 417 895 396 863 q 439 965 439 928 l 546 965 z "},"ą":{"ha":694,"x_min":46,"x_max":686,"o":"m 263 -14 q 190 -5 228 -14 q 119 27 151 4 q 67 90 88 50 q 46 190 46 129 q 60 272 46 235 q 104 335 74 308 q 184 377 135 361 q 306 397 233 393 l 450 404 l 450 467 q 426 569 450 526 q 338 611 403 611 q 276 599 301 611 q 235 565 251 586 q 212 519 219 544 q 204 468 204 493 l 86 468 l 86 694 l 176 694 l 204 607 l 210 607 q 285 685 238 661 q 394 708 332 708 q 533 664 483 708 q 582 521 582 619 l 582 111 l 686 83 l 686 0 l 561 0 q 509 -81 524 -42 q 494 -142 494 -119 q 508 -180 494 -164 q 554 -196 522 -196 q 597 -189 579 -196 q 617 -181 607 -185 l 617 -276 q 588 -285 603 -281 q 525 -292 560 -292 q 474 -285 499 -292 q 430 -262 449 -278 q 400 -222 411 -246 q 389 -164 389 -197 q 413 -78 389 -114 q 478 0 436 -43 l 450 100 q 417 42 439 64 q 368 7 394 19 q 313 -10 342 -6 q 263 -14 285 -14 m 300 83 q 371 101 342 83 q 417 145 400 118 q 442 206 435 172 q 450 274 450 240 l 450 332 l 326 325 q 254 311 282 322 q 210 283 226 300 q 187 244 193 265 q 181 199 181 222 q 192 142 181 164 q 219 106 203 119 q 258 88 236 93 q 300 83 279 83 z "},"ǻ":{"ha":694,"x_min":46,"x_max":686,"o":"m 263 -14 q 190 -5 228 -14 q 119 27 151 4 q 67 90 88 50 q 46 190 46 129 q 60 272 46 235 q 104 335 74 308 q 184 377 135 361 q 306 397 233 393 l 450 404 l 450 467 q 426 569 450 526 q 338 611 403 611 q 276 599 301 611 q 235 565 251 586 q 212 519 219 544 q 204 468 204 493 l 86 468 l 86 694 l 176 694 l 204 607 l 210 607 q 285 685 238 661 q 394 708 332 708 q 533 664 483 708 q 582 521 582 619 l 582 111 l 686 83 l 686 0 l 478 0 l 450 100 q 417 42 439 64 q 368 7 394 19 q 313 -10 342 -6 q 263 -14 285 -14 m 300 83 q 371 101 342 83 q 417 145 400 118 q 442 206 435 172 q 450 274 450 240 l 450 332 l 326 325 q 254 311 282 322 q 210 283 226 300 q 187 244 193 265 q 181 199 181 222 q 192 142 181 164 q 219 106 203 119 q 258 88 236 93 q 300 83 279 83 m 364 776 q 280 810 313 776 q 247 893 247 843 q 280 976 247 944 q 364 1008 313 1008 q 448 976 415 1008 q 481 893 481 944 q 448 810 481 843 q 364 776 415 776 m 364 843 q 399 857 385 843 q 413 892 413 871 q 399 927 413 914 q 364 940 385 940 q 329 927 343 940 q 315 892 315 914 q 329 857 315 871 q 364 843 343 843 m 393 1276 l 536 1276 l 401 1061 l 317 1061 l 393 1276 z "},"ā":{"ha":694,"x_min":46,"x_max":686,"o":"m 263 -14 q 190 -5 228 -14 q 119 27 151 4 q 67 90 88 50 q 46 190 46 129 q 60 272 46 235 q 104 335 74 308 q 184 377 135 361 q 306 397 233 393 l 450 404 l 450 467 q 426 569 450 526 q 338 611 403 611 q 276 599 301 611 q 235 565 251 586 q 212 519 219 544 q 204 468 204 493 l 86 468 l 86 694 l 176 694 l 204 607 l 210 607 q 285 685 238 661 q 394 708 332 708 q 533 664 483 708 q 582 521 582 619 l 582 111 l 686 83 l 686 0 l 478 0 l 450 100 q 417 42 439 64 q 368 7 394 19 q 313 -10 342 -6 q 263 -14 285 -14 m 300 83 q 371 101 342 83 q 417 145 400 118 q 442 206 435 172 q 450 274 450 240 l 450 332 l 326 325 q 254 311 282 322 q 210 283 226 300 q 187 244 193 265 q 181 199 181 222 q 192 142 181 164 q 219 106 203 119 q 258 88 236 93 q 300 83 279 83 m 139 942 l 519 942 l 519 854 l 139 854 l 139 942 z "},"ǽ":{"ha":1047,"x_min":46,"x_max":996,"o":"m 739 -15 q 581 15 639 -15 q 492 106 522 46 q 408 19 461 54 q 271 -15 356 -15 q 191 -6 231 -15 q 119 27 151 4 q 66 88 86 50 q 46 185 46 126 q 108 335 46 281 q 306 396 171 389 l 450 403 l 450 467 q 426 569 450 526 q 338 611 403 611 q 276 599 301 611 q 235 565 251 586 q 212 519 219 544 q 204 468 204 493 l 86 468 l 86 694 l 176 694 l 204 607 l 210 607 q 284 684 236 660 q 389 708 332 708 q 476 692 438 708 q 539 649 514 676 q 622 692 572 676 q 743 708 672 708 q 878 680 828 708 q 955 599 929 651 q 988 475 981 547 q 996 315 996 403 l 592 315 q 597 210 592 256 q 617 135 601 165 q 660 88 632 104 q 738 72 689 72 q 805 84 779 72 q 844 115 831 96 q 863 158 858 133 q 868 206 868 182 l 989 206 q 977 121 989 161 q 938 51 965 81 q 862 3 910 21 q 739 -15 814 -15 m 308 72 q 377 89 350 72 q 420 132 404 106 q 443 192 436 158 q 450 260 450 226 l 450 318 l 326 310 q 212 268 243 303 q 181 189 181 233 q 192 135 181 157 q 223 99 204 113 q 265 78 242 85 q 308 72 288 72 m 738 619 q 669 604 696 619 q 625 561 642 589 q 601 494 608 533 q 592 406 593 454 l 863 406 q 836 567 863 514 q 738 619 810 619 m 565 1000 l 708 1000 l 574 785 l 489 785 l 565 1000 z "},"ć":{"ha":642,"x_min":57,"x_max":582,"o":"m 336 -14 q 200 13 254 -14 q 114 87 146 39 q 69 201 82 135 q 57 347 57 267 q 72 494 57 428 q 117 608 86 560 q 197 682 149 656 q 315 708 246 708 q 419 685 376 708 q 472 607 461 663 l 478 607 l 506 694 l 582 694 l 582 468 l 464 468 q 458 519 464 493 q 438 565 453 544 q 399 599 424 586 q 339 611 375 611 q 264 590 290 611 q 224 531 238 568 q 207 447 210 494 q 204 347 204 399 q 207 245 204 294 q 224 156 210 196 q 264 93 238 117 q 339 69 290 69 q 396 85 372 69 q 433 126 419 100 q 453 185 447 151 q 460 253 460 218 l 581 253 q 569 149 581 197 q 528 64 557 100 q 453 7 500 28 q 336 -14 407 -14 m 335 1000 l 478 1000 l 343 785 l 258 785 l 335 1000 z "},"ç":{"ha":642,"x_min":57,"x_max":582,"o":"m 222 -244 q 330 -224 297 -244 q 363 -175 363 -203 q 319 -140 363 -140 q 278 -154 296 -140 l 218 -154 l 278 -10 q 170 28 213 -1 q 103 105 128 58 q 67 213 78 151 q 57 347 57 274 q 72 494 57 428 q 117 608 86 560 q 197 682 149 656 q 315 708 246 708 q 419 685 376 708 q 472 607 461 663 l 478 607 l 506 694 l 582 694 l 582 468 l 464 468 q 458 519 464 493 q 438 565 453 544 q 399 599 424 586 q 339 611 375 611 q 264 590 290 611 q 224 531 238 568 q 207 447 210 494 q 204 347 204 399 q 207 245 204 294 q 224 156 210 196 q 264 93 238 117 q 339 69 290 69 q 396 85 372 69 q 433 126 419 100 q 453 185 447 151 q 460 253 460 218 l 581 253 q 569 151 581 199 q 530 67 557 103 q 458 9 503 31 q 347 -14 414 -12 l 322 -72 q 356 -67 338 -68 q 383 -65 374 -65 q 457 -87 429 -65 q 485 -158 485 -110 q 420 -262 485 -226 q 208 -299 356 -299 l 222 -244 z "},"ĉ":{"ha":642,"x_min":57,"x_max":582,"o":"m 336 -14 q 200 13 254 -14 q 114 87 146 39 q 69 201 82 135 q 57 347 57 267 q 72 494 57 428 q 117 608 86 560 q 197 682 149 656 q 315 708 246 708 q 419 685 376 708 q 472 607 461 663 l 478 607 l 506 694 l 582 694 l 582 468 l 464 468 q 458 519 464 493 q 438 565 453 544 q 399 599 424 586 q 339 611 375 611 q 264 590 290 611 q 224 531 238 568 q 207 447 210 494 q 204 347 204 399 q 207 245 204 294 q 224 156 210 196 q 264 93 238 117 q 339 69 290 69 q 396 85 372 69 q 433 126 419 100 q 453 185 447 151 q 460 253 460 218 l 581 253 q 569 149 581 197 q 528 64 557 100 q 453 7 500 28 q 336 -14 407 -14 m 578 785 l 469 785 l 357 899 l 236 785 l 128 785 l 281 986 l 439 986 l 578 785 z "},"ċ":{"ha":642,"x_min":57,"x_max":582,"o":"m 336 -14 q 200 13 254 -14 q 114 87 146 39 q 69 201 82 135 q 57 347 57 267 q 72 494 57 428 q 117 608 86 560 q 197 682 149 656 q 315 708 246 708 q 419 685 376 708 q 472 607 461 663 l 478 607 l 506 694 l 582 694 l 582 468 l 464 468 q 458 519 464 493 q 438 565 453 544 q 399 599 424 586 q 339 611 375 611 q 264 590 290 611 q 224 531 238 568 q 207 447 210 494 q 204 347 204 399 q 207 245 204 294 q 224 156 210 196 q 264 93 238 117 q 339 69 290 69 q 396 85 372 69 q 433 126 419 100 q 453 185 447 151 q 460 253 460 218 l 581 253 q 569 149 581 197 q 528 64 557 100 q 453 7 500 28 q 336 -14 407 -14 m 326 832 q 263 857 288 832 q 238 921 238 882 q 263 984 238 960 q 326 1008 288 1008 q 390 984 365 1008 q 415 921 415 960 q 390 857 415 882 q 326 832 365 832 z "},"č":{"ha":642,"x_min":57,"x_max":582,"o":"m 336 -14 q 200 13 254 -14 q 114 87 146 39 q 69 201 82 135 q 57 347 57 267 q 72 494 57 428 q 117 608 86 560 q 197 682 149 656 q 315 708 246 708 q 419 685 376 708 q 472 607 461 663 l 478 607 l 506 694 l 582 694 l 582 468 l 464 468 q 458 519 464 493 q 438 565 453 544 q 399 599 424 586 q 339 611 375 611 q 264 590 290 611 q 224 531 238 568 q 207 447 210 494 q 204 347 204 399 q 207 245 204 294 q 224 156 210 196 q 264 93 238 117 q 339 69 290 69 q 396 85 372 69 q 433 126 419 100 q 453 185 447 151 q 460 253 460 218 l 581 253 q 569 149 581 197 q 528 64 557 100 q 453 7 500 28 q 336 -14 407 -14 m 399 785 l 240 785 l 74 986 l 182 986 l 317 872 l 443 986 l 551 986 l 399 785 z "},"ď":{"ha":739,"x_min":57,"x_max":853,"o":"m 485 938 l 365 965 l 365 1049 l 617 1049 l 617 111 l 721 83 l 721 0 l 513 0 l 485 100 q 419 17 465 47 q 296 -14 374 -14 q 181 15 226 -14 q 108 92 135 43 q 69 206 81 140 q 57 347 57 272 q 68 488 57 422 q 107 603 79 554 q 180 680 135 651 q 294 708 225 708 q 420 677 371 708 q 485 585 469 646 l 485 938 m 329 611 q 264 589 289 611 q 224 531 239 567 q 204 446 210 494 q 199 346 199 397 q 204 246 199 293 q 224 163 210 199 q 264 105 239 126 q 329 83 289 83 q 397 99 368 83 q 446 140 426 114 q 475 199 465 167 q 485 268 485 232 l 485 439 q 446 560 485 510 q 329 611 407 611 m 738 778 q 775 861 767 819 q 724 882 744 861 q 704 935 704 903 q 725 988 704 967 q 778 1008 746 1008 q 829 990 806 1008 q 853 931 853 971 q 848 896 853 915 q 835 856 843 876 q 818 814 828 835 q 797 778 808 793 l 738 778 z "},"đ":{"ha":739,"x_min":57,"x_max":721,"o":"m 285 924 l 485 924 l 485 1049 l 617 1049 l 617 924 l 721 924 l 721 822 l 617 822 l 617 111 l 721 83 l 721 0 l 513 0 l 485 100 q 419 17 465 47 q 296 -14 374 -14 q 181 15 226 -14 q 108 92 135 43 q 69 206 81 140 q 57 347 57 272 q 68 488 57 422 q 107 603 79 554 q 180 680 135 651 q 294 708 225 708 q 420 677 371 708 q 485 585 469 646 l 485 822 l 285 822 l 285 924 m 329 611 q 264 589 289 611 q 224 531 239 567 q 204 446 210 494 q 199 346 199 397 q 204 246 199 293 q 224 163 210 199 q 264 105 239 126 q 329 83 289 83 q 397 99 368 83 q 446 140 426 114 q 475 199 465 167 q 485 268 485 232 l 485 439 q 446 560 485 510 q 329 611 407 611 z "},"ḍ":{"ha":739,"x_min":57,"x_max":721,"o":"m 485 938 l 365 965 l 365 1049 l 617 1049 l 617 111 l 721 83 l 721 0 l 513 0 l 485 100 q 419 17 465 47 q 296 -14 374 -14 q 181 15 226 -14 q 108 92 135 43 q 69 206 81 140 q 57 347 57 272 q 68 488 57 422 q 107 603 79 554 q 180 680 135 651 q 294 708 225 708 q 420 677 371 708 q 485 585 469 646 l 485 938 m 329 611 q 264 589 289 611 q 224 531 239 567 q 204 446 210 494 q 199 346 199 397 q 204 246 199 293 q 224 163 210 199 q 264 105 239 126 q 329 83 289 83 q 397 99 368 83 q 446 140 426 114 q 475 199 465 167 q 485 268 485 232 l 485 439 q 446 560 485 510 q 329 611 407 611 m 390 -299 q 326 -274 351 -299 q 301 -210 301 -249 q 326 -147 301 -171 q 390 -122 351 -122 q 454 -147 429 -122 q 479 -210 479 -171 q 454 -274 479 -249 q 390 -299 429 -299 z "},"è":{"ha":656,"x_min":57,"x_max":597,"o":"m 346 -14 q 207 11 263 -14 q 118 83 151 36 q 71 197 85 131 q 57 347 57 264 q 71 498 57 431 q 119 612 85 565 q 209 683 153 658 q 349 708 265 708 q 467 689 419 708 q 543 630 514 669 q 585 530 572 590 q 597 388 597 469 q 597 353 597 371 q 596 317 597 336 l 204 317 q 208 220 204 265 q 227 142 213 175 q 269 89 242 108 q 346 69 297 69 q 410 83 386 69 q 447 116 435 96 q 464 160 460 136 q 469 206 468 183 l 596 206 q 578 126 592 165 q 537 55 565 86 q 463 5 508 24 q 346 -14 417 -14 m 340 625 q 271 607 297 625 q 230 558 244 589 q 210 487 215 528 q 204 400 206 446 l 468 400 q 438 575 468 525 q 340 625 408 625 m 415 785 l 331 785 l 196 1000 l 339 1000 l 415 785 z "},"é":{"ha":656,"x_min":57,"x_max":597,"o":"m 346 -14 q 207 11 263 -14 q 118 83 151 36 q 71 197 85 131 q 57 347 57 264 q 71 498 57 431 q 119 612 85 565 q 209 683 153 658 q 349 708 265 708 q 467 689 419 708 q 543 630 514 669 q 585 530 572 590 q 597 388 597 469 q 597 353 597 371 q 596 317 597 336 l 204 317 q 208 220 204 265 q 227 142 213 175 q 269 89 242 108 q 346 69 297 69 q 410 83 386 69 q 447 116 435 96 q 464 160 460 136 q 469 206 468 183 l 596 206 q 578 126 592 165 q 537 55 565 86 q 463 5 508 24 q 346 -14 417 -14 m 340 625 q 271 607 297 625 q 230 558 244 589 q 210 487 215 528 q 204 400 206 446 l 468 400 q 438 575 468 525 q 340 625 408 625 m 367 1000 l 510 1000 l 375 785 l 290 785 l 367 1000 z "},"ê":{"ha":656,"x_min":57,"x_max":597,"o":"m 346 -14 q 207 11 263 -14 q 118 83 151 36 q 71 197 85 131 q 57 347 57 264 q 71 498 57 431 q 119 612 85 565 q 209 683 153 658 q 349 708 265 708 q 467 689 419 708 q 543 630 514 669 q 585 530 572 590 q 597 388 597 469 q 597 353 597 371 q 596 317 597 336 l 204 317 q 208 220 204 265 q 227 142 213 175 q 269 89 242 108 q 346 69 297 69 q 410 83 386 69 q 447 116 435 96 q 464 160 460 136 q 469 206 468 183 l 596 206 q 578 126 592 165 q 537 55 565 86 q 463 5 508 24 q 346 -14 417 -14 m 340 625 q 271 607 297 625 q 230 558 244 589 q 210 487 215 528 q 204 400 206 446 l 468 400 q 438 575 468 525 q 340 625 408 625 m 556 785 l 447 785 l 335 899 l 214 785 l 106 785 l 258 986 l 417 986 l 556 785 z "},"ë":{"ha":656,"x_min":57,"x_max":597,"o":"m 346 -14 q 207 11 263 -14 q 118 83 151 36 q 71 197 85 131 q 57 347 57 264 q 71 498 57 431 q 119 612 85 565 q 209 683 153 658 q 349 708 265 708 q 467 689 419 708 q 543 630 514 669 q 585 530 572 590 q 597 388 597 469 q 597 353 597 371 q 596 317 597 336 l 204 317 q 208 220 204 265 q 227 142 213 175 q 269 89 242 108 q 346 69 297 69 q 410 83 386 69 q 447 116 435 96 q 464 160 460 136 q 469 206 468 183 l 596 206 q 578 126 592 165 q 537 55 565 86 q 463 5 508 24 q 346 -14 417 -14 m 340 625 q 271 607 297 625 q 230 558 244 589 q 210 487 215 528 q 204 400 206 446 l 468 400 q 438 575 468 525 q 340 625 408 625 m 197 844 q 138 867 161 844 q 115 926 115 890 q 138 985 115 963 q 197 1008 161 1008 q 257 985 233 1008 q 281 926 281 963 q 257 867 281 890 q 197 844 233 844 m 483 844 q 424 867 447 844 q 401 926 401 890 q 424 985 401 963 q 483 1008 447 1008 q 543 985 519 1008 q 567 926 567 963 q 543 867 567 890 q 483 844 519 844 z "},"ē":{"ha":656,"x_min":57,"x_max":597,"o":"m 346 -14 q 207 11 263 -14 q 118 83 151 36 q 71 197 85 131 q 57 347 57 264 q 71 498 57 431 q 119 612 85 565 q 209 683 153 658 q 349 708 265 708 q 467 689 419 708 q 543 630 514 669 q 585 530 572 590 q 597 388 597 469 q 597 353 597 371 q 596 317 597 336 l 204 317 q 208 220 204 265 q 227 142 213 175 q 269 89 242 108 q 346 69 297 69 q 410 83 386 69 q 447 116 435 96 q 464 160 460 136 q 469 206 468 183 l 596 206 q 578 126 592 165 q 537 55 565 86 q 463 5 508 24 q 346 -14 417 -14 m 340 625 q 271 607 297 625 q 230 558 244 589 q 210 487 215 528 q 204 400 206 446 l 468 400 q 438 575 468 525 q 340 625 408 625 m 147 942 l 528 942 l 528 854 l 147 854 l 147 942 z "},"ĕ":{"ha":656,"x_min":57,"x_max":597,"o":"m 346 -14 q 207 11 263 -14 q 118 83 151 36 q 71 197 85 131 q 57 347 57 264 q 71 498 57 431 q 119 612 85 565 q 209 683 153 658 q 349 708 265 708 q 467 689 419 708 q 543 630 514 669 q 585 530 572 590 q 597 388 597 469 q 597 353 597 371 q 596 317 597 336 l 204 317 q 208 220 204 265 q 227 142 213 175 q 269 89 242 108 q 346 69 297 69 q 410 83 386 69 q 447 116 435 96 q 464 160 460 136 q 469 206 468 183 l 596 206 q 578 126 592 165 q 537 55 565 86 q 463 5 508 24 q 346 -14 417 -14 m 340 625 q 271 607 297 625 q 230 558 244 589 q 210 487 215 528 q 204 400 206 446 l 468 400 q 438 575 468 525 q 340 625 408 625 m 542 965 q 534 895 542 928 q 504 838 526 863 q 441 799 482 813 q 335 785 400 785 q 230 799 269 785 q 168 838 190 813 q 138 895 146 863 q 131 965 131 928 l 239 965 q 261 895 239 928 q 338 863 283 863 q 413 895 392 863 q 435 965 435 928 l 542 965 z "},"ė":{"ha":656,"x_min":57,"x_max":597,"o":"m 346 -14 q 207 11 263 -14 q 118 83 151 36 q 71 197 85 131 q 57 347 57 264 q 71 498 57 431 q 119 612 85 565 q 209 683 153 658 q 349 708 265 708 q 467 689 419 708 q 543 630 514 669 q 585 530 572 590 q 597 388 597 469 q 597 353 597 371 q 596 317 597 336 l 204 317 q 208 220 204 265 q 227 142 213 175 q 269 89 242 108 q 346 69 297 69 q 410 83 386 69 q 447 116 435 96 q 464 160 460 136 q 469 206 468 183 l 596 206 q 578 126 592 165 q 537 55 565 86 q 463 5 508 24 q 346 -14 417 -14 m 340 625 q 271 607 297 625 q 230 558 244 589 q 210 487 215 528 q 204 400 206 446 l 468 400 q 438 575 468 525 q 340 625 408 625 m 350 832 q 286 857 311 832 q 261 921 261 882 q 286 984 261 960 q 350 1008 311 1008 q 414 984 389 1008 q 439 921 439 960 q 414 857 439 882 q 350 832 389 832 z "},"ę":{"ha":656,"x_min":57,"x_max":597,"o":"m 596 206 q 579 128 592 167 q 541 60 567 90 q 474 10 515 31 q 369 -12 432 -10 q 326 -87 338 -51 q 314 -142 314 -122 q 328 -180 314 -164 q 374 -196 342 -196 q 417 -189 399 -196 q 436 -181 426 -185 l 436 -276 q 407 -285 422 -281 q 344 -292 379 -292 q 293 -285 318 -292 q 249 -262 268 -278 q 219 -222 231 -246 q 208 -164 208 -197 q 229 -83 208 -117 q 288 -10 250 -49 q 178 27 222 -1 q 106 101 133 56 q 68 210 79 147 q 57 347 57 272 q 71 498 57 431 q 119 612 85 565 q 209 683 153 658 q 349 708 265 708 q 467 689 419 708 q 543 630 514 669 q 585 530 572 590 q 597 388 597 469 q 597 353 597 371 q 596 317 597 336 l 204 317 q 208 220 204 265 q 227 142 213 175 q 269 89 242 108 q 346 69 297 69 q 410 83 386 69 q 447 116 435 96 q 464 160 460 136 q 469 206 468 183 l 596 206 m 340 625 q 271 607 297 625 q 230 558 244 589 q 210 487 215 528 q 204 400 206 446 l 468 400 q 438 575 468 525 q 340 625 408 625 z "},"ě":{"ha":656,"x_min":57,"x_max":597,"o":"m 346 -14 q 207 11 263 -14 q 118 83 151 36 q 71 197 85 131 q 57 347 57 264 q 71 498 57 431 q 119 612 85 565 q 209 683 153 658 q 349 708 265 708 q 467 689 419 708 q 543 630 514 669 q 585 530 572 590 q 597 388 597 469 q 597 353 597 371 q 596 317 597 336 l 204 317 q 208 220 204 265 q 227 142 213 175 q 269 89 242 108 q 346 69 297 69 q 410 83 386 69 q 447 116 435 96 q 464 160 460 136 q 469 206 468 183 l 596 206 q 578 126 592 165 q 537 55 565 86 q 463 5 508 24 q 346 -14 417 -14 m 340 625 q 271 607 297 625 q 230 558 244 589 q 210 487 215 528 q 204 400 206 446 l 468 400 q 438 575 468 525 q 340 625 408 625 m 426 785 l 268 785 l 101 986 l 210 986 l 344 872 l 471 986 l 579 986 l 426 785 z "},"ẽ":{"ha":656,"x_min":57,"x_max":601,"o":"m 346 -14 q 207 11 263 -14 q 118 83 151 36 q 71 197 85 131 q 57 347 57 264 q 71 498 57 431 q 119 612 85 565 q 209 683 153 658 q 349 708 265 708 q 467 689 419 708 q 543 630 514 669 q 585 530 572 590 q 597 388 597 469 q 597 353 597 371 q 596 317 597 336 l 204 317 q 208 220 204 265 q 227 142 213 175 q 269 89 242 108 q 346 69 297 69 q 410 83 386 69 q 447 116 435 96 q 464 160 460 136 q 469 206 468 183 l 596 206 q 578 126 592 165 q 537 55 565 86 q 463 5 508 24 q 346 -14 417 -14 m 340 625 q 271 607 297 625 q 230 558 244 589 q 210 487 215 528 q 204 400 206 446 l 468 400 q 438 575 468 525 q 340 625 408 625 m 601 963 q 592 891 601 925 q 562 832 582 857 q 513 792 542 807 q 447 778 485 778 q 378 792 407 778 q 326 824 350 807 q 283 855 303 840 q 240 869 263 869 q 217 865 229 869 q 194 852 206 861 q 176 828 183 843 q 169 792 169 813 l 85 792 q 93 855 85 824 q 119 911 101 886 q 166 951 138 936 q 235 967 194 967 q 303 952 276 967 q 352 921 331 938 q 393 890 374 904 q 439 875 413 875 q 494 899 471 875 q 518 963 518 922 l 601 963 z "},"ẹ":{"ha":656,"x_min":57,"x_max":597,"o":"m 346 -14 q 207 11 263 -14 q 118 83 151 36 q 71 197 85 131 q 57 347 57 264 q 71 498 57 431 q 119 612 85 565 q 209 683 153 658 q 349 708 265 708 q 467 689 419 708 q 543 630 514 669 q 585 530 572 590 q 597 388 597 469 q 597 353 597 371 q 596 317 597 336 l 204 317 q 208 220 204 265 q 227 142 213 175 q 269 89 242 108 q 346 69 297 69 q 410 83 386 69 q 447 116 435 96 q 464 160 460 136 q 469 206 468 183 l 596 206 q 578 126 592 165 q 537 55 565 86 q 463 5 508 24 q 346 -14 417 -14 m 340 625 q 271 607 297 625 q 230 558 244 589 q 210 487 215 528 q 204 400 206 446 l 468 400 q 438 575 468 525 q 340 625 408 625 m 331 -299 q 267 -274 292 -299 q 242 -210 242 -249 q 267 -147 242 -171 q 331 -122 292 -122 q 394 -147 369 -122 q 419 -210 419 -171 q 394 -274 419 -249 q 331 -299 369 -299 z "},"ĝ":{"ha":649,"x_min":42,"x_max":624,"o":"m 304 708 q 357 704 331 708 q 406 689 383 700 q 447 658 429 678 q 472 607 464 639 l 479 607 l 507 694 l 583 694 l 583 457 q 572 355 583 403 q 532 271 561 307 q 453 214 503 235 q 325 193 403 193 q 198 184 238 193 q 158 150 158 175 q 166 126 158 135 q 193 113 174 118 q 246 107 213 108 q 332 106 279 106 q 444 100 392 106 q 537 74 497 94 q 600 13 576 53 q 624 -99 624 -28 q 599 -208 624 -167 q 535 -273 575 -250 q 442 -304 494 -296 q 332 -312 389 -312 q 209 -305 263 -312 q 118 -277 156 -297 q 61 -222 81 -257 q 42 -131 42 -186 q 53 -67 42 -93 q 81 -25 64 -42 q 120 1 99 -8 q 163 15 142 11 l 163 21 q 89 52 117 29 q 61 119 61 75 q 81 188 61 158 q 158 224 100 217 l 158 232 q 83 324 103 267 q 63 447 63 381 q 76 552 63 504 q 118 635 89 600 q 193 689 147 669 q 304 708 239 708 m 331 288 q 394 300 369 288 q 432 334 418 313 q 451 385 446 356 q 457 451 457 415 q 451 515 457 486 q 432 566 446 544 q 394 599 418 588 q 331 611 369 611 q 267 599 292 611 q 227 566 242 588 q 207 515 213 544 q 201 451 201 486 q 207 387 201 417 q 227 335 213 357 q 267 300 242 313 q 331 288 292 288 m 326 11 q 214 -12 253 11 q 175 -101 175 -36 q 186 -158 175 -136 q 218 -192 197 -179 q 268 -208 239 -204 q 333 -212 297 -212 q 397 -208 368 -212 q 447 -192 426 -204 q 479 -158 468 -179 q 490 -100 490 -136 q 479 -38 490 -61 q 447 -5 468 -15 q 394 8 425 6 q 326 11 364 11 m 563 785 l 454 785 l 342 899 l 221 785 l 113 785 l 265 986 l 424 986 l 563 785 z "},"ğ":{"ha":649,"x_min":42,"x_max":624,"o":"m 304 708 q 357 704 331 708 q 406 689 383 700 q 447 658 429 678 q 472 607 464 639 l 479 607 l 507 694 l 583 694 l 583 457 q 572 355 583 403 q 532 271 561 307 q 453 214 503 235 q 325 193 403 193 q 198 184 238 193 q 158 150 158 175 q 166 126 158 135 q 193 113 174 118 q 246 107 213 108 q 332 106 279 106 q 444 100 392 106 q 537 74 497 94 q 600 13 576 53 q 624 -99 624 -28 q 599 -208 624 -167 q 535 -273 575 -250 q 442 -304 494 -296 q 332 -312 389 -312 q 209 -305 263 -312 q 118 -277 156 -297 q 61 -222 81 -257 q 42 -131 42 -186 q 53 -67 42 -93 q 81 -25 64 -42 q 120 1 99 -8 q 163 15 142 11 l 163 21 q 89 52 117 29 q 61 119 61 75 q 81 188 61 158 q 158 224 100 217 l 158 232 q 83 324 103 267 q 63 447 63 381 q 76 552 63 504 q 118 635 89 600 q 193 689 147 669 q 304 708 239 708 m 331 288 q 394 300 369 288 q 432 334 418 313 q 451 385 446 356 q 457 451 457 415 q 451 515 457 486 q 432 566 446 544 q 394 599 418 588 q 331 611 369 611 q 267 599 292 611 q 227 566 242 588 q 207 515 213 544 q 201 451 201 486 q 207 387 201 417 q 227 335 213 357 q 267 300 242 313 q 331 288 292 288 m 326 11 q 214 -12 253 11 q 175 -101 175 -36 q 186 -158 175 -136 q 218 -192 197 -179 q 268 -208 239 -204 q 333 -212 297 -212 q 397 -208 368 -212 q 447 -192 426 -204 q 479 -158 468 -179 q 490 -100 490 -136 q 479 -38 490 -61 q 447 -5 468 -15 q 394 8 425 6 q 326 11 364 11 m 535 965 q 527 895 535 928 q 497 838 519 863 q 434 799 475 813 q 328 785 393 785 q 223 799 263 785 q 161 838 183 813 q 131 895 139 863 q 124 965 124 928 l 232 965 q 254 895 232 928 q 331 863 276 863 q 406 895 385 863 q 428 965 428 928 l 535 965 z "},"ġ":{"ha":649,"x_min":42,"x_max":624,"o":"m 304 708 q 357 704 331 708 q 406 689 383 700 q 447 658 429 678 q 472 607 464 639 l 479 607 l 507 694 l 583 694 l 583 457 q 572 355 583 403 q 532 271 561 307 q 453 214 503 235 q 325 193 403 193 q 198 184 238 193 q 158 150 158 175 q 166 126 158 135 q 193 113 174 118 q 246 107 213 108 q 332 106 279 106 q 444 100 392 106 q 537 74 497 94 q 600 13 576 53 q 624 -99 624 -28 q 599 -208 624 -167 q 535 -273 575 -250 q 442 -304 494 -296 q 332 -312 389 -312 q 209 -305 263 -312 q 118 -277 156 -297 q 61 -222 81 -257 q 42 -131 42 -186 q 53 -67 42 -93 q 81 -25 64 -42 q 120 1 99 -8 q 163 15 142 11 l 163 21 q 89 52 117 29 q 61 119 61 75 q 81 188 61 158 q 158 224 100 217 l 158 232 q 83 324 103 267 q 63 447 63 381 q 76 552 63 504 q 118 635 89 600 q 193 689 147 669 q 304 708 239 708 m 331 288 q 394 300 369 288 q 432 334 418 313 q 451 385 446 356 q 457 451 457 415 q 451 515 457 486 q 432 566 446 544 q 394 599 418 588 q 331 611 369 611 q 267 599 292 611 q 227 566 242 588 q 207 515 213 544 q 201 451 201 486 q 207 387 201 417 q 227 335 213 357 q 267 300 242 313 q 331 288 292 288 m 326 11 q 214 -12 253 11 q 175 -101 175 -36 q 186 -158 175 -136 q 218 -192 197 -179 q 268 -208 239 -204 q 333 -212 297 -212 q 397 -208 368 -212 q 447 -192 426 -204 q 479 -158 468 -179 q 490 -100 490 -136 q 479 -38 490 -61 q 447 -5 468 -15 q 394 8 425 6 q 326 11 364 11 m 332 832 q 268 857 293 832 q 243 921 243 882 q 268 984 243 960 q 332 1008 293 1008 q 396 984 371 1008 q 421 921 421 960 q 396 857 421 882 q 332 832 371 832 z "},"ģ":{"ha":649,"x_min":42,"x_max":624,"o":"m 346 925 l 404 925 l 404 785 l 267 785 l 267 925 l 325 1049 l 376 1049 l 346 925 m 304 708 q 357 704 331 708 q 406 689 383 700 q 447 658 429 678 q 472 607 464 639 l 479 607 l 507 694 l 583 694 l 583 457 q 572 355 583 403 q 532 271 561 307 q 453 214 503 235 q 325 193 403 193 q 198 184 238 193 q 158 150 158 175 q 166 126 158 135 q 193 113 174 118 q 246 107 213 108 q 332 106 279 106 q 444 100 392 106 q 537 74 497 94 q 600 13 576 53 q 624 -99 624 -28 q 599 -208 624 -167 q 535 -273 575 -250 q 442 -304 494 -296 q 332 -312 389 -312 q 209 -305 263 -312 q 118 -277 156 -297 q 61 -222 81 -257 q 42 -131 42 -186 q 53 -67 42 -93 q 81 -25 64 -42 q 120 1 99 -8 q 163 15 142 11 l 163 21 q 89 52 117 29 q 61 119 61 75 q 81 188 61 158 q 158 224 100 217 l 158 232 q 83 324 103 267 q 63 447 63 381 q 76 552 63 504 q 118 635 89 600 q 193 689 147 669 q 304 708 239 708 m 331 288 q 394 300 369 288 q 432 334 418 313 q 451 385 446 356 q 457 451 457 415 q 451 515 457 486 q 432 566 446 544 q 394 599 418 588 q 331 611 369 611 q 267 599 292 611 q 227 566 242 588 q 207 515 213 544 q 201 451 201 486 q 207 387 201 417 q 227 335 213 357 q 267 300 242 313 q 331 288 292 288 m 326 11 q 214 -12 253 11 q 175 -101 175 -36 q 186 -158 175 -136 q 218 -192 197 -179 q 268 -208 239 -204 q 333 -212 297 -212 q 397 -208 368 -212 q 447 -192 426 -204 q 479 -158 468 -179 q 490 -100 490 -136 q 479 -38 490 -61 q 447 -5 468 -15 q 394 8 425 6 q 326 11 364 11 z "},"ĥ":{"ha":782,"x_min":17,"x_max":768,"o":"m 531 426 q 526 496 531 463 q 510 555 522 529 q 472 596 497 581 q 406 611 447 611 q 337 597 365 611 q 290 560 308 583 q 263 507 272 538 q 254 443 254 476 l 254 111 l 358 83 l 358 0 l 18 0 l 18 83 l 122 111 l 122 938 l 17 965 l 17 1049 l 254 1049 l 254 583 q 320 677 267 646 q 449 708 374 708 q 560 683 518 708 q 626 618 603 658 q 656 527 649 578 q 664 425 664 476 l 664 111 l 768 83 l 768 0 l 531 0 l 531 426 m 739 785 l 631 785 l 518 899 l 397 785 l 289 785 l 442 986 l 600 986 l 739 785 z "},"ħ":{"ha":782,"x_min":17,"x_max":768,"o":"m 17 872 l 122 872 l 122 938 l 17 965 l 17 1049 l 254 1049 l 254 872 l 397 872 l 397 785 l 254 785 l 254 583 q 320 677 267 646 q 449 708 374 708 q 560 683 518 708 q 626 618 603 658 q 656 527 649 578 q 664 425 664 476 l 664 111 l 768 83 l 768 0 l 531 0 l 531 426 q 526 496 531 463 q 510 555 522 529 q 472 596 497 581 q 406 611 447 611 q 337 597 365 611 q 290 560 308 583 q 263 507 272 538 q 254 443 254 476 l 254 111 l 358 83 l 358 0 l 18 0 l 18 83 l 122 111 l 122 785 l 17 785 l 17 872 z "},"ḥ":{"ha":782,"x_min":17,"x_max":768,"o":"m 531 426 q 526 496 531 463 q 510 555 522 529 q 472 596 497 581 q 406 611 447 611 q 337 597 365 611 q 290 560 308 583 q 263 507 272 538 q 254 443 254 476 l 254 111 l 358 83 l 358 0 l 18 0 l 18 83 l 122 111 l 122 938 l 17 965 l 17 1049 l 254 1049 l 254 583 q 320 677 267 646 q 449 708 374 708 q 560 683 518 708 q 626 618 603 658 q 656 527 649 578 q 664 425 664 476 l 664 111 l 768 83 l 768 0 l 531 0 l 531 426 m 404 -299 q 340 -274 365 -299 q 315 -210 315 -249 q 340 -147 315 -171 q 404 -122 365 -122 q 468 -147 443 -122 q 493 -210 493 -171 q 468 -274 493 -249 q 404 -299 443 -299 z "},"ì":{"ha":397,"x_min":35,"x_max":379,"o":"m 42 83 l 143 111 l 143 592 l 39 619 l 39 694 l 275 694 l 275 111 l 379 83 l 379 0 l 42 0 l 42 83 m 254 785 l 169 785 l 35 1000 l 178 1000 l 254 785 z "},"í":{"ha":397,"x_min":39,"x_max":388,"o":"m 42 83 l 143 111 l 143 592 l 39 619 l 39 694 l 275 694 l 275 111 l 379 83 l 379 0 l 42 0 l 42 83 m 244 1000 l 388 1000 l 253 785 l 168 785 l 244 1000 z "},"î":{"ha":397,"x_min":-21,"x_max":429,"o":"m 42 83 l 143 111 l 143 592 l 39 619 l 39 694 l 275 694 l 275 111 l 379 83 l 379 0 l 42 0 l 42 83 m 429 785 l 321 785 l 208 899 l 88 785 l -21 785 l 132 986 l 290 986 l 429 785 z "},"ï":{"ha":397,"x_min":-19,"x_max":432,"o":"m 42 83 l 143 111 l 143 592 l 39 619 l 39 694 l 275 694 l 275 111 l 379 83 l 379 0 l 42 0 l 42 83 m 63 844 q 3 867 26 844 q -19 926 -19 890 q 3 985 -19 963 q 63 1008 26 1008 q 122 985 99 1008 q 146 926 146 963 q 122 867 146 890 q 63 844 99 844 m 349 844 q 290 867 313 844 q 267 926 267 890 q 290 985 267 963 q 349 1008 313 1008 q 408 985 385 1008 q 432 926 432 963 q 408 867 432 890 q 349 844 385 844 z "},"ĩ":{"ha":397,"x_min":-50,"x_max":467,"o":"m 42 83 l 143 111 l 143 592 l 39 619 l 39 694 l 275 694 l 275 111 l 379 83 l 379 0 l 42 0 l 42 83 m 467 963 q 457 891 467 925 q 427 832 447 857 q 378 792 407 807 q 313 778 350 778 q 244 792 272 778 q 192 824 215 807 q 148 855 168 840 q 106 869 128 869 q 83 865 94 869 q 60 852 71 861 q 42 828 49 843 q 35 792 35 813 l -50 792 q -42 855 -50 824 q -15 911 -33 886 q 31 951 3 936 q 100 967 60 967 q 169 952 142 967 q 217 921 196 938 q 258 890 239 904 q 304 875 278 875 q 360 899 336 875 q 383 963 383 922 l 467 963 z "},"ī":{"ha":397,"x_min":18,"x_max":399,"o":"m 42 83 l 143 111 l 143 592 l 39 619 l 39 694 l 275 694 l 275 111 l 379 83 l 379 0 l 42 0 l 42 83 m 18 942 l 399 942 l 399 854 l 18 854 l 18 942 z "},"į":{"ha":397,"x_min":39,"x_max":379,"o":"m 42 83 l 143 111 l 143 592 l 39 619 l 39 694 l 275 694 l 275 111 l 379 83 l 379 0 l 243 0 q 191 -81 206 -42 q 176 -142 176 -119 q 190 -180 176 -164 q 236 -196 204 -196 q 279 -189 261 -196 q 299 -181 289 -185 l 299 -276 q 269 -285 285 -281 q 207 -292 242 -292 q 156 -285 181 -292 q 112 -262 131 -278 q 82 -222 93 -246 q 71 -164 71 -197 q 94 -78 71 -114 q 160 0 118 -43 l 42 0 l 42 83 m 204 832 q 140 857 165 832 q 115 921 115 882 q 140 984 115 960 q 204 1008 165 1008 q 268 984 243 1008 q 293 921 293 960 q 268 857 293 882 q 204 832 243 832 z "},"ĭ":{"ha":397,"x_min":1,"x_max":413,"o":"m 42 83 l 143 111 l 143 592 l 39 619 l 39 694 l 275 694 l 275 111 l 379 83 l 379 0 l 42 0 l 42 83 m 413 965 q 405 895 413 928 q 375 838 397 863 q 312 799 353 813 q 206 785 271 785 q 101 799 140 785 q 39 838 61 813 q 9 895 17 863 q 1 965 1 928 l 110 965 q 132 895 110 928 q 208 863 154 863 q 284 895 263 863 q 306 965 306 928 l 413 965 z "},"ị":{"ha":397,"x_min":39,"x_max":379,"o":"m 42 83 l 143 111 l 143 592 l 39 619 l 39 694 l 275 694 l 275 111 l 379 83 l 379 0 l 42 0 l 42 83 m 204 832 q 140 857 165 832 q 115 921 115 882 q 140 984 115 960 q 204 1008 165 1008 q 268 984 243 1008 q 293 921 293 960 q 268 857 293 882 q 204 832 243 832 m 208 -299 q 144 -274 169 -299 q 119 -210 119 -249 q 144 -147 119 -171 q 208 -122 169 -122 q 272 -147 247 -122 q 297 -210 297 -171 q 272 -274 297 -249 q 208 -299 247 -299 z "},"ĵ":{"ha":339,"x_min":-124,"x_max":410,"o":"m 254 -21 q 208 -237 254 -161 q 43 -312 163 -312 q -44 -301 -3 -312 q -124 -261 -86 -289 l -90 -185 q -34 -201 -65 -196 q 24 -207 -3 -207 q 69 -199 50 -207 q 99 -171 88 -192 q 117 -114 111 -150 q 122 -21 122 -78 l 122 583 l 18 611 l 18 694 l 254 694 l 254 -21 m 410 785 l 301 785 l 189 899 l 68 785 l -40 785 l 113 986 l 271 986 l 410 785 z "},"ķ":{"ha":729,"x_min":17,"x_max":713,"o":"m 18 83 l 122 111 l 122 938 l 17 965 l 17 1049 l 254 1049 l 254 407 l 481 694 l 664 694 l 664 611 l 540 590 l 396 424 l 606 111 l 713 83 l 713 0 l 529 0 l 310 325 l 254 260 l 254 111 l 344 83 l 344 0 l 18 0 l 18 83 m 301 -60 l 439 -60 l 439 -186 l 408 -299 l 329 -299 l 346 -186 l 301 -186 l 301 -60 z "},"ĺ":{"ha":374,"x_min":15,"x_max":361,"o":"m 18 83 l 119 111 l 119 938 l 15 965 l 15 1049 l 251 1049 l 251 111 l 356 83 l 356 0 l 18 0 l 18 83 m 218 1367 l 361 1367 l 226 1151 l 142 1151 l 218 1367 z "},"ļ":{"ha":374,"x_min":15,"x_max":356,"o":"m 18 83 l 119 111 l 119 938 l 15 965 l 15 1049 l 251 1049 l 251 111 l 356 83 l 356 0 l 18 0 l 18 83 m 119 -60 l 257 -60 l 257 -186 l 226 -299 l 147 -299 l 164 -186 l 119 -186 l 119 -60 z "},"ľ":{"ha":374,"x_min":15,"x_max":482,"o":"m 18 83 l 119 111 l 119 938 l 15 965 l 15 1049 l 251 1049 l 251 111 l 356 83 l 356 0 l 18 0 l 18 83 m 367 778 q 404 861 396 819 q 353 882 374 861 q 333 935 333 903 q 354 988 333 967 q 407 1008 375 1008 q 458 990 435 1008 q 482 931 482 971 q 477 896 482 915 q 465 856 472 876 q 447 814 457 835 q 426 778 438 793 l 367 778 z "},"ŀ":{"ha":493,"x_min":15,"x_max":514,"o":"m 18 83 l 119 111 l 119 938 l 15 965 l 15 1049 l 251 1049 l 251 111 l 356 83 l 356 0 l 18 0 l 18 83 m 425 458 q 361 483 386 458 q 336 547 336 508 q 361 610 336 586 q 425 635 386 635 q 489 610 464 635 q 514 547 514 586 q 489 483 514 508 q 425 458 464 458 z "},"ł":{"ha":483,"x_min":33,"x_max":457,"o":"m 33 538 l 179 581 l 179 938 l 75 965 l 75 1049 l 311 1049 l 311 621 l 457 664 l 457 563 l 311 519 l 311 111 l 415 83 l 415 0 l 78 0 l 78 83 l 179 111 l 179 479 l 33 436 l 33 538 z "},"ń":{"ha":814,"x_min":42,"x_max":800,"o":"m 563 426 q 558 497 563 464 q 541 556 554 531 q 503 596 528 581 q 436 611 478 611 q 366 593 396 611 q 317 546 336 575 q 288 482 297 517 q 279 414 279 447 l 279 111 l 383 83 l 383 0 l 43 0 l 43 83 l 147 111 l 147 583 l 42 611 l 42 694 l 251 694 l 279 583 q 348 677 293 646 q 479 708 403 708 q 592 683 550 708 q 658 618 635 658 q 688 527 681 578 q 696 425 696 476 l 696 111 l 800 83 l 800 0 l 563 0 l 563 426 m 476 1000 l 619 1000 l 485 785 l 400 785 l 476 1000 z "},"ŉ":{"ha":910,"x_min":-26,"x_max":896,"o":"m 658 426 q 654 497 658 464 q 637 556 650 531 q 599 596 624 581 q 532 611 574 611 q 462 593 492 611 q 413 546 432 575 q 384 482 393 517 q 375 414 375 447 l 375 111 l 479 83 l 479 0 l 139 0 l 139 83 l 243 111 l 243 583 l 138 611 l 138 694 l 347 694 l 375 583 q 444 677 389 646 q 575 708 499 708 q 688 683 646 708 q 753 618 731 658 q 784 527 776 578 q 792 425 792 476 l 792 111 l 896 83 l 896 0 l 658 0 l 658 426 m -26 1000 l 97 1000 l 76 694 l -6 694 l -26 1000 z "},"ņ":{"ha":814,"x_min":42,"x_max":800,"o":"m 563 426 q 558 497 563 464 q 541 556 554 531 q 503 596 528 581 q 436 611 478 611 q 366 593 396 611 q 317 546 336 575 q 288 482 297 517 q 279 414 279 447 l 279 111 l 383 83 l 383 0 l 43 0 l 43 83 l 147 111 l 147 583 l 42 611 l 42 694 l 251 694 l 279 583 q 348 677 293 646 q 479 708 403 708 q 592 683 550 708 q 658 618 635 658 q 688 527 681 578 q 696 425 696 476 l 696 111 l 800 83 l 800 0 l 563 0 l 563 426 m 369 -60 l 507 -60 l 507 -186 l 476 -299 l 397 -299 l 414 -186 l 369 -186 l 369 -60 z "},"ň":{"ha":814,"x_min":42,"x_max":800,"o":"m 563 426 q 558 497 563 464 q 541 556 554 531 q 503 596 528 581 q 436 611 478 611 q 366 593 396 611 q 317 546 336 575 q 288 482 297 517 q 279 414 279 447 l 279 111 l 383 83 l 383 0 l 43 0 l 43 83 l 147 111 l 147 583 l 42 611 l 42 694 l 251 694 l 279 583 q 348 677 293 646 q 479 708 403 708 q 592 683 550 708 q 658 618 635 658 q 688 527 681 578 q 696 425 696 476 l 696 111 l 800 83 l 800 0 l 563 0 l 563 426 m 507 785 l 349 785 l 182 986 l 290 986 l 425 872 l 551 986 l 660 986 l 507 785 z "},"ñ":{"ha":814,"x_min":42,"x_max":800,"o":"m 563 426 q 558 497 563 464 q 541 556 554 531 q 503 596 528 581 q 436 611 478 611 q 366 593 396 611 q 317 546 336 575 q 288 482 297 517 q 279 414 279 447 l 279 111 l 383 83 l 383 0 l 43 0 l 43 83 l 147 111 l 147 583 l 42 611 l 42 694 l 251 694 l 279 583 q 348 677 293 646 q 479 708 403 708 q 592 683 550 708 q 658 618 635 658 q 688 527 681 578 q 696 425 696 476 l 696 111 l 800 83 l 800 0 l 563 0 l 563 426 m 674 963 q 664 891 674 925 q 634 832 654 857 q 585 792 614 807 q 519 778 557 778 q 451 792 479 778 q 399 824 422 807 q 355 855 375 840 q 313 869 335 869 q 290 865 301 869 q 267 852 278 861 q 249 828 256 843 q 242 792 242 813 l 157 792 q 165 855 157 824 q 192 911 174 886 q 238 951 210 936 q 307 967 267 967 q 376 952 349 967 q 424 921 403 938 q 465 890 446 904 q 511 875 485 875 q 567 899 543 875 q 590 963 590 922 l 674 963 z "},"ṅ":{"ha":814,"x_min":42,"x_max":800,"o":"m 563 426 q 558 497 563 464 q 541 556 554 531 q 503 596 528 581 q 436 611 478 611 q 366 593 396 611 q 317 546 336 575 q 288 482 297 517 q 279 414 279 447 l 279 111 l 383 83 l 383 0 l 43 0 l 43 83 l 147 111 l 147 583 l 42 611 l 42 694 l 251 694 l 279 583 q 348 677 293 646 q 479 708 403 708 q 592 683 550 708 q 658 618 635 658 q 688 527 681 578 q 696 425 696 476 l 696 111 l 800 83 l 800 0 l 563 0 l 563 426 m 432 832 q 368 857 393 832 q 343 921 343 882 q 368 984 343 960 q 432 1008 393 1008 q 496 984 471 1008 q 521 921 521 960 q 496 857 521 882 q 432 832 471 832 z "},"ò":{"ha":692,"x_min":58,"x_max":636,"o":"m 347 -14 q 210 13 265 -14 q 121 87 154 39 q 73 201 88 135 q 58 347 58 267 q 73 494 58 428 q 121 608 88 560 q 210 682 154 656 q 347 708 265 708 q 485 682 429 708 q 574 608 540 656 q 622 494 607 560 q 636 347 636 428 q 622 201 636 267 q 574 87 607 135 q 485 13 540 39 q 347 -14 429 -14 m 347 69 q 423 93 394 69 q 466 156 451 117 q 485 245 481 196 q 489 347 489 294 q 485 449 489 399 q 466 538 481 499 q 423 601 451 578 q 347 625 394 625 q 271 601 299 625 q 228 538 243 578 q 210 449 214 499 q 206 347 206 399 q 210 245 206 294 q 228 156 214 196 q 271 93 243 117 q 347 69 299 69 m 406 785 l 321 785 l 186 1000 l 329 1000 l 406 785 z "},"ó":{"ha":692,"x_min":58,"x_max":636,"o":"m 347 -14 q 210 13 265 -14 q 121 87 154 39 q 73 201 88 135 q 58 347 58 267 q 73 494 58 428 q 121 608 88 560 q 210 682 154 656 q 347 708 265 708 q 485 682 429 708 q 574 608 540 656 q 622 494 607 560 q 636 347 636 428 q 622 201 636 267 q 574 87 607 135 q 485 13 540 39 q 347 -14 429 -14 m 347 69 q 423 93 394 69 q 466 156 451 117 q 485 245 481 196 q 489 347 489 294 q 485 449 489 399 q 466 538 481 499 q 423 601 451 578 q 347 625 394 625 q 271 601 299 625 q 228 538 243 578 q 210 449 214 499 q 206 347 206 399 q 210 245 206 294 q 228 156 214 196 q 271 93 243 117 q 347 69 299 69 m 369 1000 l 513 1000 l 378 785 l 293 785 l 369 1000 z "},"ô":{"ha":692,"x_min":58,"x_max":636,"o":"m 347 -14 q 210 13 265 -14 q 121 87 154 39 q 73 201 88 135 q 58 347 58 267 q 73 494 58 428 q 121 608 88 560 q 210 682 154 656 q 347 708 265 708 q 485 682 429 708 q 574 608 540 656 q 622 494 607 560 q 636 347 636 428 q 622 201 636 267 q 574 87 607 135 q 485 13 540 39 q 347 -14 429 -14 m 347 69 q 423 93 394 69 q 466 156 451 117 q 485 245 481 196 q 489 347 489 294 q 485 449 489 399 q 466 538 481 499 q 423 601 451 578 q 347 625 394 625 q 271 601 299 625 q 228 538 243 578 q 210 449 214 499 q 206 347 206 399 q 210 245 206 294 q 228 156 214 196 q 271 93 243 117 q 347 69 299 69 m 567 785 l 458 785 l 346 899 l 225 785 l 117 785 l 269 986 l 428 986 l 567 785 z "},"õ":{"ha":692,"x_min":58,"x_max":636,"o":"m 347 -14 q 210 13 265 -14 q 121 87 154 39 q 73 201 88 135 q 58 347 58 267 q 73 494 58 428 q 121 608 88 560 q 210 682 154 656 q 347 708 265 708 q 485 682 429 708 q 574 608 540 656 q 622 494 607 560 q 636 347 636 428 q 622 201 636 267 q 574 87 607 135 q 485 13 540 39 q 347 -14 429 -14 m 347 69 q 423 93 394 69 q 466 156 451 117 q 485 245 481 196 q 489 347 489 294 q 485 449 489 399 q 466 538 481 499 q 423 601 451 578 q 347 625 394 625 q 271 601 299 625 q 228 538 243 578 q 210 449 214 499 q 206 347 206 399 q 210 245 206 294 q 228 156 214 196 q 271 93 243 117 q 347 69 299 69 m 604 963 q 594 891 604 925 q 565 832 585 857 q 516 792 544 807 q 450 778 488 778 q 381 792 410 778 q 329 824 353 807 q 285 855 306 840 q 243 869 265 869 q 220 865 232 869 q 197 852 208 861 q 179 828 186 843 q 172 792 172 813 l 88 792 q 96 855 88 824 q 122 911 104 886 q 169 951 140 936 q 238 967 197 967 q 306 952 279 967 q 355 921 333 938 q 396 890 376 904 q 442 875 415 875 q 497 899 474 875 q 521 963 521 922 l 604 963 z "},"ö":{"ha":692,"x_min":58,"x_max":636,"o":"m 347 -14 q 210 13 265 -14 q 121 87 154 39 q 73 201 88 135 q 58 347 58 267 q 73 494 58 428 q 121 608 88 560 q 210 682 154 656 q 347 708 265 708 q 485 682 429 708 q 574 608 540 656 q 622 494 607 560 q 636 347 636 428 q 622 201 636 267 q 574 87 607 135 q 485 13 540 39 q 347 -14 429 -14 m 347 69 q 423 93 394 69 q 466 156 451 117 q 485 245 481 196 q 489 347 489 294 q 485 449 489 399 q 466 538 481 499 q 423 601 451 578 q 347 625 394 625 q 271 601 299 625 q 228 538 243 578 q 210 449 214 499 q 206 347 206 399 q 210 245 206 294 q 228 156 214 196 q 271 93 243 117 q 347 69 299 69 m 214 844 q 155 867 178 844 q 132 926 132 890 q 155 985 132 963 q 214 1008 178 1008 q 274 985 250 1008 q 297 926 297 963 q 274 867 297 890 q 214 844 250 844 m 500 844 q 441 867 464 844 q 418 926 418 890 q 441 985 418 963 q 500 1008 464 1008 q 560 985 536 1008 q 583 926 583 963 q 560 867 583 890 q 500 844 536 844 z "},"ō":{"ha":692,"x_min":58,"x_max":636,"o":"m 347 -14 q 210 13 265 -14 q 121 87 154 39 q 73 201 88 135 q 58 347 58 267 q 73 494 58 428 q 121 608 88 560 q 210 682 154 656 q 347 708 265 708 q 485 682 429 708 q 574 608 540 656 q 622 494 607 560 q 636 347 636 428 q 622 201 636 267 q 574 87 607 135 q 485 13 540 39 q 347 -14 429 -14 m 347 69 q 423 93 394 69 q 466 156 451 117 q 485 245 481 196 q 489 347 489 294 q 485 449 489 399 q 466 538 481 499 q 423 601 451 578 q 347 625 394 625 q 271 601 299 625 q 228 538 243 578 q 210 449 214 499 q 206 347 206 399 q 210 245 206 294 q 228 156 214 196 q 271 93 243 117 q 347 69 299 69 m 156 942 l 536 942 l 536 854 l 156 854 l 156 942 z "},"ŏ":{"ha":692,"x_min":58,"x_max":636,"o":"m 347 -14 q 210 13 265 -14 q 121 87 154 39 q 73 201 88 135 q 58 347 58 267 q 73 494 58 428 q 121 608 88 560 q 210 682 154 656 q 347 708 265 708 q 485 682 429 708 q 574 608 540 656 q 622 494 607 560 q 636 347 636 428 q 622 201 636 267 q 574 87 607 135 q 485 13 540 39 q 347 -14 429 -14 m 347 69 q 423 93 394 69 q 466 156 451 117 q 485 245 481 196 q 489 347 489 294 q 485 449 489 399 q 466 538 481 499 q 423 601 451 578 q 347 625 394 625 q 271 601 299 625 q 228 538 243 578 q 210 449 214 499 q 206 347 206 399 q 210 245 206 294 q 228 156 214 196 q 271 93 243 117 q 347 69 299 69 m 557 965 q 549 895 557 928 q 519 838 542 863 q 456 799 497 813 q 350 785 415 785 q 245 799 285 785 q 183 838 206 813 q 153 895 161 863 q 146 965 146 928 l 254 965 q 276 895 254 928 q 353 863 299 863 q 428 895 407 863 q 450 965 450 928 l 557 965 z "},"ø":{"ha":717,"x_min":3,"x_max":724,"o":"m 3 -18 l 113 106 q 75 213 86 153 q 64 347 64 274 q 78 494 64 428 q 126 608 93 560 q 215 682 160 656 q 353 708 271 708 q 482 685 429 708 q 569 621 535 663 l 618 676 l 724 676 l 611 549 q 642 347 642 465 q 627 201 642 267 q 579 87 613 135 q 490 13 546 39 q 353 -14 435 -14 q 165 43 233 -14 l 113 -18 l 3 -18 m 211 347 q 212 284 211 315 q 217 224 213 253 l 478 518 q 435 595 464 565 q 353 625 406 625 q 276 601 304 625 q 234 538 249 578 q 215 449 219 499 q 211 347 211 399 m 353 69 q 428 93 400 69 q 472 156 457 117 q 490 245 486 196 q 494 347 494 294 q 494 381 494 364 q 493 414 494 397 l 244 132 q 286 86 260 103 q 353 69 313 69 z "},"ǿ":{"ha":714,"x_min":-3,"x_max":718,"o":"m -3 0 l 108 125 q 78 225 88 169 q 69 347 69 281 q 84 494 69 428 q 132 608 99 560 q 221 682 165 656 q 358 708 276 708 q 477 690 428 708 q 561 636 526 671 l 613 694 l 718 694 l 607 568 q 638 468 629 524 q 647 347 647 413 q 633 201 647 267 q 585 87 618 135 q 496 13 551 39 q 358 -14 440 -14 q 240 4 289 -14 q 157 56 190 22 l 107 0 l -3 0 m 217 347 q 217 299 217 324 q 219 251 217 275 l 476 540 q 433 602 461 579 q 358 625 406 625 q 282 601 310 625 q 240 538 254 578 q 221 449 225 499 q 217 347 217 399 m 358 69 q 434 93 406 69 q 477 156 463 117 q 496 245 492 196 q 500 347 500 294 q 496 442 500 396 l 240 151 q 283 92 256 114 q 358 69 311 69 m 382 1000 l 525 1000 l 390 785 l 306 785 l 382 1000 z "},"ǫ":{"ha":692,"x_min":58,"x_max":636,"o":"m 215 -167 q 237 -85 215 -119 q 296 -11 258 -51 q 183 26 229 -3 q 110 102 138 56 q 70 211 82 149 q 58 347 58 274 q 73 494 58 428 q 121 608 88 560 q 210 682 154 656 q 347 708 265 708 q 485 682 429 708 q 574 608 540 656 q 622 494 607 560 q 636 347 636 428 q 624 207 636 271 q 581 96 611 143 q 501 21 550 49 q 379 -12 451 -7 q 333 -89 346 -53 q 321 -144 321 -125 q 335 -183 321 -167 q 381 -199 349 -199 q 424 -192 406 -199 q 443 -183 433 -187 l 443 -279 q 414 -287 429 -283 q 351 -294 386 -294 q 300 -287 325 -294 q 256 -265 275 -281 q 226 -224 238 -249 q 215 -167 215 -200 m 347 69 q 423 93 394 69 q 466 156 451 117 q 485 245 481 196 q 489 347 489 294 q 485 449 489 399 q 466 538 481 499 q 423 601 451 578 q 347 625 394 625 q 271 601 299 625 q 228 538 243 578 q 210 449 214 499 q 206 347 206 399 q 210 245 206 294 q 228 156 214 196 q 271 93 243 117 q 347 69 299 69 z "},"ọ":{"ha":692,"x_min":58,"x_max":636,"o":"m 347 -14 q 210 13 265 -14 q 121 87 154 39 q 73 201 88 135 q 58 347 58 267 q 73 494 58 428 q 121 608 88 560 q 210 682 154 656 q 347 708 265 708 q 485 682 429 708 q 574 608 540 656 q 622 494 607 560 q 636 347 636 428 q 622 201 636 267 q 574 87 607 135 q 485 13 540 39 q 347 -14 429 -14 m 347 69 q 423 93 394 69 q 466 156 451 117 q 485 245 481 196 q 489 347 489 294 q 485 449 489 399 q 466 538 481 499 q 423 601 451 578 q 347 625 394 625 q 271 601 299 625 q 228 538 243 578 q 210 449 214 499 q 206 347 206 399 q 210 245 206 294 q 228 156 214 196 q 271 93 243 117 q 347 69 299 69 m 349 -299 q 285 -274 310 -299 q 260 -210 260 -249 q 285 -147 260 -171 q 349 -122 310 -122 q 413 -147 388 -122 q 438 -210 438 -171 q 413 -274 438 -249 q 349 -299 388 -299 z "},"ŕ":{"ha":507,"x_min":40,"x_max":482,"o":"m 482 582 q 385 575 424 582 q 322 547 346 568 q 288 490 299 526 q 278 396 278 454 l 278 108 l 422 90 l 422 0 l 42 0 l 42 81 l 146 108 l 146 583 l 40 611 l 40 694 l 243 694 l 271 583 q 353 678 294 647 q 482 708 411 708 l 482 582 m 313 1000 l 456 1000 l 321 785 l 236 785 l 313 1000 z "},"ŗ":{"ha":507,"x_min":40,"x_max":482,"o":"m 482 582 q 385 575 424 582 q 322 547 346 568 q 288 490 299 526 q 278 396 278 454 l 278 108 l 422 90 l 422 0 l 42 0 l 42 81 l 146 108 l 146 583 l 40 611 l 40 694 l 243 694 l 271 583 q 353 678 294 647 q 482 708 411 708 l 482 582 m 144 -60 l 282 -60 l 282 -186 l 251 -299 l 172 -299 l 189 -186 l 144 -186 l 144 -60 z "},"ř":{"ha":507,"x_min":38,"x_max":515,"o":"m 482 582 q 385 575 424 582 q 322 547 346 568 q 288 490 299 526 q 278 396 278 454 l 278 108 l 422 90 l 422 0 l 42 0 l 42 81 l 146 108 l 146 583 l 40 611 l 40 694 l 243 694 l 271 583 q 353 678 294 647 q 482 708 411 708 l 482 582 m 363 785 l 204 785 l 38 986 l 146 986 l 281 872 l 407 986 l 515 986 l 363 785 z "},"ṛ":{"ha":507,"x_min":40,"x_max":482,"o":"m 482 582 q 385 575 424 582 q 322 547 346 568 q 288 490 299 526 q 278 396 278 454 l 278 108 l 422 90 l 422 0 l 42 0 l 42 81 l 146 108 l 146 583 l 40 611 l 40 694 l 243 694 l 271 583 q 353 678 294 647 q 482 708 411 708 l 482 582 m 214 -299 q 150 -274 175 -299 q 125 -210 125 -249 q 150 -147 125 -171 q 214 -122 175 -122 q 278 -147 253 -122 q 303 -210 303 -171 q 278 -274 303 -249 q 214 -299 253 -299 z "},"ś":{"ha":581,"x_min":57,"x_max":526,"o":"m 163 86 l 135 0 l 57 0 l 57 215 l 176 215 q 213 109 176 142 q 300 76 250 76 q 371 97 338 76 q 404 161 404 117 q 379 219 404 197 q 317 257 354 240 q 238 290 281 274 q 158 333 194 307 q 96 401 121 360 q 71 507 71 442 q 88 599 71 561 q 133 662 106 638 q 195 697 161 686 q 263 708 229 708 q 308 703 286 708 q 349 685 331 697 q 381 653 368 672 q 397 607 393 633 l 403 607 l 431 694 l 508 694 l 508 478 l 390 478 q 358 581 389 543 q 275 618 328 618 q 215 596 238 618 q 192 536 192 574 q 217 475 192 497 q 278 435 242 453 q 359 401 315 418 q 440 359 403 385 q 501 294 476 333 q 526 190 526 254 q 508 99 526 138 q 462 35 490 60 q 397 -2 433 10 q 322 -14 360 -14 q 272 -8 297 -14 q 225 10 246 -3 q 189 41 204 22 q 168 86 174 60 l 163 86 m 314 1000 l 457 1000 l 322 785 l 238 785 l 314 1000 z "},"ŝ":{"ha":581,"x_min":57,"x_max":538,"o":"m 163 86 l 135 0 l 57 0 l 57 215 l 176 215 q 213 109 176 142 q 300 76 250 76 q 371 97 338 76 q 404 161 404 117 q 379 219 404 197 q 317 257 354 240 q 238 290 281 274 q 158 333 194 307 q 96 401 121 360 q 71 507 71 442 q 88 599 71 561 q 133 662 106 638 q 195 697 161 686 q 263 708 229 708 q 308 703 286 708 q 349 685 331 697 q 381 653 368 672 q 397 607 393 633 l 403 607 l 431 694 l 508 694 l 508 478 l 390 478 q 358 581 389 543 q 275 618 328 618 q 215 596 238 618 q 192 536 192 574 q 217 475 192 497 q 278 435 242 453 q 359 401 315 418 q 440 359 403 385 q 501 294 476 333 q 526 190 526 254 q 508 99 526 138 q 462 35 490 60 q 397 -2 433 10 q 322 -14 360 -14 q 272 -8 297 -14 q 225 10 246 -3 q 189 41 204 22 q 168 86 174 60 l 163 86 m 538 785 l 429 785 l 317 899 l 196 785 l 88 785 l 240 986 l 399 986 l 538 785 z "},"š":{"ha":581,"x_min":57,"x_max":540,"o":"m 163 86 l 135 0 l 57 0 l 57 215 l 176 215 q 213 109 176 142 q 300 76 250 76 q 371 97 338 76 q 404 161 404 117 q 379 219 404 197 q 317 257 354 240 q 238 290 281 274 q 158 333 194 307 q 96 401 121 360 q 71 507 71 442 q 88 599 71 561 q 133 662 106 638 q 195 697 161 686 q 263 708 229 708 q 308 703 286 708 q 349 685 331 697 q 381 653 368 672 q 397 607 393 633 l 403 607 l 431 694 l 508 694 l 508 478 l 390 478 q 358 581 389 543 q 275 618 328 618 q 215 596 238 618 q 192 536 192 574 q 217 475 192 497 q 278 435 242 453 q 359 401 315 418 q 440 359 403 385 q 501 294 476 333 q 526 190 526 254 q 508 99 526 138 q 462 35 490 60 q 397 -2 433 10 q 322 -14 360 -14 q 272 -8 297 -14 q 225 10 246 -3 q 189 41 204 22 q 168 86 174 60 l 163 86 m 388 785 l 229 785 l 63 986 l 171 986 l 306 872 l 432 986 l 540 986 l 388 785 z "},"ș":{"ha":581,"x_min":57,"x_max":526,"o":"m 163 86 l 135 0 l 57 0 l 57 215 l 176 215 q 213 109 176 142 q 300 76 250 76 q 371 97 338 76 q 404 161 404 117 q 379 219 404 197 q 317 257 354 240 q 238 290 281 274 q 158 333 194 307 q 96 401 121 360 q 71 507 71 442 q 88 599 71 561 q 133 662 106 638 q 195 697 161 686 q 263 708 229 708 q 308 703 286 708 q 349 685 331 697 q 381 653 368 672 q 397 607 393 633 l 403 607 l 431 694 l 508 694 l 508 478 l 390 478 q 358 581 389 543 q 275 618 328 618 q 215 596 238 618 q 192 536 192 574 q 217 475 192 497 q 278 435 242 453 q 359 401 315 418 q 440 359 403 385 q 501 294 476 333 q 526 190 526 254 q 508 99 526 138 q 462 35 490 60 q 397 -2 433 10 q 322 -14 360 -14 q 272 -8 297 -14 q 225 10 246 -3 q 189 41 204 22 q 168 86 174 60 l 163 86 m 229 -60 l 367 -60 l 367 -186 l 336 -299 l 257 -299 l 274 -186 l 229 -186 l 229 -60 z "},"ş":{"ha":581,"x_min":57,"x_max":526,"o":"m 200 -244 q 308 -224 275 -244 q 340 -175 340 -203 q 297 -140 340 -140 q 256 -154 274 -140 l 196 -154 l 258 -4 q 201 28 226 6 q 168 86 175 50 l 163 86 l 135 0 l 57 0 l 57 215 l 176 215 q 213 109 176 142 q 300 76 250 76 q 371 97 338 76 q 404 161 404 117 q 379 219 404 197 q 317 257 354 240 q 238 290 281 274 q 158 333 194 307 q 96 401 121 360 q 71 507 71 442 q 88 599 71 561 q 133 662 106 638 q 195 697 161 686 q 263 708 229 708 q 308 703 286 708 q 349 685 331 697 q 381 653 368 672 q 397 607 393 633 l 403 607 l 431 694 l 508 694 l 508 478 l 390 478 q 358 581 389 543 q 275 618 328 618 q 215 596 238 618 q 192 536 192 574 q 217 475 192 497 q 278 435 242 453 q 359 401 315 418 q 440 359 403 385 q 501 294 476 333 q 526 190 526 254 q 509 99 526 138 q 463 36 492 61 q 399 -1 435 11 q 325 -14 363 -14 l 300 -72 q 333 -67 315 -68 q 361 -65 351 -65 q 435 -87 407 -65 q 463 -158 463 -110 q 398 -262 463 -226 q 186 -299 333 -299 l 200 -244 z "},"ṣ":{"ha":581,"x_min":57,"x_max":526,"o":"m 163 86 l 135 0 l 57 0 l 57 215 l 176 215 q 213 109 176 142 q 300 76 250 76 q 371 97 338 76 q 404 161 404 117 q 379 219 404 197 q 317 257 354 240 q 238 290 281 274 q 158 333 194 307 q 96 401 121 360 q 71 507 71 442 q 88 599 71 561 q 133 662 106 638 q 195 697 161 686 q 263 708 229 708 q 308 703 286 708 q 349 685 331 697 q 381 653 368 672 q 397 607 393 633 l 403 607 l 431 694 l 508 694 l 508 478 l 390 478 q 358 581 389 543 q 275 618 328 618 q 215 596 238 618 q 192 536 192 574 q 217 475 192 497 q 278 435 242 453 q 359 401 315 418 q 440 359 403 385 q 501 294 476 333 q 526 190 526 254 q 508 99 526 138 q 462 35 490 60 q 397 -2 433 10 q 322 -14 360 -14 q 272 -8 297 -14 q 225 10 246 -3 q 189 41 204 22 q 168 86 174 60 l 163 86 m 306 -299 q 242 -274 267 -299 q 217 -210 217 -249 q 242 -147 217 -171 q 306 -122 267 -122 q 369 -147 344 -122 q 394 -210 394 -171 q 369 -274 394 -249 q 306 -299 344 -299 z "},"ŧ":{"ha":443,"x_min":21,"x_max":435,"o":"m 26 458 l 125 458 l 125 593 l 21 593 l 21 667 l 125 694 l 153 876 l 257 876 l 257 694 l 388 694 l 388 593 l 257 593 l 257 458 l 388 458 l 388 371 l 257 371 l 257 215 q 272 122 257 151 q 322 93 288 93 q 361 97 338 93 q 406 108 385 101 l 435 31 q 374 -1 414 11 q 292 -14 335 -14 q 165 41 204 -14 q 125 215 125 96 l 125 371 l 26 371 l 26 458 z "},"ť":{"ha":438,"x_min":17,"x_max":460,"o":"m 17 667 l 121 694 l 149 876 l 253 876 l 253 694 l 383 694 l 383 593 l 253 593 l 253 215 q 268 122 253 151 q 318 93 283 93 q 357 97 333 93 q 401 108 381 101 l 431 31 q 370 -1 410 11 q 288 -14 331 -14 q 160 41 200 -14 q 121 215 121 96 l 121 593 l 17 593 l 17 667 m 344 778 q 382 861 374 819 q 331 882 351 861 q 311 935 311 903 q 332 988 311 967 q 385 1008 353 1008 q 436 990 413 1008 q 460 931 460 971 q 455 896 460 915 q 442 856 450 876 q 425 814 435 835 q 404 778 415 793 l 344 778 z "},"ț":{"ha":438,"x_min":17,"x_max":431,"o":"m 17 667 l 121 694 l 149 876 l 253 876 l 253 694 l 383 694 l 383 593 l 253 593 l 253 215 q 268 122 253 151 q 318 93 283 93 q 357 97 333 93 q 401 108 381 101 l 431 31 q 370 -1 410 11 q 288 -14 331 -14 q 160 41 200 -14 q 121 215 121 96 l 121 593 l 17 593 l 17 667 m 183 -60 l 321 -60 l 321 -186 l 290 -299 l 211 -299 l 228 -186 l 183 -186 l 183 -60 z "},"ţ":{"ha":438,"x_min":17,"x_max":440,"o":"m 178 -244 q 285 -224 253 -244 q 318 -175 318 -203 q 275 -140 318 -140 q 233 -154 251 -140 l 174 -154 l 235 -8 q 148 61 175 7 q 121 215 121 115 l 121 593 l 17 593 l 17 667 l 121 694 l 149 876 l 253 876 l 253 694 l 383 694 l 383 593 l 253 593 l 253 215 q 268 122 253 151 q 318 93 283 93 q 357 97 333 93 q 401 108 381 101 l 431 31 q 376 0 411 11 q 303 -14 342 -11 l 278 -72 q 311 -67 293 -68 q 339 -65 329 -65 q 413 -87 385 -65 q 440 -158 440 -110 q 376 -262 440 -226 q 164 -299 311 -299 l 178 -244 z "},"ṭ":{"ha":438,"x_min":17,"x_max":431,"o":"m 17 667 l 121 694 l 149 876 l 253 876 l 253 694 l 383 694 l 383 593 l 253 593 l 253 215 q 268 122 253 151 q 318 93 283 93 q 357 97 333 93 q 401 108 381 101 l 431 31 q 370 -1 410 11 q 288 -14 331 -14 q 160 41 200 -14 q 121 215 121 96 l 121 593 l 17 593 l 17 667 m 285 -299 q 221 -274 246 -299 q 196 -210 196 -249 q 221 -147 196 -171 q 285 -122 246 -122 q 349 -147 324 -122 q 374 -210 374 -171 q 349 -274 374 -249 q 285 -299 324 -299 z "},"ù":{"ha":763,"x_min":21,"x_max":744,"o":"m 318 -14 q 222 2 263 -14 q 156 46 182 18 q 117 110 129 74 q 104 189 104 147 l 104 583 l 21 611 l 21 694 l 238 694 l 238 281 q 242 199 238 236 q 259 137 246 163 q 296 97 272 111 q 357 83 319 83 q 426 99 397 83 q 472 140 454 114 q 499 197 490 165 q 507 263 507 229 l 507 583 l 382 611 l 382 694 l 639 694 l 639 111 l 744 83 l 744 0 l 535 0 l 507 115 q 443 18 493 50 q 318 -14 393 -14 m 411 785 l 326 785 l 192 1000 l 335 1000 l 411 785 z "},"ú":{"ha":763,"x_min":21,"x_max":744,"o":"m 318 -14 q 222 2 263 -14 q 156 46 182 18 q 117 110 129 74 q 104 189 104 147 l 104 583 l 21 611 l 21 694 l 238 694 l 238 281 q 242 199 238 236 q 259 137 246 163 q 296 97 272 111 q 357 83 319 83 q 426 99 397 83 q 472 140 454 114 q 499 197 490 165 q 507 263 507 229 l 507 583 l 382 611 l 382 694 l 639 694 l 639 111 l 744 83 l 744 0 l 535 0 l 507 115 q 443 18 493 50 q 318 -14 393 -14 m 388 1000 l 531 1000 l 396 785 l 311 785 l 388 1000 z "},"û":{"ha":763,"x_min":21,"x_max":744,"o":"m 318 -14 q 222 2 263 -14 q 156 46 182 18 q 117 110 129 74 q 104 189 104 147 l 104 583 l 21 611 l 21 694 l 238 694 l 238 281 q 242 199 238 236 q 259 137 246 163 q 296 97 272 111 q 357 83 319 83 q 426 99 397 83 q 472 140 454 114 q 499 197 490 165 q 507 263 507 229 l 507 583 l 382 611 l 382 694 l 639 694 l 639 111 l 744 83 l 744 0 l 535 0 l 507 115 q 443 18 493 50 q 318 -14 393 -14 m 578 785 l 469 785 l 357 899 l 236 785 l 128 785 l 281 986 l 439 986 l 578 785 z "},"ü":{"ha":763,"x_min":21,"x_max":744,"o":"m 318 -14 q 222 2 263 -14 q 156 46 182 18 q 117 110 129 74 q 104 189 104 147 l 104 583 l 21 611 l 21 694 l 238 694 l 238 281 q 242 199 238 236 q 259 137 246 163 q 296 97 272 111 q 357 83 319 83 q 426 99 397 83 q 472 140 454 114 q 499 197 490 165 q 507 263 507 229 l 507 583 l 382 611 l 382 694 l 639 694 l 639 111 l 744 83 l 744 0 l 535 0 l 507 115 q 443 18 493 50 q 318 -14 393 -14 m 219 844 q 160 867 183 844 q 138 926 138 890 q 160 985 138 963 q 219 1008 183 1008 q 279 985 256 1008 q 303 926 303 963 q 279 867 303 890 q 219 844 256 844 m 506 844 q 447 867 469 844 q 424 926 424 890 q 447 985 424 963 q 506 1008 469 1008 q 565 985 542 1008 q 589 926 589 963 q 565 867 589 890 q 506 844 542 844 z "},"ũ":{"ha":763,"x_min":21,"x_max":744,"o":"m 318 -14 q 222 2 263 -14 q 156 46 182 18 q 117 110 129 74 q 104 189 104 147 l 104 583 l 21 611 l 21 694 l 238 694 l 238 281 q 242 199 238 236 q 259 137 246 163 q 296 97 272 111 q 357 83 319 83 q 426 99 397 83 q 472 140 454 114 q 499 197 490 165 q 507 263 507 229 l 507 583 l 382 611 l 382 694 l 639 694 l 639 111 l 744 83 l 744 0 l 535 0 l 507 115 q 443 18 493 50 q 318 -14 393 -14 m 629 963 q 619 891 629 925 q 590 832 610 857 q 541 792 569 807 q 475 778 513 778 q 406 792 435 778 q 354 824 378 807 q 310 855 331 840 q 268 869 290 869 q 245 865 257 869 q 222 852 233 861 q 204 828 211 843 q 197 792 197 813 l 113 792 q 121 855 113 824 q 147 911 129 886 q 194 951 165 936 q 263 967 222 967 q 331 952 304 967 q 380 921 358 938 q 421 890 401 904 q 467 875 440 875 q 522 899 499 875 q 546 963 546 922 l 629 963 z "},"ū":{"ha":763,"x_min":21,"x_max":744,"o":"m 318 -14 q 222 2 263 -14 q 156 46 182 18 q 117 110 129 74 q 104 189 104 147 l 104 583 l 21 611 l 21 694 l 238 694 l 238 281 q 242 199 238 236 q 259 137 246 163 q 296 97 272 111 q 357 83 319 83 q 426 99 397 83 q 472 140 454 114 q 499 197 490 165 q 507 263 507 229 l 507 583 l 382 611 l 382 694 l 639 694 l 639 111 l 744 83 l 744 0 l 535 0 l 507 115 q 443 18 493 50 q 318 -14 393 -14 m 181 942 l 561 942 l 561 854 l 181 854 l 181 942 z "},"ŭ":{"ha":763,"x_min":21,"x_max":744,"o":"m 318 -14 q 222 2 263 -14 q 156 46 182 18 q 117 110 129 74 q 104 189 104 147 l 104 583 l 21 611 l 21 694 l 238 694 l 238 281 q 242 199 238 236 q 259 137 246 163 q 296 97 272 111 q 357 83 319 83 q 426 99 397 83 q 472 140 454 114 q 499 197 490 165 q 507 263 507 229 l 507 583 l 382 611 l 382 694 l 639 694 l 639 111 l 744 83 l 744 0 l 535 0 l 507 115 q 443 18 493 50 q 318 -14 393 -14 m 578 965 q 570 895 578 928 q 540 838 563 863 q 477 799 518 813 q 371 785 436 785 q 266 799 306 785 q 204 838 226 813 q 174 895 182 863 q 167 965 167 928 l 275 965 q 297 895 275 928 q 374 863 319 863 q 449 895 428 863 q 471 965 471 928 l 578 965 z "},"ů":{"ha":763,"x_min":21,"x_max":744,"o":"m 318 -14 q 222 2 263 -14 q 156 46 182 18 q 117 110 129 74 q 104 189 104 147 l 104 583 l 21 611 l 21 694 l 238 694 l 238 281 q 242 199 238 236 q 259 137 246 163 q 296 97 272 111 q 357 83 319 83 q 426 99 397 83 q 472 140 454 114 q 499 197 490 165 q 507 263 507 229 l 507 583 l 382 611 l 382 694 l 639 694 l 639 111 l 744 83 l 744 0 l 535 0 l 507 115 q 443 18 493 50 q 318 -14 393 -14 m 371 776 q 287 810 319 776 q 254 893 254 843 q 287 976 254 944 q 371 1008 319 1008 q 455 976 422 1008 q 488 893 488 944 q 455 810 488 843 q 371 776 422 776 m 371 843 q 406 857 392 843 q 419 892 419 871 q 406 927 419 914 q 371 940 392 940 q 336 927 350 940 q 322 892 322 914 q 336 857 322 871 q 371 843 350 843 z "},"ų":{"ha":763,"x_min":21,"x_max":744,"o":"m 318 -14 q 222 2 263 -14 q 156 46 182 18 q 117 110 129 74 q 104 189 104 147 l 104 583 l 21 611 l 21 694 l 238 694 l 238 281 q 242 199 238 236 q 259 137 246 163 q 296 97 272 111 q 357 83 319 83 q 426 99 397 83 q 472 140 454 114 q 499 197 490 165 q 507 263 507 229 l 507 583 l 382 611 l 382 694 l 639 694 l 639 111 l 744 83 l 744 0 l 617 0 q 565 -81 579 -42 q 550 -142 550 -119 q 564 -180 550 -164 q 610 -196 578 -196 q 653 -189 635 -196 q 672 -181 663 -185 l 672 -276 q 643 -285 658 -281 q 581 -292 615 -292 q 529 -285 554 -292 q 485 -262 504 -278 q 456 -222 467 -246 q 444 -164 444 -197 q 468 -78 444 -114 q 535 1 492 -42 l 507 115 q 443 18 493 50 q 318 -14 393 -14 z "},"ụ":{"ha":763,"x_min":21,"x_max":744,"o":"m 318 -14 q 222 2 263 -14 q 156 46 182 18 q 117 110 129 74 q 104 189 104 147 l 104 583 l 21 611 l 21 694 l 238 694 l 238 281 q 242 199 238 236 q 259 137 246 163 q 296 97 272 111 q 357 83 319 83 q 426 99 397 83 q 472 140 454 114 q 499 197 490 165 q 507 263 507 229 l 507 583 l 382 611 l 382 694 l 639 694 l 639 111 l 744 83 l 744 0 l 535 0 l 507 115 q 443 18 493 50 q 318 -14 393 -14 m 374 -299 q 310 -274 335 -299 q 285 -210 285 -249 q 310 -147 285 -171 q 374 -122 335 -122 q 438 -147 413 -122 q 463 -210 463 -171 q 438 -274 463 -249 q 374 -299 413 -299 z "},"ẁ":{"ha":1083,"x_min":17,"x_max":1067,"o":"m 542 585 l 426 0 l 222 0 l 92 583 l 17 611 l 17 694 l 325 694 l 325 604 l 222 583 l 319 89 l 447 694 l 636 694 l 764 89 l 861 583 l 760 604 l 760 694 l 1067 694 l 1067 611 l 992 583 l 861 0 l 656 0 l 542 585 m 588 785 l 503 785 l 368 1000 l 511 1000 l 588 785 z "},"ẃ":{"ha":1083,"x_min":17,"x_max":1067,"o":"m 542 585 l 426 0 l 222 0 l 92 583 l 17 611 l 17 694 l 325 694 l 325 604 l 222 583 l 319 89 l 447 694 l 636 694 l 764 89 l 861 583 l 760 604 l 760 694 l 1067 694 l 1067 611 l 992 583 l 861 0 l 656 0 l 542 585 m 581 1000 l 724 1000 l 589 785 l 504 785 l 581 1000 z "},"ẅ":{"ha":1083,"x_min":17,"x_max":1067,"o":"m 542 585 l 426 0 l 222 0 l 92 583 l 17 611 l 17 694 l 325 694 l 325 604 l 222 583 l 319 89 l 447 694 l 636 694 l 764 89 l 861 583 l 760 604 l 760 694 l 1067 694 l 1067 611 l 992 583 l 861 0 l 656 0 l 542 585 m 396 844 q 337 867 360 844 q 314 926 314 890 q 337 985 314 963 q 396 1008 360 1008 q 456 985 432 1008 q 479 926 479 963 q 456 867 479 890 q 396 844 432 844 m 682 844 q 623 867 646 844 q 600 926 600 890 q 623 985 600 963 q 682 1008 646 1008 q 742 985 718 1008 q 765 926 765 963 q 742 867 765 890 q 682 844 718 844 z "},"ŵ":{"ha":1083,"x_min":17,"x_max":1067,"o":"m 542 585 l 426 0 l 222 0 l 92 583 l 17 611 l 17 694 l 325 694 l 325 604 l 222 583 l 319 89 l 447 694 l 636 694 l 764 89 l 861 583 l 760 604 l 760 694 l 1067 694 l 1067 611 l 992 583 l 861 0 l 656 0 l 542 585 m 763 785 l 654 785 l 542 899 l 421 785 l 313 785 l 465 986 l 624 986 l 763 785 z "},"ý":{"ha":726,"x_min":11,"x_max":714,"o":"m 79 583 l 11 611 l 11 694 l 326 694 l 326 604 l 217 583 l 365 96 l 511 583 l 400 604 l 400 694 l 714 694 l 714 611 l 644 583 l 381 -187 l 486 -215 l 486 -299 l 128 -299 l 128 -211 l 260 -187 l 329 0 l 286 0 l 79 583 m 385 1000 l 528 1000 l 393 785 l 308 785 l 385 1000 z "},"ÿ":{"ha":726,"x_min":11,"x_max":714,"o":"m 79 583 l 11 611 l 11 694 l 326 694 l 326 604 l 217 583 l 365 96 l 511 583 l 400 604 l 400 694 l 714 694 l 714 611 l 644 583 l 381 -187 l 486 -215 l 486 -299 l 128 -299 l 128 -211 l 260 -187 l 329 0 l 286 0 l 79 583 m 219 844 q 160 867 183 844 q 138 926 138 890 q 160 985 138 963 q 219 1008 183 1008 q 279 985 256 1008 q 303 926 303 963 q 279 867 303 890 q 219 844 256 844 m 506 844 q 447 867 469 844 q 424 926 424 890 q 447 985 424 963 q 506 1008 469 1008 q 565 985 542 1008 q 589 926 589 963 q 565 867 589 890 q 506 844 542 844 z "},"ŷ":{"ha":726,"x_min":11,"x_max":714,"o":"m 79 583 l 11 611 l 11 694 l 326 694 l 326 604 l 217 583 l 365 96 l 511 583 l 400 604 l 400 694 l 714 694 l 714 611 l 644 583 l 381 -187 l 486 -215 l 486 -299 l 128 -299 l 128 -211 l 260 -187 l 329 0 l 286 0 l 79 583 m 586 785 l 478 785 l 365 899 l 244 785 l 136 785 l 289 986 l 447 986 l 586 785 z "},"ỳ":{"ha":726,"x_min":11,"x_max":714,"o":"m 79 583 l 11 611 l 11 694 l 326 694 l 326 604 l 217 583 l 365 96 l 511 583 l 400 604 l 400 694 l 714 694 l 714 611 l 644 583 l 381 -187 l 486 -215 l 486 -299 l 128 -299 l 128 -211 l 260 -187 l 329 0 l 286 0 l 79 583 m 411 785 l 326 785 l 192 1000 l 335 1000 l 411 785 z "},"ỹ":{"ha":726,"x_min":11,"x_max":714,"o":"m 79 583 l 11 611 l 11 694 l 326 694 l 326 604 l 217 583 l 365 96 l 511 583 l 400 604 l 400 694 l 714 694 l 714 611 l 644 583 l 381 -187 l 486 -215 l 486 -299 l 128 -299 l 128 -211 l 260 -187 l 329 0 l 286 0 l 79 583 m 625 963 q 615 891 625 925 q 585 832 606 857 q 537 792 565 807 q 471 778 508 778 q 402 792 431 778 q 350 824 374 807 q 306 855 326 840 q 264 869 286 869 q 241 865 253 869 q 218 852 229 861 q 200 828 207 843 q 193 792 193 813 l 108 792 q 117 855 108 824 q 143 911 125 886 q 190 951 161 936 q 258 967 218 967 q 327 952 300 967 q 376 921 354 938 q 417 890 397 904 q 463 875 436 875 q 518 899 494 875 q 542 963 542 922 l 625 963 z "},"ź":{"ha":636,"x_min":47,"x_max":581,"o":"m 75 694 l 564 694 l 564 576 l 190 104 l 488 104 l 503 229 l 581 229 l 581 0 l 47 0 l 47 118 l 424 590 l 167 590 l 153 486 l 75 486 l 75 694 m 300 1000 l 443 1000 l 308 785 l 224 785 l 300 1000 z "},"ż":{"ha":636,"x_min":47,"x_max":581,"o":"m 75 694 l 564 694 l 564 576 l 190 104 l 488 104 l 503 229 l 581 229 l 581 0 l 47 0 l 47 118 l 424 590 l 167 590 l 153 486 l 75 486 l 75 694 m 331 832 q 267 857 292 832 q 242 921 242 882 q 267 984 242 960 q 331 1008 292 1008 q 394 984 369 1008 q 419 921 419 960 q 394 857 419 882 q 331 832 369 832 z "},"ž":{"ha":636,"x_min":47,"x_max":581,"o":"m 75 694 l 564 694 l 564 576 l 190 104 l 488 104 l 503 229 l 581 229 l 581 0 l 47 0 l 47 118 l 424 590 l 167 590 l 153 486 l 75 486 l 75 694 m 399 785 l 240 785 l 74 986 l 182 986 l 317 872 l 443 986 l 551 986 l 399 785 z "},"ẓ":{"ha":636,"x_min":47,"x_max":581,"o":"m 75 694 l 564 694 l 564 576 l 190 104 l 488 104 l 503 229 l 581 229 l 581 0 l 47 0 l 47 118 l 424 590 l 167 590 l 153 486 l 75 486 l 75 694 m 307 -299 q 243 -274 268 -299 q 218 -210 218 -249 q 243 -147 218 -171 q 307 -122 268 -122 q 371 -147 346 -122 q 396 -210 396 -171 q 371 -274 396 -249 q 307 -299 346 -299 z "},"¤":{"ha":701,"x_min":60,"x_max":640,"o":"m 351 96 q 208 128 268 96 l 122 42 l 60 104 l 142 186 q 104 259 117 218 q 92 346 92 300 q 103 433 92 392 q 140 506 115 474 l 60 588 l 122 650 l 208 564 q 272 588 236 579 q 351 597 308 597 q 428 589 393 597 q 493 565 464 581 l 578 650 l 640 588 l 561 508 q 601 434 588 476 q 614 346 614 392 q 561 183 614 249 l 640 104 l 578 42 l 492 126 q 351 96 433 96 m 354 181 q 414 193 389 181 q 453 228 439 206 q 475 278 468 250 q 482 340 482 307 q 475 406 482 375 q 453 460 468 438 q 414 497 439 483 q 354 510 389 510 q 295 497 319 510 q 255 460 271 483 q 232 406 239 438 q 225 340 225 375 q 232 278 225 307 q 255 228 239 250 q 295 193 271 206 q 354 181 319 181 z "},"Ə":{"ha":843,"x_min":50,"x_max":778,"o":"m 421 1014 q 601 979 531 1014 q 710 878 671 944 q 763 713 749 811 q 778 488 778 615 q 766 288 778 379 q 716 128 754 196 q 606 23 678 61 q 417 -15 535 -15 q 220 26 293 -15 q 110 138 147 67 q 61 308 72 210 q 50 518 50 406 l 631 518 q 622 685 631 611 q 590 811 613 760 q 527 890 567 863 q 424 917 488 917 q 334 897 368 917 q 282 847 300 878 q 258 778 264 817 q 251 700 251 739 l 79 700 q 95 816 79 760 q 149 916 111 872 q 253 987 188 960 q 421 1014 319 1014 m 421 83 q 513 103 475 83 q 576 163 551 122 q 612 265 600 203 q 628 410 624 326 l 225 410 q 235 265 225 326 q 267 164 244 204 q 328 103 290 124 q 421 83 365 83 z "},"µ":{"ha":813,"x_min":39,"x_max":783,"o":"m 143 583 l 39 611 l 39 694 l 276 694 l 276 254 q 301 129 276 175 q 394 83 325 83 q 465 99 436 83 q 511 140 493 114 q 538 197 529 165 q 546 263 546 229 l 546 583 l 442 611 l 442 694 l 678 694 l 678 111 l 783 83 l 783 0 l 574 0 l 546 115 q 485 18 532 50 q 385 -14 439 -14 q 309 4 340 -14 q 263 49 278 22 l 276 -297 l 143 -297 l 143 583 z "},"μ":{"ha":781,"x_min":18,"x_max":763,"o":"m 122 583 l 18 611 l 18 694 l 256 694 l 256 254 q 280 129 256 175 q 374 83 304 83 q 444 99 415 83 q 490 140 472 114 q 517 197 508 165 q 525 263 525 229 l 525 583 l 421 611 l 421 694 l 657 694 l 657 111 l 763 83 l 763 0 l 553 0 l 525 115 q 465 18 511 50 q 364 -14 418 -14 q 288 4 319 -14 q 242 49 257 22 l 256 -297 l 122 -297 l 122 583 z "},"Ŋ":{"ha":1056,"x_min":46,"x_max":1026,"o":"m 571 -156 q 610 -191 586 -179 q 665 -203 635 -203 q 720 -187 700 -203 q 751 -147 740 -172 q 763 -89 761 -122 q 765 -19 765 -56 l 765 0 l 658 0 l 313 889 l 313 111 l 414 83 l 414 0 l 46 0 l 46 83 l 175 111 l 175 889 l 46 917 l 46 1000 l 414 1000 l 760 111 l 760 889 l 658 917 l 658 1000 l 1026 1000 l 1026 917 l 897 889 l 897 -14 q 887 -147 897 -90 q 850 -240 876 -203 q 779 -294 824 -276 q 667 -312 735 -312 q 572 -299 604 -312 q 510 -262 539 -285 l 571 -156 z "},"ŋ":{"ha":771,"x_min":42,"x_max":696,"o":"m 369 -156 q 409 -191 385 -179 q 464 -203 433 -203 q 519 -187 499 -203 q 549 -147 539 -172 q 560 -89 558 -122 q 563 -19 563 -56 l 563 426 q 558 497 563 464 q 541 556 554 531 q 503 596 528 581 q 436 611 478 611 q 366 593 396 611 q 317 546 336 575 q 288 482 297 517 q 279 414 279 447 l 279 111 l 383 83 l 383 0 l 43 0 l 43 83 l 147 111 l 147 583 l 42 611 l 42 694 l 251 694 l 279 583 q 348 677 293 646 q 479 708 403 708 q 592 683 550 708 q 658 618 635 658 q 688 527 681 578 q 696 425 696 476 l 696 -14 q 685 -147 696 -90 q 649 -240 675 -203 q 578 -294 622 -276 q 465 -312 533 -312 q 370 -299 403 -312 q 308 -262 338 -285 l 369 -156 z "},"þ":{"ha":699,"x_min":-24,"x_max":642,"o":"m -22 -218 l 82 -190 l 82 938 l -24 965 l -24 1049 l 214 1049 l 214 583 q 283 678 229 649 q 407 708 338 708 q 528 678 482 708 q 599 598 574 647 q 633 487 625 549 q 642 361 642 425 q 632 217 642 285 q 596 97 622 149 q 523 16 569 46 q 403 -14 476 -14 q 287 14 340 -14 q 214 110 233 42 l 214 -190 l 360 -212 l 360 -299 l -22 -299 l -22 -218 m 367 83 q 435 103 408 83 q 475 158 461 122 q 494 242 489 193 q 499 351 499 292 q 492 455 499 407 q 470 538 486 503 q 427 592 454 572 q 358 611 400 611 q 293 597 321 611 q 248 560 265 583 q 222 504 231 536 q 214 436 214 472 l 214 282 q 252 140 214 196 q 367 83 290 83 z "},"Þ":{"ha":828,"x_min":46,"x_max":786,"o":"m 313 889 l 313 803 l 442 803 q 615 779 547 803 q 720 716 682 756 q 772 624 758 676 q 786 514 786 571 q 769 392 786 449 q 713 294 753 336 q 608 229 674 253 q 442 206 542 206 l 313 206 l 313 111 l 469 83 l 469 0 l 46 0 l 46 83 l 175 111 l 175 889 l 46 917 l 46 1000 l 469 1000 l 469 917 l 313 889 m 419 310 q 536 322 492 310 q 605 359 581 335 q 637 419 629 383 q 644 500 644 454 q 636 586 644 549 q 603 649 628 624 q 534 686 578 674 q 419 699 490 699 l 313 699 l 313 310 l 419 310 z "},"ð":{"ha":731,"x_min":38,"x_max":753,"o":"m 301 793 l 460 828 q 356 922 419 881 q 196 1000 292 963 l 397 1000 q 501 933 456 968 q 579 854 546 899 l 732 889 l 753 793 l 628 765 q 671 458 671 653 q 661 295 671 379 q 617 142 651 211 q 519 29 583 74 q 344 -15 454 -15 q 198 13 257 -15 q 103 86 139 42 q 53 184 68 131 q 38 289 38 238 q 54 400 38 344 q 106 499 71 456 q 195 570 140 543 q 328 597 250 597 q 465 565 411 597 q 538 481 519 533 l 543 481 q 535 624 543 561 q 508 739 528 688 l 322 699 l 301 793 m 346 97 q 435 117 401 97 q 488 167 469 138 q 514 232 507 197 q 521 296 521 267 q 516 351 521 317 q 494 417 511 385 q 441 473 476 450 q 346 496 406 496 q 253 474 286 496 q 203 420 219 451 q 183 356 186 389 q 179 304 179 324 q 184 236 179 272 q 206 169 189 200 q 257 118 224 139 q 346 97 290 97 z "},"ƒ":{"ha":724,"x_min":-118,"x_max":710,"o":"m 99 694 l 243 694 l 246 742 q 263 873 250 814 q 303 974 275 932 q 377 1038 331 1015 q 496 1061 424 1061 q 594 1047 553 1061 q 660 1008 635 1032 q 698 953 686 985 q 710 888 710 922 q 710 864 710 876 q 708 840 710 851 l 588 840 q 588 858 588 850 q 589 876 589 867 q 567 937 589 915 q 500 958 544 958 q 410 910 438 958 q 378 756 382 863 l 375 694 l 561 694 l 557 593 l 369 593 l 344 7 q 329 -122 342 -64 q 289 -223 317 -181 q 215 -289 261 -265 q 96 -312 168 -312 q -2 -299 39 -312 q -69 -260 -43 -285 q -106 -205 -94 -236 q -118 -139 -118 -174 q -117 -115 -118 -128 q -115 -92 -117 -103 l 4 -92 q 3 -110 4 -101 q 3 -128 3 -118 q 92 -210 3 -210 q 181 -162 154 -210 q 213 -7 208 -114 l 238 593 l 94 593 l 99 694 z "},"ß":{"ha":768,"x_min":18,"x_max":738,"o":"m 479 588 q 499 524 479 550 q 547 474 518 497 q 608 426 575 450 q 670 371 642 403 q 718 294 699 339 q 738 185 738 250 q 680 37 738 89 q 501 -15 622 -15 q 452 -12 478 -15 q 403 -4 426 -10 q 359 10 379 1 q 328 32 339 19 l 350 126 q 408 91 374 100 q 471 82 442 82 q 565 110 539 82 q 592 179 592 139 q 572 251 592 222 q 524 305 553 281 q 463 353 496 329 q 401 406 429 376 q 353 478 372 436 q 333 581 333 519 q 353 678 333 640 q 397 744 374 715 q 441 802 421 774 q 461 872 461 831 q 440 934 461 910 q 368 958 419 958 q 278 911 303 958 q 254 756 254 864 l 254 0 l 18 0 l 18 83 l 122 111 l 122 742 q 132 872 122 813 q 168 973 142 931 q 241 1038 194 1015 q 361 1061 288 1061 q 476 1044 431 1061 q 548 999 521 1026 q 585 939 575 972 q 596 872 596 906 q 578 782 596 819 q 538 713 560 744 q 497 652 515 682 q 479 588 479 622 z "},"ﬀ":{"ha":851,"x_min":43,"x_max":907,"o":"m 43 694 l 147 694 l 147 757 q 205 960 147 888 q 382 1032 263 1032 q 492 1015 444 1032 q 569 976 539 999 q 635 1040 593 1018 q 740 1061 676 1061 q 828 1049 786 1061 q 907 1010 869 1038 l 874 933 q 817 950 849 944 q 760 956 786 956 q 715 948 733 956 q 684 919 696 940 q 667 863 672 899 q 661 769 661 826 l 661 694 l 806 694 l 806 593 l 661 593 l 661 111 l 806 92 l 806 0 l 439 0 l 439 83 l 529 111 l 529 593 l 279 593 l 279 111 l 396 83 l 396 0 l 43 0 l 43 83 l 147 111 l 147 593 l 43 593 l 43 694 m 529 769 q 538 885 529 835 q 471 917 503 908 q 407 926 439 926 q 356 919 379 926 q 315 892 332 911 q 289 840 299 874 q 279 757 279 807 l 279 694 l 529 694 l 529 769 z "},"ﬁ":{"ha":783,"x_min":43,"x_max":765,"o":"m 43 694 l 147 694 l 147 742 q 160 872 147 813 q 205 973 174 931 q 290 1038 236 1015 q 422 1061 343 1061 q 531 1046 488 1061 q 599 1005 574 1031 q 634 945 624 979 q 644 874 644 911 q 644 855 644 861 q 643 840 643 849 l 540 840 q 511 934 540 897 q 411 971 482 971 q 345 957 371 971 q 305 916 319 943 q 285 849 290 889 q 279 756 279 808 l 279 694 l 661 694 l 661 111 l 765 83 l 765 0 l 442 0 l 442 83 l 529 111 l 529 593 l 279 593 l 279 111 l 382 83 l 382 0 l 43 0 l 43 83 l 147 111 l 147 593 l 43 593 l 43 694 z "},"ﬂ":{"ha":783,"x_min":43,"x_max":765,"o":"m 661 111 l 765 83 l 765 0 l 456 0 l 456 83 l 529 111 l 529 949 q 492 960 513 956 q 446 965 471 965 q 315 914 350 965 q 279 756 279 863 l 279 694 l 424 694 l 424 593 l 279 593 l 279 111 l 396 83 l 396 0 l 43 0 l 43 83 l 147 111 l 147 593 l 43 593 l 43 694 l 147 694 l 147 742 q 159 871 147 813 q 203 972 171 929 q 292 1038 236 1014 q 439 1061 349 1061 q 576 1042 524 1061 q 661 990 629 1022 l 661 111 z "},"ﬃ":{"ha":1165,"x_min":43,"x_max":1147,"o":"m 43 694 l 147 694 l 147 757 q 205 960 147 888 q 382 1032 263 1032 q 503 1011 451 1032 q 582 965 554 990 q 667 1036 614 1011 q 804 1061 721 1061 q 913 1046 869 1061 q 981 1005 956 1031 q 1016 945 1006 979 q 1026 874 1026 911 q 1026 855 1026 861 q 1025 840 1025 849 l 922 840 q 893 934 922 897 q 793 971 864 971 q 727 957 753 971 q 687 916 701 943 q 667 849 672 889 q 661 756 661 808 l 661 694 l 1043 694 l 1043 111 l 1147 83 l 1147 0 l 824 0 l 824 83 l 911 111 l 911 593 l 661 593 l 661 111 l 764 83 l 764 0 l 439 0 l 439 83 l 529 111 l 529 593 l 279 593 l 279 111 l 382 83 l 382 0 l 43 0 l 43 83 l 147 111 l 147 593 l 43 593 l 43 694 m 529 694 l 529 742 q 533 815 529 781 q 544 881 536 850 q 474 917 508 907 q 407 926 439 926 q 356 919 379 926 q 315 892 332 911 q 289 840 299 874 q 279 757 279 807 l 279 694 l 529 694 z "},"ﬄ":{"ha":1165,"x_min":43,"x_max":1147,"o":"m 838 83 l 911 111 l 911 949 q 874 960 894 956 q 828 965 853 965 q 697 914 732 965 q 661 756 661 863 l 661 694 l 806 694 l 806 593 l 661 593 l 661 111 l 778 83 l 778 0 l 425 0 l 425 83 l 529 111 l 529 593 l 279 593 l 279 111 l 382 83 l 382 0 l 43 0 l 43 83 l 147 111 l 147 593 l 43 593 l 43 694 l 147 694 l 147 757 q 205 960 147 888 q 382 1032 263 1032 q 503 1011 451 1032 q 582 967 554 990 q 671 1036 614 1011 q 821 1061 728 1061 q 958 1042 906 1061 q 1043 990 1011 1022 l 1043 111 l 1147 83 l 1147 0 l 838 0 l 838 83 m 529 694 l 529 742 q 543 882 529 822 q 473 917 507 907 q 407 926 439 926 q 356 919 379 926 q 315 892 332 911 q 289 840 299 874 q 279 757 279 807 l 279 694 l 529 694 z "},"Ĳ":{"ha":1136,"x_min":46,"x_max":1031,"o":"m 442 917 l 313 889 l 313 111 l 442 83 l 442 0 l 46 0 l 46 83 l 175 111 l 175 889 l 46 917 l 46 1000 l 442 1000 l 442 917 m 768 -14 q 648 1 697 -14 q 568 47 599 17 q 524 124 538 78 q 511 231 511 169 q 512 256 511 243 q 514 283 513 269 l 631 283 q 663 131 631 179 q 763 83 696 83 q 866 136 839 83 q 893 286 893 189 l 893 889 l 692 917 l 692 1000 l 1031 1000 l 1031 292 q 968 58 1031 131 q 768 -14 906 -14 z "},"ĳ":{"ha":736,"x_min":39,"x_max":672,"o":"m 42 83 l 143 111 l 143 592 l 39 619 l 39 694 l 275 694 l 275 111 l 379 83 l 379 0 l 42 0 l 42 83 m 204 832 q 140 857 165 832 q 115 921 115 882 q 140 984 115 960 q 204 1008 165 1008 q 268 984 243 1008 q 293 921 293 960 q 268 857 293 882 q 204 832 243 832 m 651 -21 q 606 -237 651 -161 q 440 -312 560 -312 q 353 -301 394 -312 q 274 -261 311 -289 l 307 -185 q 363 -201 332 -196 q 421 -207 394 -207 q 466 -199 447 -207 q 497 -171 485 -192 q 514 -114 508 -150 q 519 -21 519 -78 l 519 583 l 415 611 l 415 694 l 651 694 l 651 -21 m 583 832 q 519 857 544 832 q 494 921 494 882 q 519 984 494 960 q 583 1008 544 1008 q 647 984 622 1008 q 672 921 672 960 q 647 857 672 882 q 583 832 622 832 z "},"Ǳ":{"ha":1725,"x_min":46,"x_max":1664,"o":"m 313 896 l 313 104 l 468 104 q 605 136 556 104 q 678 223 654 168 q 708 351 703 278 q 713 510 713 425 q 705 670 713 599 q 671 792 697 742 q 593 869 644 842 q 453 896 542 896 l 313 896 m 447 1000 q 655 965 575 1000 q 780 867 735 931 q 841 713 825 803 q 857 513 857 622 q 843 314 857 407 q 788 151 829 221 q 668 40 746 81 q 463 0 590 0 l 46 0 l 46 83 l 175 111 l 175 889 l 46 917 l 46 1000 l 447 1000 m 999 1000 l 1647 1000 l 1647 882 l 1131 104 l 1535 104 l 1554 339 l 1664 339 l 1664 0 l 971 0 l 971 118 l 1492 896 l 1126 896 l 1108 688 l 999 688 l 999 1000 z "},"ǲ":{"ha":1557,"x_min":46,"x_max":1501,"o":"m 313 896 l 313 104 l 468 104 q 605 136 556 104 q 678 223 654 168 q 708 351 703 278 q 713 510 713 425 q 705 670 713 599 q 671 792 697 742 q 593 869 644 842 q 453 896 542 896 l 313 896 m 447 1000 q 655 965 575 1000 q 780 867 735 931 q 841 713 825 803 q 857 513 857 622 q 843 314 857 407 q 788 151 829 221 q 668 40 746 81 q 463 0 590 0 l 46 0 l 46 83 l 175 111 l 175 889 l 46 917 l 46 1000 l 447 1000 m 996 694 l 1485 694 l 1485 576 l 1111 104 l 1408 104 l 1424 229 l 1501 229 l 1501 0 l 968 0 l 968 118 l 1344 590 l 1088 590 l 1074 486 l 996 486 l 996 694 z "},"ǳ":{"ha":1375,"x_min":57,"x_max":1319,"o":"m 485 938 l 365 965 l 365 1049 l 617 1049 l 617 111 l 721 83 l 721 0 l 513 0 l 485 100 q 419 17 465 47 q 296 -14 374 -14 q 181 15 226 -14 q 108 92 135 43 q 69 206 81 140 q 57 347 57 272 q 68 488 57 422 q 107 603 79 554 q 180 680 135 651 q 294 708 225 708 q 420 677 371 708 q 485 585 469 646 l 485 938 m 329 611 q 264 589 289 611 q 224 531 239 567 q 204 446 210 494 q 199 346 199 397 q 204 246 199 293 q 224 163 210 199 q 264 105 239 126 q 329 83 289 83 q 397 99 368 83 q 446 140 426 114 q 475 199 465 167 q 485 268 485 232 l 485 439 q 446 560 485 510 q 329 611 407 611 m 814 694 l 1303 694 l 1303 576 l 929 104 l 1226 104 l 1242 229 l 1319 229 l 1319 0 l 786 0 l 786 118 l 1163 590 l 906 590 l 892 486 l 814 486 l 814 694 z "},"…":{"ha":863,"x_min":74,"x_max":789,"o":"m 74 142 l 225 142 l 225 0 l 74 0 l 74 142 m 356 142 l 507 142 l 507 0 l 356 0 l 356 142 m 638 142 l 789 142 l 789 0 l 638 0 l 638 142 z "},"Ǆ":{"ha":1725,"x_min":46,"x_max":1664,"o":"m 313 896 l 313 104 l 468 104 q 605 136 556 104 q 678 223 654 168 q 708 351 703 278 q 713 510 713 425 q 705 670 713 599 q 671 792 697 742 q 593 869 644 842 q 453 896 542 896 l 313 896 m 447 1000 q 655 965 575 1000 q 780 867 735 931 q 841 713 825 803 q 857 513 857 622 q 843 314 857 407 q 788 151 829 221 q 668 40 746 81 q 463 0 590 0 l 46 0 l 46 83 l 175 111 l 175 889 l 46 917 l 46 1000 l 447 1000 m 999 1000 l 1647 1000 l 1647 882 l 1131 104 l 1535 104 l 1554 339 l 1664 339 l 1664 0 l 971 0 l 971 118 l 1492 896 l 1126 896 l 1108 688 l 999 688 l 999 1000 m 1410 1099 l 1239 1099 l 1093 1272 l 1206 1272 l 1324 1171 l 1443 1272 l 1556 1272 l 1410 1099 z "},"ǅ":{"ha":1557,"x_min":46,"x_max":1501,"o":"m 313 896 l 313 104 l 468 104 q 605 136 556 104 q 678 223 654 168 q 708 351 703 278 q 713 510 713 425 q 705 670 713 599 q 671 792 697 742 q 593 869 644 842 q 453 896 542 896 l 313 896 m 447 1000 q 655 965 575 1000 q 780 867 735 931 q 841 713 825 803 q 857 513 857 622 q 843 314 857 407 q 788 151 829 221 q 668 40 746 81 q 463 0 590 0 l 46 0 l 46 83 l 175 111 l 175 889 l 46 917 l 46 1000 l 447 1000 m 996 694 l 1485 694 l 1485 576 l 1111 104 l 1408 104 l 1424 229 l 1501 229 l 1501 0 l 968 0 l 968 118 l 1344 590 l 1088 590 l 1074 486 l 996 486 l 996 694 m 1319 785 l 1161 785 l 994 986 l 1103 986 l 1238 872 l 1364 986 l 1472 986 l 1319 785 z "},"ǆ":{"ha":1375,"x_min":57,"x_max":1319,"o":"m 485 938 l 365 965 l 365 1049 l 617 1049 l 617 111 l 721 83 l 721 0 l 513 0 l 485 100 q 419 17 465 47 q 296 -14 374 -14 q 181 15 226 -14 q 108 92 135 43 q 69 206 81 140 q 57 347 57 272 q 68 488 57 422 q 107 603 79 554 q 180 680 135 651 q 294 708 225 708 q 420 677 371 708 q 485 585 469 646 l 485 938 m 329 611 q 264 589 289 611 q 224 531 239 567 q 204 446 210 494 q 199 346 199 397 q 204 246 199 293 q 224 163 210 199 q 264 105 239 126 q 329 83 289 83 q 397 99 368 83 q 446 140 426 114 q 475 199 465 167 q 485 268 485 232 l 485 439 q 446 560 485 510 q 329 611 407 611 m 814 694 l 1303 694 l 1303 576 l 929 104 l 1226 104 l 1242 229 l 1319 229 l 1319 0 l 786 0 l 786 118 l 1163 590 l 906 590 l 892 486 l 814 486 l 814 694 m 1138 785 l 979 785 l 813 986 l 921 986 l 1056 872 l 1182 986 l 1290 986 l 1138 785 z "},"Ǉ":{"ha":1371,"x_min":46,"x_max":1265,"o":"m 575 326 l 685 326 l 685 0 l 46 0 l 46 83 l 175 111 l 175 889 l 46 917 l 46 1000 l 442 1000 l 442 917 l 313 889 l 313 104 l 556 104 l 575 326 m 1003 -14 q 883 1 932 -14 q 803 47 833 17 q 759 124 772 78 q 746 231 746 169 q 747 256 746 243 q 749 283 747 269 l 865 283 q 898 131 865 179 q 997 83 931 83 q 1101 136 1074 83 q 1128 286 1128 189 l 1128 889 l 926 917 l 926 1000 l 1265 1000 l 1265 292 q 1203 58 1265 131 q 1003 -14 1140 -14 z "},"ǈ":{"ha":1054,"x_min":46,"x_max":990,"o":"m 575 326 l 685 326 l 685 0 l 46 0 l 46 83 l 175 111 l 175 889 l 46 917 l 46 1000 l 442 1000 l 442 917 l 313 889 l 313 104 l 556 104 l 575 326 m 969 -21 q 924 -237 969 -161 q 758 -312 878 -312 q 671 -301 713 -312 q 592 -261 629 -289 l 625 -185 q 681 -201 650 -196 q 739 -207 713 -207 q 784 -199 765 -207 q 815 -171 803 -192 q 832 -114 826 -150 q 838 -21 838 -78 l 838 583 l 733 611 l 733 694 l 969 694 l 969 -21 m 901 832 q 838 857 863 832 q 813 921 813 882 q 838 984 813 960 q 901 1008 863 1008 q 965 984 940 1008 q 990 921 990 960 q 965 857 990 882 q 901 832 940 832 z "},"ǉ":{"ha":713,"x_min":15,"x_max":649,"o":"m 18 83 l 119 111 l 119 938 l 15 965 l 15 1049 l 251 1049 l 251 111 l 356 83 l 356 0 l 18 0 l 18 83 m 628 -21 q 582 -237 628 -161 q 417 -312 536 -312 q 329 -301 371 -312 q 250 -261 288 -289 l 283 -185 q 340 -201 308 -196 q 397 -207 371 -207 q 442 -199 424 -207 q 473 -171 461 -192 q 490 -114 485 -150 q 496 -21 496 -78 l 496 583 l 392 611 l 392 694 l 628 694 l 628 -21 m 560 832 q 496 857 521 832 q 471 921 471 882 q 496 984 471 960 q 560 1008 521 1008 q 624 984 599 1008 q 649 921 649 960 q 624 857 649 882 q 560 832 599 832 z "},"Ǌ":{"ha":1704,"x_min":46,"x_max":1599,"o":"m 760 111 l 760 889 l 658 917 l 658 1000 l 1026 1000 l 1026 917 l 897 889 l 897 0 l 658 0 l 313 889 l 313 111 l 414 83 l 414 0 l 46 0 l 46 83 l 175 111 l 175 889 l 46 917 l 46 1000 l 414 1000 l 760 111 m 1336 -14 q 1216 1 1265 -14 q 1136 47 1167 17 q 1092 124 1106 78 q 1079 231 1079 169 q 1080 256 1079 243 q 1082 283 1081 269 l 1199 283 q 1231 131 1199 179 q 1331 83 1264 83 q 1434 136 1407 83 q 1461 286 1461 189 l 1461 889 l 1260 917 l 1260 1000 l 1599 1000 l 1599 292 q 1536 58 1599 131 q 1336 -14 1474 -14 z "},"ǋ":{"ha":1394,"x_min":46,"x_max":1331,"o":"m 760 111 l 760 889 l 658 917 l 658 1000 l 1026 1000 l 1026 917 l 897 889 l 897 0 l 658 0 l 313 889 l 313 111 l 414 83 l 414 0 l 46 0 l 46 83 l 175 111 l 175 889 l 46 917 l 46 1000 l 414 1000 l 760 111 m 1310 -21 q 1264 -237 1310 -161 q 1099 -312 1218 -312 q 1011 -301 1053 -312 q 932 -261 969 -289 l 965 -185 q 1022 -201 990 -196 q 1079 -207 1053 -207 q 1124 -199 1106 -207 q 1155 -171 1143 -192 q 1172 -114 1167 -150 q 1178 -21 1178 -78 l 1178 583 l 1074 611 l 1074 694 l 1310 694 l 1310 -21 m 1242 832 q 1178 857 1203 832 q 1153 921 1153 882 q 1178 984 1153 960 q 1242 1008 1203 1008 q 1306 984 1281 1008 q 1331 921 1331 960 q 1306 857 1331 882 q 1242 832 1281 832 z "},"ǌ":{"ha":1153,"x_min":42,"x_max":1089,"o":"m 563 426 q 558 497 563 464 q 541 556 554 531 q 503 596 528 581 q 436 611 478 611 q 366 593 396 611 q 317 546 336 575 q 288 482 297 517 q 279 414 279 447 l 279 111 l 383 83 l 383 0 l 43 0 l 43 83 l 147 111 l 147 583 l 42 611 l 42 694 l 251 694 l 279 583 q 348 677 293 646 q 479 708 403 708 q 592 683 550 708 q 658 618 635 658 q 688 527 681 578 q 696 425 696 476 l 696 111 l 800 83 l 800 0 l 563 0 l 563 426 m 1068 -21 q 1022 -237 1068 -161 q 857 -312 976 -312 q 769 -301 811 -312 q 690 -261 728 -289 l 724 -185 q 780 -201 749 -196 q 838 -207 811 -207 q 883 -199 864 -207 q 913 -171 901 -192 q 931 -114 925 -150 q 936 -21 936 -78 l 936 583 l 832 611 l 832 694 l 1068 694 l 1068 -21 m 1000 832 q 936 857 961 832 q 911 921 911 882 q 936 984 911 960 q 1000 1008 961 1008 q 1064 984 1039 1008 q 1089 921 1089 960 q 1064 857 1089 882 q 1000 832 1039 832 z "},"Ä":{"ha":922,"x_min":-11,"x_max":933,"o":"m 364 1000 l 558 1000 l 831 111 l 933 83 l 933 0 l 568 0 l 568 83 l 692 111 l 624 342 l 299 342 l 231 111 l 356 83 l 356 0 l -11 0 l -11 83 l 92 111 l 364 1000 m 332 457 l 589 457 l 461 893 l 332 457 m 318 1099 q 259 1122 282 1099 q 236 1181 236 1144 q 259 1240 236 1217 q 318 1263 282 1263 q 378 1240 354 1263 q 401 1181 401 1217 q 378 1122 401 1144 q 318 1099 354 1099 m 604 1099 q 545 1122 568 1099 q 522 1181 522 1144 q 545 1240 522 1217 q 604 1263 568 1263 q 664 1240 640 1263 q 688 1181 688 1217 q 664 1122 688 1144 q 604 1099 640 1099 z "},"Á":{"ha":922,"x_min":-11,"x_max":933,"o":"m 364 1000 l 558 1000 l 831 111 l 933 83 l 933 0 l 568 0 l 568 83 l 692 111 l 624 342 l 299 342 l 231 111 l 356 83 l 356 0 l -11 0 l -11 83 l 92 111 l 364 1000 m 332 457 l 589 457 l 461 893 l 332 457 m 536 1272 l 707 1272 l 517 1099 l 404 1099 l 536 1272 z "},"À":{"ha":922,"x_min":-11,"x_max":933,"o":"m 364 1000 l 558 1000 l 831 111 l 933 83 l 933 0 l 568 0 l 568 83 l 692 111 l 624 342 l 299 342 l 231 111 l 356 83 l 356 0 l -11 0 l -11 83 l 92 111 l 364 1000 m 332 457 l 589 457 l 461 893 l 332 457 m 518 1099 l 406 1099 l 243 1272 l 414 1272 l 518 1099 z "},"Ã":{"ha":922,"x_min":-11,"x_max":933,"o":"m 364 1000 l 558 1000 l 831 111 l 933 83 l 933 0 l 568 0 l 568 83 l 692 111 l 624 342 l 299 342 l 231 111 l 356 83 l 356 0 l -11 0 l -11 83 l 92 111 l 364 1000 m 332 457 l 589 457 l 461 893 l 332 457 m 719 1283 q 710 1212 719 1246 q 680 1153 700 1178 q 631 1113 660 1128 q 565 1099 603 1099 q 497 1113 525 1099 q 444 1144 468 1128 q 401 1176 421 1161 q 358 1190 381 1190 q 335 1186 347 1190 q 313 1173 324 1182 q 294 1149 301 1164 q 288 1113 288 1133 l 203 1113 q 211 1176 203 1144 q 238 1232 219 1207 q 284 1272 256 1257 q 353 1288 313 1288 q 422 1273 394 1288 q 470 1242 449 1258 q 511 1210 492 1225 q 557 1196 531 1196 q 613 1219 589 1196 q 636 1283 636 1243 l 719 1283 z "},"Ă":{"ha":922,"x_min":-11,"x_max":933,"o":"m 364 1000 l 558 1000 l 831 111 l 933 83 l 933 0 l 568 0 l 568 83 l 692 111 l 624 342 l 299 342 l 231 111 l 356 83 l 356 0 l -11 0 l -11 83 l 92 111 l 364 1000 m 332 457 l 589 457 l 461 893 l 332 457 m 681 1279 q 671 1209 681 1242 q 636 1151 661 1176 q 568 1113 611 1126 q 460 1099 525 1099 q 353 1113 394 1099 q 286 1151 311 1126 q 251 1209 261 1176 q 242 1279 242 1242 l 357 1279 q 383 1213 357 1242 q 463 1183 408 1183 q 542 1213 517 1183 q 567 1279 567 1242 l 681 1279 z "},"Å":{"ha":922,"x_min":-11,"x_max":933,"o":"m 364 1000 l 558 1000 l 831 111 l 933 83 l 933 0 l 568 0 l 568 83 l 692 111 l 624 342 l 299 342 l 231 111 l 356 83 l 356 0 l -11 0 l -11 83 l 92 111 l 364 1000 m 332 457 l 589 457 l 461 893 l 332 457 m 460 1099 q 389 1127 417 1099 q 361 1197 361 1156 q 389 1269 361 1242 q 460 1296 417 1296 q 532 1269 504 1296 q 560 1197 560 1242 q 532 1127 560 1156 q 460 1099 504 1099 m 460 1163 q 484 1172 475 1163 q 493 1197 493 1182 q 484 1221 493 1213 q 460 1229 475 1229 q 435 1221 444 1229 q 426 1197 426 1213 q 435 1172 426 1182 q 460 1163 444 1163 z "},"Ā":{"ha":922,"x_min":-11,"x_max":933,"o":"m 364 1000 l 558 1000 l 831 111 l 933 83 l 933 0 l 568 0 l 568 83 l 692 111 l 624 342 l 299 342 l 231 111 l 356 83 l 356 0 l -11 0 l -11 83 l 92 111 l 364 1000 m 332 457 l 589 457 l 461 893 l 332 457 m 271 1228 l 651 1228 l 651 1140 l 271 1140 l 271 1228 z "},"Â":{"ha":922,"x_min":-11,"x_max":933,"o":"m 364 1000 l 558 1000 l 831 111 l 933 83 l 933 0 l 568 0 l 568 83 l 692 111 l 624 342 l 299 342 l 231 111 l 356 83 l 356 0 l -11 0 l -11 83 l 92 111 l 364 1000 m 332 457 l 589 457 l 461 893 l 332 457 m 694 1099 l 582 1099 l 463 1199 l 344 1099 l 232 1099 l 378 1272 l 549 1272 l 694 1099 z "},"Ą":{"ha":922,"x_min":-11,"x_max":933,"o":"m 364 1000 l 558 1000 l 831 111 l 933 83 l 933 0 l 832 0 q 780 -81 794 -42 q 765 -142 765 -119 q 779 -180 765 -164 q 825 -196 793 -196 q 868 -189 850 -196 q 888 -181 878 -185 l 888 -276 q 858 -285 874 -281 q 796 -292 831 -292 q 744 -285 769 -292 q 701 -262 719 -278 q 671 -222 682 -246 q 660 -164 660 -197 q 683 -78 660 -114 q 749 0 707 -43 l 568 0 l 568 83 l 692 111 l 624 342 l 299 342 l 231 111 l 356 83 l 356 0 l -11 0 l -11 83 l 92 111 l 364 1000 m 332 457 l 589 457 l 461 893 l 332 457 z "},"Ǽ":{"ha":1242,"x_min":-12,"x_max":1174,"o":"m 854 1272 l 1025 1272 l 835 1099 l 722 1099 l 854 1272 m 692 111 l 642 349 l 329 349 l 260 111 l 413 90 l 413 0 l -12 0 l -12 83 l 113 111 l 375 911 l 264 924 l 264 1000 l 1164 1000 l 1164 694 l 1054 694 l 1036 896 l 656 896 l 726 564 l 1035 564 l 1035 449 l 756 449 l 832 104 l 1044 104 l 1064 326 l 1174 326 l 1174 0 l 549 0 l 549 83 l 692 111 m 363 464 l 610 464 l 519 896 l 507 896 l 363 464 z "},"Ç":{"ha":840,"x_min":65,"x_max":779,"o":"m 306 -244 q 413 -224 381 -244 q 446 -175 446 -203 q 403 -140 446 -140 q 361 -154 379 -140 l 301 -154 l 361 -11 q 210 43 268 0 q 120 156 153 86 q 76 317 88 225 q 65 521 65 410 q 76 713 65 622 q 124 870 88 803 q 231 976 161 938 q 415 1015 300 1015 q 491 1009 456 1015 q 555 987 526 1003 q 602 942 583 971 q 629 871 621 914 l 636 871 l 664 1000 l 774 1000 l 774 660 l 636 660 q 584 847 636 778 q 424 915 532 915 q 314 887 356 915 q 249 804 272 858 q 218 672 226 750 q 210 496 210 594 q 217 328 210 404 q 249 199 225 253 q 317 115 272 144 q 435 85 361 85 q 537 106 497 85 q 599 162 576 126 q 631 245 622 197 q 640 347 640 293 l 779 347 q 761 205 779 271 q 702 90 743 139 q 594 13 661 40 q 429 -15 526 -15 l 406 -72 q 439 -67 421 -68 q 467 -65 457 -65 q 540 -87 513 -65 q 568 -158 568 -110 q 503 -262 568 -226 q 292 -299 439 -299 l 306 -244 z "},"Ć":{"ha":839,"x_min":64,"x_max":778,"o":"m 422 915 q 313 887 354 915 q 248 804 271 858 q 217 672 225 750 q 208 496 208 594 q 216 328 208 404 q 247 199 224 253 q 315 115 271 144 q 433 85 360 85 q 535 106 496 85 q 598 162 575 126 q 630 245 621 197 q 639 347 639 293 l 778 347 q 760 205 778 271 q 701 90 742 139 q 592 13 660 40 q 428 -15 525 -15 q 242 24 313 -15 q 131 133 171 63 q 78 303 92 204 q 64 521 64 401 q 75 713 64 622 q 123 870 86 803 q 229 976 160 938 q 414 1015 299 1015 q 490 1009 454 1015 q 553 987 525 1003 q 601 942 582 971 q 628 871 619 914 l 635 871 l 663 1000 l 772 1000 l 772 660 l 635 660 q 583 847 635 778 q 422 915 531 915 m 489 1272 l 660 1272 l 469 1099 l 357 1099 l 489 1272 z "},"Ĉ":{"ha":839,"x_min":64,"x_max":778,"o":"m 422 915 q 313 887 354 915 q 248 804 271 858 q 217 672 225 750 q 208 496 208 594 q 216 328 208 404 q 247 199 224 253 q 315 115 271 144 q 433 85 360 85 q 535 106 496 85 q 598 162 575 126 q 630 245 621 197 q 639 347 639 293 l 778 347 q 760 205 778 271 q 701 90 742 139 q 592 13 660 40 q 428 -15 525 -15 q 242 24 313 -15 q 131 133 171 63 q 78 303 92 204 q 64 521 64 401 q 75 713 64 622 q 123 870 86 803 q 229 976 160 938 q 414 1015 299 1015 q 490 1009 454 1015 q 553 987 525 1003 q 601 942 582 971 q 628 871 619 914 l 635 871 l 663 1000 l 772 1000 l 772 660 l 635 660 q 583 847 635 778 q 422 915 531 915 m 661 1099 l 549 1099 l 429 1199 l 311 1099 l 199 1099 l 344 1272 l 515 1272 l 661 1099 z "},"Ċ":{"ha":839,"x_min":64,"x_max":778,"o":"m 422 915 q 313 887 354 915 q 248 804 271 858 q 217 672 225 750 q 208 496 208 594 q 216 328 208 404 q 247 199 224 253 q 315 115 271 144 q 433 85 360 85 q 535 106 496 85 q 598 162 575 126 q 630 245 621 197 q 639 347 639 293 l 778 347 q 760 205 778 271 q 701 90 742 139 q 592 13 660 40 q 428 -15 525 -15 q 242 24 313 -15 q 131 133 171 63 q 78 303 92 204 q 64 521 64 401 q 75 713 64 622 q 123 870 86 803 q 229 976 160 938 q 414 1015 299 1015 q 490 1009 454 1015 q 553 987 525 1003 q 601 942 582 971 q 628 871 619 914 l 635 871 l 663 1000 l 772 1000 l 772 660 l 635 660 q 583 847 635 778 q 422 915 531 915 m 411 1099 q 347 1124 372 1099 q 322 1188 322 1149 q 347 1251 322 1226 q 411 1275 372 1275 q 475 1251 450 1275 q 500 1188 500 1226 q 475 1124 500 1149 q 411 1099 450 1099 z "},"Č":{"ha":839,"x_min":64,"x_max":778,"o":"m 422 915 q 313 887 354 915 q 248 804 271 858 q 217 672 225 750 q 208 496 208 594 q 216 328 208 404 q 247 199 224 253 q 315 115 271 144 q 433 85 360 85 q 535 106 496 85 q 598 162 575 126 q 630 245 621 197 q 639 347 639 293 l 778 347 q 760 205 778 271 q 701 90 742 139 q 592 13 660 40 q 428 -15 525 -15 q 242 24 313 -15 q 131 133 171 63 q 78 303 92 204 q 64 521 64 401 q 75 713 64 622 q 123 870 86 803 q 229 976 160 938 q 414 1015 299 1015 q 490 1009 454 1015 q 553 987 525 1003 q 601 942 582 971 q 628 871 619 914 l 635 871 l 663 1000 l 772 1000 l 772 660 l 635 660 q 583 847 635 778 q 422 915 531 915 m 501 1099 l 331 1099 l 185 1272 l 297 1272 l 415 1171 l 535 1272 l 647 1272 l 501 1099 z "},"Ď":{"ha":921,"x_min":46,"x_max":857,"o":"m 313 896 l 313 104 l 468 104 q 605 136 556 104 q 678 223 654 168 q 708 351 703 278 q 713 510 713 425 q 705 670 713 599 q 671 792 697 742 q 593 869 644 842 q 453 896 542 896 l 313 896 m 447 1000 q 655 965 575 1000 q 780 867 735 931 q 841 713 825 803 q 857 513 857 622 q 843 314 857 407 q 788 151 829 221 q 668 40 746 81 q 463 0 590 0 l 46 0 l 46 83 l 175 111 l 175 889 l 46 917 l 46 1000 l 447 1000 m 504 1099 l 346 1099 l 179 1300 l 288 1300 l 422 1186 l 549 1300 l 657 1300 l 504 1099 z "},"Đ":{"ha":925,"x_min":50,"x_max":861,"o":"m 50 563 l 179 563 l 179 889 l 50 917 l 50 1000 l 451 1000 q 659 965 579 1000 q 784 867 739 931 q 845 713 829 803 q 861 513 861 622 q 847 314 861 407 q 792 151 833 221 q 672 40 750 81 q 467 0 594 0 l 50 0 l 50 83 l 179 111 l 179 475 l 50 475 l 50 563 m 317 896 l 317 563 l 472 563 l 472 475 l 317 475 l 317 104 l 472 104 q 609 136 560 104 q 683 223 658 168 q 712 351 707 278 q 717 510 717 425 q 709 670 717 599 q 675 792 701 742 q 597 869 649 842 q 457 896 546 896 l 317 896 z "},"Ḍ":{"ha":921,"x_min":46,"x_max":857,"o":"m 313 896 l 313 104 l 468 104 q 605 136 556 104 q 678 223 654 168 q 708 351 703 278 q 713 510 713 425 q 705 670 713 599 q 671 792 697 742 q 593 869 644 842 q 453 896 542 896 l 313 896 m 447 1000 q 655 965 575 1000 q 780 867 735 931 q 841 713 825 803 q 857 513 857 622 q 843 314 857 407 q 788 151 829 221 q 668 40 746 81 q 463 0 590 0 l 46 0 l 46 83 l 175 111 l 175 889 l 46 917 l 46 1000 l 447 1000 m 428 -299 q 364 -274 389 -299 q 339 -210 339 -249 q 364 -147 339 -171 q 428 -122 389 -122 q 492 -147 467 -122 q 517 -210 517 -171 q 492 -274 517 -249 q 428 -299 467 -299 z "},"Ð":{"ha":925,"x_min":50,"x_max":861,"o":"m 50 569 l 179 569 l 179 889 l 50 917 l 50 1000 l 451 1000 q 659 965 579 1000 q 784 867 739 931 q 845 713 829 803 q 861 513 861 622 q 847 314 861 407 q 792 151 833 221 q 672 40 750 81 q 467 0 594 0 l 50 0 l 50 83 l 179 111 l 179 468 l 50 468 l 50 569 m 317 896 l 317 569 l 486 569 l 486 468 l 317 468 l 317 104 l 472 104 q 609 136 560 104 q 683 223 658 168 q 712 351 707 278 q 717 510 717 425 q 709 670 717 599 q 675 792 701 742 q 597 869 649 842 q 457 896 546 896 l 317 896 z "},"Ę":{"ha":785,"x_min":46,"x_max":713,"o":"m 46 83 l 175 111 l 175 889 l 46 917 l 46 1000 l 713 1000 l 713 694 l 603 694 l 585 896 l 313 896 l 313 564 l 574 564 l 574 449 l 313 449 l 313 104 l 583 104 l 603 326 l 713 326 l 713 0 l 471 0 q 419 -81 433 -42 q 404 -142 404 -119 q 418 -180 404 -164 q 464 -196 432 -196 q 507 -189 489 -196 q 526 -181 517 -185 l 526 -276 q 497 -285 513 -281 q 435 -292 469 -292 q 383 -285 408 -292 q 340 -262 358 -278 q 310 -222 321 -246 q 299 -164 299 -197 q 322 -78 299 -114 q 388 0 346 -43 l 46 0 l 46 83 z "},"Ẹ":{"ha":785,"x_min":46,"x_max":713,"o":"m 46 83 l 175 111 l 175 889 l 46 917 l 46 1000 l 713 1000 l 713 694 l 603 694 l 585 896 l 313 896 l 313 564 l 574 564 l 574 449 l 313 449 l 313 104 l 583 104 l 603 326 l 713 326 l 713 0 l 46 0 l 46 83 m 413 -299 q 349 -274 374 -299 q 324 -210 324 -249 q 349 -147 324 -171 q 413 -122 374 -122 q 476 -147 451 -122 q 501 -210 501 -171 q 476 -274 501 -249 q 413 -299 451 -299 z "},"Ė":{"ha":785,"x_min":46,"x_max":713,"o":"m 46 83 l 175 111 l 175 889 l 46 917 l 46 1000 l 713 1000 l 713 694 l 603 694 l 585 896 l 313 896 l 313 564 l 574 564 l 574 449 l 313 449 l 313 104 l 583 104 l 603 326 l 713 326 l 713 0 l 46 0 l 46 83 m 414 1099 q 350 1124 375 1099 q 325 1188 325 1149 q 350 1251 325 1226 q 414 1275 375 1275 q 478 1251 453 1275 q 503 1188 503 1226 q 478 1124 503 1149 q 414 1099 453 1099 z "},"Ë":{"ha":785,"x_min":46,"x_max":713,"o":"m 46 83 l 175 111 l 175 889 l 46 917 l 46 1000 l 713 1000 l 713 694 l 603 694 l 585 896 l 313 896 l 313 564 l 574 564 l 574 449 l 313 449 l 313 104 l 583 104 l 603 326 l 713 326 l 713 0 l 46 0 l 46 83 m 269 1099 q 210 1122 233 1099 q 188 1181 188 1144 q 210 1240 188 1217 q 269 1263 233 1263 q 329 1240 306 1263 q 353 1181 353 1217 q 329 1122 353 1144 q 269 1099 306 1099 m 556 1099 q 497 1122 519 1099 q 474 1181 474 1144 q 497 1240 474 1217 q 556 1263 519 1263 q 615 1240 592 1263 q 639 1181 639 1217 q 615 1122 639 1144 q 556 1099 592 1099 z "},"É":{"ha":785,"x_min":46,"x_max":713,"o":"m 46 83 l 175 111 l 175 889 l 46 917 l 46 1000 l 713 1000 l 713 694 l 603 694 l 585 896 l 313 896 l 313 564 l 574 564 l 574 449 l 313 449 l 313 104 l 583 104 l 603 326 l 713 326 l 713 0 l 46 0 l 46 83 m 488 1272 l 658 1272 l 468 1099 l 356 1099 l 488 1272 z "},"È":{"ha":785,"x_min":46,"x_max":713,"o":"m 46 83 l 175 111 l 175 889 l 46 917 l 46 1000 l 713 1000 l 713 694 l 603 694 l 585 896 l 313 896 l 313 564 l 574 564 l 574 449 l 313 449 l 313 104 l 583 104 l 603 326 l 713 326 l 713 0 l 46 0 l 46 83 m 469 1099 l 357 1099 l 194 1272 l 365 1272 l 469 1099 z "},"Ẽ":{"ha":785,"x_min":46,"x_max":713,"o":"m 46 83 l 175 111 l 175 889 l 46 917 l 46 1000 l 713 1000 l 713 694 l 603 694 l 585 896 l 313 896 l 313 564 l 574 564 l 574 449 l 313 449 l 313 104 l 583 104 l 603 326 l 713 326 l 713 0 l 46 0 l 46 83 m 671 1283 q 661 1212 671 1246 q 631 1153 651 1178 q 583 1113 611 1128 q 517 1099 554 1099 q 448 1113 476 1099 q 396 1144 419 1128 q 352 1176 372 1161 q 310 1190 332 1190 q 287 1186 299 1190 q 264 1173 275 1182 q 246 1149 253 1164 q 239 1113 239 1133 l 154 1113 q 163 1176 154 1144 q 189 1232 171 1207 q 235 1272 207 1257 q 304 1288 264 1288 q 373 1273 346 1288 q 422 1242 400 1258 q 463 1210 443 1225 q 508 1196 482 1196 q 564 1219 540 1196 q 588 1283 588 1243 l 671 1283 z "},"Ĕ":{"ha":785,"x_min":46,"x_max":713,"o":"m 46 83 l 175 111 l 175 889 l 46 917 l 46 1000 l 713 1000 l 713 694 l 603 694 l 585 896 l 313 896 l 313 564 l 574 564 l 574 449 l 313 449 l 313 104 l 583 104 l 603 326 l 713 326 l 713 0 l 46 0 l 46 83 m 632 1279 q 622 1209 632 1242 q 588 1151 613 1176 q 519 1113 563 1126 q 411 1099 476 1099 q 304 1113 346 1099 q 238 1151 263 1126 q 203 1209 213 1176 q 193 1279 193 1242 l 308 1279 q 334 1213 308 1242 q 414 1183 360 1183 q 493 1213 468 1183 q 518 1279 518 1242 l 632 1279 z "},"Ē":{"ha":785,"x_min":46,"x_max":713,"o":"m 46 83 l 175 111 l 175 889 l 46 917 l 46 1000 l 713 1000 l 713 694 l 603 694 l 585 896 l 313 896 l 313 564 l 574 564 l 574 449 l 313 449 l 313 104 l 583 104 l 603 326 l 713 326 l 713 0 l 46 0 l 46 83 m 222 1228 l 603 1228 l 603 1140 l 222 1140 l 222 1228 z "},"Ê":{"ha":785,"x_min":46,"x_max":713,"o":"m 46 83 l 175 111 l 175 889 l 46 917 l 46 1000 l 713 1000 l 713 694 l 603 694 l 585 896 l 313 896 l 313 564 l 574 564 l 574 449 l 313 449 l 313 104 l 583 104 l 603 326 l 713 326 l 713 0 l 46 0 l 46 83 m 646 1099 l 533 1099 l 414 1199 l 296 1099 l 183 1099 l 329 1272 l 500 1272 l 646 1099 z "},"Ě":{"ha":785,"x_min":46,"x_max":713,"o":"m 46 83 l 175 111 l 175 889 l 46 917 l 46 1000 l 713 1000 l 713 694 l 603 694 l 585 896 l 313 896 l 313 564 l 574 564 l 574 449 l 313 449 l 313 104 l 583 104 l 603 326 l 713 326 l 713 0 l 46 0 l 46 83 m 500 1099 l 329 1099 l 183 1272 l 296 1272 l 414 1171 l 533 1272 l 646 1272 l 500 1099 z "},"Ģ":{"ha":857,"x_min":64,"x_max":776,"o":"m 443 467 l 776 467 l 776 0 l 667 0 l 653 143 l 646 143 q 617 76 635 106 q 573 26 600 47 q 506 -5 546 6 q 410 -15 465 -15 q 237 22 304 -15 q 131 129 169 60 q 78 297 93 199 q 64 517 64 394 q 76 711 64 621 q 126 869 88 801 q 235 976 164 938 q 425 1015 307 1015 q 490 1010 458 1015 q 549 991 522 1006 q 597 949 576 976 q 629 876 617 922 l 636 876 l 663 1000 l 772 1000 l 772 660 l 635 660 q 582 840 635 778 q 424 901 529 901 q 312 874 354 901 q 247 795 269 847 q 216 667 224 743 q 208 492 208 590 q 216 319 208 393 q 247 196 224 244 q 313 123 269 147 q 425 99 356 99 q 528 117 488 99 q 594 169 569 136 q 628 249 618 203 q 639 351 638 296 l 443 351 l 443 467 m 344 -60 l 482 -60 l 482 -186 l 451 -299 l 372 -299 l 389 -186 l 344 -186 l 344 -60 z "},"Ġ":{"ha":857,"x_min":64,"x_max":776,"o":"m 443 467 l 776 467 l 776 0 l 667 0 l 653 143 l 646 143 q 617 76 635 106 q 573 26 600 47 q 506 -5 546 6 q 410 -15 465 -15 q 237 22 304 -15 q 131 129 169 60 q 78 297 93 199 q 64 517 64 394 q 76 711 64 621 q 126 869 88 801 q 235 976 164 938 q 425 1015 307 1015 q 490 1010 458 1015 q 549 991 522 1006 q 597 949 576 976 q 629 876 617 922 l 636 876 l 663 1000 l 772 1000 l 772 660 l 635 660 q 582 840 635 778 q 424 901 529 901 q 312 874 354 901 q 247 795 269 847 q 216 667 224 743 q 208 492 208 590 q 216 319 208 393 q 247 196 224 244 q 313 123 269 147 q 425 99 356 99 q 528 117 488 99 q 594 169 569 136 q 628 249 618 203 q 639 351 638 296 l 443 351 l 443 467 m 415 1099 q 351 1124 376 1099 q 326 1188 326 1149 q 351 1251 326 1226 q 415 1275 376 1275 q 479 1251 454 1275 q 504 1188 504 1226 q 479 1124 504 1149 q 415 1099 454 1099 z "},"Ğ":{"ha":857,"x_min":64,"x_max":776,"o":"m 443 467 l 776 467 l 776 0 l 667 0 l 653 143 l 646 143 q 617 76 635 106 q 573 26 600 47 q 506 -5 546 6 q 410 -15 465 -15 q 237 22 304 -15 q 131 129 169 60 q 78 297 93 199 q 64 517 64 394 q 76 711 64 621 q 126 869 88 801 q 235 976 164 938 q 425 1015 307 1015 q 490 1010 458 1015 q 549 991 522 1006 q 597 949 576 976 q 629 876 617 922 l 636 876 l 663 1000 l 772 1000 l 772 660 l 635 660 q 582 840 635 778 q 424 901 529 901 q 312 874 354 901 q 247 795 269 847 q 216 667 224 743 q 208 492 208 590 q 216 319 208 393 q 247 196 224 244 q 313 123 269 147 q 425 99 356 99 q 528 117 488 99 q 594 169 569 136 q 628 249 618 203 q 639 351 638 296 l 443 351 l 443 467 m 633 1279 q 624 1209 633 1242 q 589 1151 614 1176 q 521 1113 564 1126 q 413 1099 478 1099 q 306 1113 347 1099 q 239 1151 264 1126 q 204 1209 214 1176 q 194 1279 194 1242 l 310 1279 q 335 1213 310 1242 q 415 1183 361 1183 q 494 1213 469 1183 q 519 1279 519 1242 l 633 1279 z "},"Ĝ":{"ha":857,"x_min":64,"x_max":776,"o":"m 443 467 l 776 467 l 776 0 l 667 0 l 653 143 l 646 143 q 617 76 635 106 q 573 26 600 47 q 506 -5 546 6 q 410 -15 465 -15 q 237 22 304 -15 q 131 129 169 60 q 78 297 93 199 q 64 517 64 394 q 76 711 64 621 q 126 869 88 801 q 235 976 164 938 q 425 1015 307 1015 q 490 1010 458 1015 q 549 991 522 1006 q 597 949 576 976 q 629 876 617 922 l 636 876 l 663 1000 l 772 1000 l 772 660 l 635 660 q 582 840 635 778 q 424 901 529 901 q 312 874 354 901 q 247 795 269 847 q 216 667 224 743 q 208 492 208 590 q 216 319 208 393 q 247 196 224 244 q 313 123 269 147 q 425 99 356 99 q 528 117 488 99 q 594 169 569 136 q 628 249 618 203 q 639 351 638 296 l 443 351 l 443 467 m 668 1099 l 556 1099 l 436 1199 l 318 1099 l 206 1099 l 351 1272 l 522 1272 l 668 1099 z "},"Ĥ":{"ha":1026,"x_min":46,"x_max":981,"o":"m 981 917 l 851 889 l 851 111 l 981 83 l 981 0 l 585 0 l 585 83 l 714 111 l 714 449 l 313 449 l 313 111 l 442 83 l 442 0 l 46 0 l 46 83 l 175 111 l 175 889 l 46 917 l 46 1000 l 442 1000 l 442 917 l 313 889 l 313 564 l 714 564 l 714 889 l 585 917 l 585 1000 l 981 1000 l 981 917 m 746 1099 l 633 1099 l 514 1199 l 396 1099 l 283 1099 l 429 1272 l 600 1272 l 746 1099 z "},"Ħ":{"ha":1029,"x_min":47,"x_max":982,"o":"m 982 917 l 853 889 l 853 775 l 982 775 l 982 688 l 853 688 l 853 111 l 982 83 l 982 0 l 586 0 l 586 83 l 715 111 l 715 449 l 314 449 l 314 111 l 443 83 l 443 0 l 47 0 l 47 83 l 176 111 l 176 688 l 47 688 l 47 775 l 176 775 l 176 889 l 47 917 l 47 1000 l 443 1000 l 443 917 l 314 889 l 314 775 l 715 775 l 715 889 l 586 917 l 586 1000 l 982 1000 l 982 917 m 715 564 l 715 688 l 314 688 l 314 564 l 715 564 z "},"Ḥ":{"ha":1026,"x_min":46,"x_max":981,"o":"m 981 917 l 851 889 l 851 111 l 981 83 l 981 0 l 585 0 l 585 83 l 714 111 l 714 449 l 313 449 l 313 111 l 442 83 l 442 0 l 46 0 l 46 83 l 175 111 l 175 889 l 46 917 l 46 1000 l 442 1000 l 442 917 l 313 889 l 313 564 l 714 564 l 714 889 l 585 917 l 585 1000 l 981 1000 l 981 917 m 511 -299 q 447 -274 472 -299 q 422 -210 422 -249 q 447 -147 422 -171 q 511 -122 472 -122 q 575 -147 550 -122 q 600 -210 600 -171 q 575 -274 600 -249 q 511 -299 550 -299 z "},"Į":{"ha":488,"x_min":46,"x_max":442,"o":"m 442 917 l 313 889 l 313 111 l 442 83 l 442 0 l 297 0 q 245 -81 260 -42 q 231 -142 231 -119 q 244 -180 231 -164 q 290 -196 258 -196 q 333 -189 315 -196 q 353 -181 343 -185 l 353 -276 q 324 -285 339 -281 q 261 -292 296 -292 q 210 -285 235 -292 q 166 -262 185 -278 q 136 -222 147 -246 q 125 -164 125 -197 q 149 -78 125 -114 q 214 0 172 -43 l 46 0 l 46 83 l 175 111 l 175 889 l 46 917 l 46 1000 l 442 1000 l 442 917 z "},"İ":{"ha":488,"x_min":46,"x_max":442,"o":"m 442 917 l 313 889 l 313 111 l 442 83 l 442 0 l 46 0 l 46 83 l 175 111 l 175 889 l 46 917 l 46 1000 l 442 1000 l 442 917 m 244 1099 q 181 1124 206 1099 q 156 1188 156 1149 q 181 1251 156 1226 q 244 1275 206 1275 q 308 1251 283 1275 q 333 1188 333 1226 q 308 1124 333 1149 q 244 1099 283 1099 z "},"Ï":{"ha":488,"x_min":18,"x_max":469,"o":"m 442 917 l 313 889 l 313 111 l 442 83 l 442 0 l 46 0 l 46 83 l 175 111 l 175 889 l 46 917 l 46 1000 l 442 1000 l 442 917 m 100 1099 q 41 1122 64 1099 q 18 1181 18 1144 q 41 1240 18 1217 q 100 1263 64 1263 q 160 1240 136 1263 q 183 1181 183 1217 q 160 1122 183 1144 q 100 1099 136 1099 m 386 1099 q 327 1122 350 1099 q 304 1181 304 1144 q 327 1240 304 1217 q 386 1263 350 1263 q 446 1240 422 1263 q 469 1181 469 1217 q 446 1122 469 1144 q 386 1099 422 1099 z "},"Í":{"ha":488,"x_min":46,"x_max":489,"o":"m 442 917 l 313 889 l 313 111 l 442 83 l 442 0 l 46 0 l 46 83 l 175 111 l 175 889 l 46 917 l 46 1000 l 442 1000 l 442 917 m 318 1272 l 489 1272 l 299 1099 l 186 1099 l 318 1272 z "},"Ì":{"ha":488,"x_min":25,"x_max":442,"o":"m 442 917 l 313 889 l 313 111 l 442 83 l 442 0 l 46 0 l 46 83 l 175 111 l 175 889 l 46 917 l 46 1000 l 442 1000 l 442 917 m 300 1099 l 188 1099 l 25 1272 l 196 1272 l 300 1099 z "},"Ĩ":{"ha":488,"x_min":-15,"x_max":501,"o":"m 442 917 l 313 889 l 313 111 l 442 83 l 442 0 l 46 0 l 46 83 l 175 111 l 175 889 l 46 917 l 46 1000 l 442 1000 l 442 917 m 501 1283 q 492 1212 501 1246 q 462 1153 482 1178 q 413 1113 442 1128 q 347 1099 385 1099 q 278 1113 307 1099 q 226 1144 250 1128 q 183 1176 203 1161 q 140 1190 163 1190 q 117 1186 129 1190 q 94 1173 106 1182 q 76 1149 83 1164 q 69 1113 69 1133 l -15 1113 q -7 1176 -15 1144 q 19 1232 1 1207 q 66 1272 38 1257 q 135 1288 94 1288 q 203 1273 176 1288 q 252 1242 231 1258 q 293 1210 274 1225 q 339 1196 313 1196 q 394 1219 371 1196 q 418 1283 418 1243 l 501 1283 z "},"Ĭ":{"ha":488,"x_min":24,"x_max":463,"o":"m 442 917 l 313 889 l 313 111 l 442 83 l 442 0 l 46 0 l 46 83 l 175 111 l 175 889 l 46 917 l 46 1000 l 442 1000 l 442 917 m 463 1279 q 453 1209 463 1242 q 418 1151 443 1176 q 350 1113 393 1126 q 242 1099 307 1099 q 135 1113 176 1099 q 68 1151 93 1126 q 33 1209 43 1176 q 24 1279 24 1242 l 139 1279 q 165 1213 139 1242 q 244 1183 190 1183 q 324 1213 299 1183 q 349 1279 349 1242 l 463 1279 z "},"Ī":{"ha":488,"x_min":46,"x_max":442,"o":"m 442 917 l 313 889 l 313 111 l 442 83 l 442 0 l 46 0 l 46 83 l 175 111 l 175 889 l 46 917 l 46 1000 l 442 1000 l 442 917 m 53 1228 l 433 1228 l 433 1140 l 53 1140 l 53 1228 z "},"Î":{"ha":488,"x_min":14,"x_max":476,"o":"m 442 917 l 313 889 l 313 111 l 442 83 l 442 0 l 46 0 l 46 83 l 175 111 l 175 889 l 46 917 l 46 1000 l 442 1000 l 442 917 m 476 1099 l 364 1099 l 244 1199 l 126 1099 l 14 1099 l 160 1272 l 331 1272 l 476 1099 z "},"Ị":{"ha":488,"x_min":46,"x_max":442,"o":"m 442 917 l 313 889 l 313 111 l 442 83 l 442 0 l 46 0 l 46 83 l 175 111 l 175 889 l 46 917 l 46 1000 l 442 1000 l 442 917 m 243 -299 q 179 -274 204 -299 q 154 -210 154 -249 q 179 -147 154 -171 q 243 -122 204 -122 q 307 -147 282 -122 q 332 -210 332 -171 q 307 -274 332 -249 q 243 -299 282 -299 z "},"Ĵ":{"ha":649,"x_min":24,"x_max":618,"o":"m 281 -14 q 160 1 210 -14 q 81 47 111 17 q 37 124 50 78 q 24 231 24 169 q 24 256 24 243 q 26 283 25 269 l 143 283 q 176 131 143 179 q 275 83 208 83 q 378 136 351 83 q 406 286 406 189 l 406 889 l 204 917 l 204 1000 l 543 1000 l 543 292 q 481 58 543 131 q 281 -14 418 -14 m 618 1099 l 506 1099 l 386 1199 l 268 1099 l 156 1099 l 301 1272 l 472 1272 l 618 1099 z "},"Ķ":{"ha":942,"x_min":46,"x_max":922,"o":"m 525 83 l 633 97 l 369 457 l 313 396 l 313 111 l 442 83 l 442 0 l 46 0 l 46 83 l 175 111 l 175 889 l 46 917 l 46 1000 l 429 1000 l 429 917 l 313 894 l 313 574 l 606 899 l 510 917 l 510 1000 l 908 1000 l 908 917 l 785 889 l 469 560 l 794 111 l 922 83 l 922 0 l 525 0 l 525 83 m 415 -60 l 553 -60 l 553 -186 l 522 -299 l 443 -299 l 460 -186 l 415 -186 l 415 -60 z "},"Ĺ":{"ha":722,"x_min":46,"x_max":685,"o":"m 575 326 l 685 326 l 685 0 l 46 0 l 46 83 l 175 111 l 175 889 l 46 917 l 46 1000 l 442 1000 l 442 917 l 313 889 l 313 104 l 556 104 l 575 326 m 317 1272 l 488 1272 l 297 1099 l 185 1099 l 317 1272 z "},"Ļ":{"ha":722,"x_min":46,"x_max":685,"o":"m 575 326 l 685 326 l 685 0 l 46 0 l 46 83 l 175 111 l 175 889 l 46 917 l 46 1000 l 442 1000 l 442 917 l 313 889 l 313 104 l 556 104 l 575 326 m 304 -60 l 442 -60 l 442 -186 l 411 -299 l 332 -299 l 349 -186 l 304 -186 l 304 -60 z "},"Ľ":{"ha":728,"x_min":46,"x_max":685,"o":"m 575 326 l 685 326 l 685 0 l 46 0 l 46 83 l 175 111 l 175 889 l 46 917 l 46 1000 l 442 1000 l 442 917 l 313 889 l 313 104 l 556 104 l 575 326 m 554 778 q 592 861 583 819 q 541 882 561 861 q 521 935 521 903 q 542 988 521 967 q 594 1008 563 1008 q 646 990 622 1008 q 669 931 669 971 q 665 896 669 915 q 652 856 660 876 q 635 814 644 835 q 614 778 625 793 l 554 778 z "},"Ŀ":{"ha":722,"x_min":46,"x_max":685,"o":"m 575 326 l 685 326 l 685 0 l 46 0 l 46 83 l 175 111 l 175 889 l 46 917 l 46 1000 l 442 1000 l 442 917 l 313 889 l 313 104 l 556 104 l 575 326 m 418 601 l 569 601 l 569 460 l 418 460 l 418 601 z "},"Ł":{"ha":726,"x_min":50,"x_max":689,"o":"m 579 326 l 689 326 l 689 0 l 50 0 l 50 83 l 179 111 l 179 446 l 51 408 l 51 510 l 179 547 l 179 889 l 50 917 l 50 1000 l 446 1000 l 446 917 l 317 889 l 317 589 l 475 636 l 475 535 l 317 488 l 317 104 l 560 104 l 579 326 z "},"Ņ":{"ha":1056,"x_min":46,"x_max":1026,"o":"m 760 111 l 760 889 l 658 917 l 658 1000 l 1026 1000 l 1026 917 l 897 889 l 897 0 l 658 0 l 313 889 l 313 111 l 414 83 l 414 0 l 46 0 l 46 83 l 175 111 l 175 889 l 46 917 l 46 1000 l 414 1000 l 760 111 m 467 -60 l 604 -60 l 604 -186 l 574 -299 l 494 -299 l 511 -186 l 467 -186 l 467 -60 z "},"Ṅ":{"ha":1056,"x_min":46,"x_max":1026,"o":"m 760 111 l 760 889 l 658 917 l 658 1000 l 1026 1000 l 1026 917 l 897 889 l 897 0 l 658 0 l 313 889 l 313 111 l 414 83 l 414 0 l 46 0 l 46 83 l 175 111 l 175 889 l 46 917 l 46 1000 l 414 1000 l 760 111 m 535 1099 q 471 1124 496 1099 q 446 1188 446 1149 q 471 1251 446 1226 q 535 1275 496 1275 q 599 1251 574 1275 q 624 1188 624 1226 q 599 1124 624 1149 q 535 1099 574 1099 z "},"Ń":{"ha":1056,"x_min":46,"x_max":1026,"o":"m 760 111 l 760 889 l 658 917 l 658 1000 l 1026 1000 l 1026 917 l 897 889 l 897 0 l 658 0 l 313 889 l 313 111 l 414 83 l 414 0 l 46 0 l 46 83 l 175 111 l 175 889 l 46 917 l 46 1000 l 414 1000 l 760 111 m 608 1272 l 779 1272 l 589 1099 l 476 1099 l 608 1272 z "},"Ñ":{"ha":1056,"x_min":46,"x_max":1026,"o":"m 760 111 l 760 889 l 658 917 l 658 1000 l 1026 1000 l 1026 917 l 897 889 l 897 0 l 658 0 l 313 889 l 313 111 l 414 83 l 414 0 l 46 0 l 46 83 l 175 111 l 175 889 l 46 917 l 46 1000 l 414 1000 l 760 111 m 792 1283 q 782 1212 792 1246 q 752 1153 772 1178 q 703 1113 732 1128 q 638 1099 675 1099 q 569 1113 597 1099 q 517 1144 540 1128 q 473 1176 493 1161 q 431 1190 453 1190 q 408 1186 419 1190 q 385 1173 396 1182 q 367 1149 374 1164 q 360 1113 360 1133 l 275 1113 q 283 1176 275 1144 q 310 1232 292 1207 q 356 1272 328 1257 q 425 1288 385 1288 q 494 1273 467 1288 q 542 1242 521 1258 q 583 1210 564 1225 q 629 1196 603 1196 q 685 1219 661 1196 q 708 1283 708 1243 l 792 1283 z "},"Ň":{"ha":1056,"x_min":46,"x_max":1026,"o":"m 760 111 l 760 889 l 658 917 l 658 1000 l 1026 1000 l 1026 917 l 897 889 l 897 0 l 658 0 l 313 889 l 313 111 l 414 83 l 414 0 l 46 0 l 46 83 l 175 111 l 175 889 l 46 917 l 46 1000 l 414 1000 l 760 111 m 621 1099 l 450 1099 l 304 1272 l 417 1272 l 535 1171 l 654 1272 l 767 1272 l 621 1099 z "},"Ø":{"ha":915,"x_min":36,"x_max":878,"o":"m 36 0 l 146 149 q 96 308 108 218 q 83 501 83 399 q 97 701 83 607 q 150 865 110 794 q 264 975 190 935 q 460 1015 338 1015 q 613 992 550 1015 q 719 929 675 969 l 772 1001 l 878 1001 l 775 860 q 828 696 815 789 q 842 499 842 603 q 829 300 842 393 q 777 137 817 207 q 663 26 738 67 q 467 -15 589 -15 q 309 8 374 -15 q 200 75 244 32 l 146 0 l 36 0 m 467 85 q 596 117 550 85 q 665 206 642 150 q 692 337 688 263 q 697 496 697 411 q 694 621 697 561 q 681 732 692 681 l 276 179 q 348 110 303 135 q 467 85 393 85 m 228 499 q 230 382 228 436 q 242 279 232 328 l 644 828 q 576 892 619 868 q 465 915 533 915 q 336 883 383 915 q 265 794 289 850 q 234 662 240 738 q 228 499 228 586 z "},"Ǿ":{"ha":915,"x_min":36,"x_max":878,"o":"m 36 0 l 146 149 q 96 308 108 218 q 83 501 83 399 q 97 701 83 607 q 150 865 110 794 q 264 975 190 935 q 460 1015 338 1015 q 613 992 550 1015 q 719 929 675 969 l 772 1001 l 878 1001 l 775 860 q 828 696 815 789 q 842 499 842 603 q 829 300 842 393 q 777 137 817 207 q 663 26 738 67 q 467 -15 589 -15 q 309 8 374 -15 q 200 75 244 32 l 146 0 l 36 0 m 467 85 q 596 117 550 85 q 665 206 642 150 q 692 337 688 263 q 697 496 697 411 q 694 621 697 561 q 681 732 692 681 l 276 179 q 348 110 303 135 q 467 85 393 85 m 228 499 q 230 382 228 436 q 242 279 232 328 l 644 828 q 576 892 619 868 q 465 915 533 915 q 336 883 383 915 q 265 794 289 850 q 234 662 240 738 q 228 499 228 586 m 533 1272 l 704 1272 l 514 1099 l 401 1099 l 533 1272 z "},"Ŕ":{"ha":881,"x_min":46,"x_max":863,"o":"m 518 83 l 624 94 l 435 431 l 313 431 l 313 111 l 442 83 l 442 0 l 46 0 l 46 83 l 175 111 l 175 889 l 46 917 l 46 1000 l 476 1000 q 633 977 574 1000 q 724 916 692 954 q 768 826 757 878 q 779 715 779 774 q 772 619 779 665 q 742 538 764 574 q 679 475 719 501 q 575 438 639 449 l 774 111 l 863 83 l 863 0 l 518 0 l 518 83 m 454 535 q 552 548 515 535 q 608 584 589 561 q 633 640 628 607 q 639 710 639 672 q 633 787 639 753 q 608 845 628 821 q 552 883 589 869 q 454 896 515 896 l 313 896 l 313 535 l 454 535 m 461 1272 l 632 1272 l 442 1099 l 329 1099 l 461 1272 z "},"Ŗ":{"ha":881,"x_min":46,"x_max":863,"o":"m 518 83 l 624 94 l 435 431 l 313 431 l 313 111 l 442 83 l 442 0 l 46 0 l 46 83 l 175 111 l 175 889 l 46 917 l 46 1000 l 476 1000 q 633 977 574 1000 q 724 916 692 954 q 768 826 757 878 q 779 715 779 774 q 772 619 779 665 q 742 538 764 574 q 679 475 719 501 q 575 438 639 449 l 774 111 l 863 83 l 863 0 l 518 0 l 518 83 m 454 535 q 552 548 515 535 q 608 584 589 561 q 633 640 628 607 q 639 710 639 672 q 633 787 639 753 q 608 845 628 821 q 552 883 589 869 q 454 896 515 896 l 313 896 l 313 535 l 454 535 m 390 -60 l 528 -60 l 528 -186 l 497 -299 l 418 -299 l 435 -186 l 390 -186 l 390 -60 z "},"Ř":{"ha":881,"x_min":46,"x_max":863,"o":"m 518 83 l 624 94 l 435 431 l 313 431 l 313 111 l 442 83 l 442 0 l 46 0 l 46 83 l 175 111 l 175 889 l 46 917 l 46 1000 l 476 1000 q 633 977 574 1000 q 724 916 692 954 q 768 826 757 878 q 779 715 779 774 q 772 619 779 665 q 742 538 764 574 q 679 475 719 501 q 575 438 639 449 l 774 111 l 863 83 l 863 0 l 518 0 l 518 83 m 454 535 q 552 548 515 535 q 608 584 589 561 q 633 640 628 607 q 639 710 639 672 q 633 787 639 753 q 608 845 628 821 q 552 883 589 869 q 454 896 515 896 l 313 896 l 313 535 l 454 535 m 522 1099 l 351 1099 l 206 1272 l 318 1272 l 436 1171 l 556 1272 l 668 1272 l 522 1099 z "},"Ṛ":{"ha":881,"x_min":46,"x_max":863,"o":"m 518 83 l 624 94 l 435 431 l 313 431 l 313 111 l 442 83 l 442 0 l 46 0 l 46 83 l 175 111 l 175 889 l 46 917 l 46 1000 l 476 1000 q 633 977 574 1000 q 724 916 692 954 q 768 826 757 878 q 779 715 779 774 q 772 619 779 665 q 742 538 764 574 q 679 475 719 501 q 575 438 639 449 l 774 111 l 863 83 l 863 0 l 518 0 l 518 83 m 454 535 q 552 548 515 535 q 608 584 589 561 q 633 640 628 607 q 639 710 639 672 q 633 787 639 753 q 608 845 628 821 q 552 883 589 869 q 454 896 515 896 l 313 896 l 313 535 l 454 535 m 457 -299 q 393 -274 418 -299 q 368 -210 368 -249 q 393 -147 368 -171 q 457 -122 418 -122 q 521 -147 496 -122 q 546 -210 546 -171 q 521 -274 546 -249 q 457 -299 496 -299 z "},"Ṣ":{"ha":768,"x_min":64,"x_max":703,"o":"m 414 -15 q 324 -4 360 -15 q 267 25 289 7 q 232 67 244 43 q 211 114 219 90 l 203 114 l 175 0 l 64 0 l 64 308 l 203 308 q 217 212 203 251 q 257 147 232 172 q 317 110 282 122 q 394 99 353 99 q 472 110 440 99 q 525 143 504 122 q 555 192 546 164 q 564 250 564 219 q 528 355 564 317 q 438 419 492 393 q 322 467 385 446 q 205 523 258 489 q 115 611 151 557 q 79 756 79 665 q 100 869 79 821 q 156 951 121 918 q 240 999 192 983 q 343 1015 289 1015 q 412 1008 379 1015 q 472 983 444 1000 q 517 939 499 967 q 542 871 535 911 l 549 871 l 576 1000 l 686 1000 l 686 660 l 549 660 q 539 744 549 701 q 507 822 529 788 q 451 879 485 857 q 368 901 417 901 q 310 892 338 901 q 263 864 283 882 q 230 820 242 846 q 218 761 218 794 q 254 667 218 701 q 344 608 290 633 q 460 560 397 583 q 577 502 524 538 q 667 410 631 467 q 703 260 703 353 q 627 58 703 131 q 414 -15 551 -15 m 413 -299 q 349 -274 374 -299 q 324 -210 324 -249 q 349 -147 324 -171 q 413 -122 374 -122 q 476 -147 451 -122 q 501 -210 501 -171 q 476 -274 501 -249 q 413 -299 451 -299 z "},"Ś":{"ha":768,"x_min":64,"x_max":703,"o":"m 414 -15 q 324 -4 360 -15 q 267 25 289 7 q 232 67 244 43 q 211 114 219 90 l 203 114 l 175 0 l 64 0 l 64 308 l 203 308 q 217 212 203 251 q 257 147 232 172 q 317 110 282 122 q 394 99 353 99 q 472 110 440 99 q 525 143 504 122 q 555 192 546 164 q 564 250 564 219 q 528 355 564 317 q 438 419 492 393 q 322 467 385 446 q 205 523 258 489 q 115 611 151 557 q 79 756 79 665 q 100 869 79 821 q 156 951 121 918 q 240 999 192 983 q 343 1015 289 1015 q 412 1008 379 1015 q 472 983 444 1000 q 517 939 499 967 q 542 871 535 911 l 549 871 l 576 1000 l 686 1000 l 686 660 l 549 660 q 539 744 549 701 q 507 822 529 788 q 451 879 485 857 q 368 901 417 901 q 310 892 338 901 q 263 864 283 882 q 230 820 242 846 q 218 761 218 794 q 254 667 218 701 q 344 608 290 633 q 460 560 397 583 q 577 502 524 538 q 667 410 631 467 q 703 260 703 353 q 627 58 703 131 q 414 -15 551 -15 m 403 1272 l 574 1272 l 383 1099 l 271 1099 l 403 1272 z "},"Ŝ":{"ha":768,"x_min":64,"x_max":703,"o":"m 414 -15 q 324 -4 360 -15 q 267 25 289 7 q 232 67 244 43 q 211 114 219 90 l 203 114 l 175 0 l 64 0 l 64 308 l 203 308 q 217 212 203 251 q 257 147 232 172 q 317 110 282 122 q 394 99 353 99 q 472 110 440 99 q 525 143 504 122 q 555 192 546 164 q 564 250 564 219 q 528 355 564 317 q 438 419 492 393 q 322 467 385 446 q 205 523 258 489 q 115 611 151 557 q 79 756 79 665 q 100 869 79 821 q 156 951 121 918 q 240 999 192 983 q 343 1015 289 1015 q 412 1008 379 1015 q 472 983 444 1000 q 517 939 499 967 q 542 871 535 911 l 549 871 l 576 1000 l 686 1000 l 686 660 l 549 660 q 539 744 549 701 q 507 822 529 788 q 451 879 485 857 q 368 901 417 901 q 310 892 338 901 q 263 864 283 882 q 230 820 242 846 q 218 761 218 794 q 254 667 218 701 q 344 608 290 633 q 460 560 397 583 q 577 502 524 538 q 667 410 631 467 q 703 260 703 353 q 627 58 703 131 q 414 -15 551 -15 m 621 1099 l 508 1099 l 389 1199 l 271 1099 l 158 1099 l 304 1272 l 475 1272 l 621 1099 z "},"Š":{"ha":768,"x_min":64,"x_max":703,"o":"m 414 -15 q 324 -4 360 -15 q 267 25 289 7 q 232 67 244 43 q 211 114 219 90 l 203 114 l 175 0 l 64 0 l 64 308 l 203 308 q 217 212 203 251 q 257 147 232 172 q 317 110 282 122 q 394 99 353 99 q 472 110 440 99 q 525 143 504 122 q 555 192 546 164 q 564 250 564 219 q 528 355 564 317 q 438 419 492 393 q 322 467 385 446 q 205 523 258 489 q 115 611 151 557 q 79 756 79 665 q 100 869 79 821 q 156 951 121 918 q 240 999 192 983 q 343 1015 289 1015 q 412 1008 379 1015 q 472 983 444 1000 q 517 939 499 967 q 542 871 535 911 l 549 871 l 576 1000 l 686 1000 l 686 660 l 549 660 q 539 744 549 701 q 507 822 529 788 q 451 879 485 857 q 368 901 417 901 q 310 892 338 901 q 263 864 283 882 q 230 820 242 846 q 218 761 218 794 q 254 667 218 701 q 344 608 290 633 q 460 560 397 583 q 577 502 524 538 q 667 410 631 467 q 703 260 703 353 q 627 58 703 131 q 414 -15 551 -15 m 474 1099 l 303 1099 l 157 1272 l 269 1272 l 388 1171 l 507 1272 l 619 1272 l 474 1099 z "},"Ș":{"ha":768,"x_min":64,"x_max":703,"o":"m 414 -15 q 324 -4 360 -15 q 267 25 289 7 q 232 67 244 43 q 211 114 219 90 l 203 114 l 175 0 l 64 0 l 64 308 l 203 308 q 217 212 203 251 q 257 147 232 172 q 317 110 282 122 q 394 99 353 99 q 472 110 440 99 q 525 143 504 122 q 555 192 546 164 q 564 250 564 219 q 528 355 564 317 q 438 419 492 393 q 322 467 385 446 q 205 523 258 489 q 115 611 151 557 q 79 756 79 665 q 100 869 79 821 q 156 951 121 918 q 240 999 192 983 q 343 1015 289 1015 q 412 1008 379 1015 q 472 983 444 1000 q 517 939 499 967 q 542 871 535 911 l 549 871 l 576 1000 l 686 1000 l 686 660 l 549 660 q 539 744 549 701 q 507 822 529 788 q 451 879 485 857 q 368 901 417 901 q 310 892 338 901 q 263 864 283 882 q 230 820 242 846 q 218 761 218 794 q 254 667 218 701 q 344 608 290 633 q 460 560 397 583 q 577 502 524 538 q 667 410 631 467 q 703 260 703 353 q 627 58 703 131 q 414 -15 551 -15 m 346 -60 l 483 -60 l 483 -186 l 453 -299 l 374 -299 l 390 -186 l 346 -186 l 346 -60 z "},"Ş":{"ha":768,"x_min":64,"x_max":703,"o":"m 288 -244 q 395 -224 363 -244 q 428 -175 428 -203 q 385 -140 428 -140 q 343 -154 361 -140 l 283 -154 l 344 -8 q 289 10 311 -3 q 252 39 267 22 q 228 75 238 56 q 211 114 218 94 l 203 114 l 175 0 l 64 0 l 64 308 l 203 308 q 217 212 203 251 q 257 147 232 172 q 317 110 282 122 q 394 99 353 99 q 472 110 440 99 q 525 143 504 122 q 555 192 546 164 q 564 250 564 219 q 528 355 564 317 q 438 419 492 393 q 322 467 385 446 q 205 523 258 489 q 115 611 151 557 q 79 756 79 665 q 100 869 79 821 q 156 951 121 918 q 240 999 192 983 q 343 1015 289 1015 q 412 1008 379 1015 q 472 983 444 1000 q 517 939 499 967 q 542 871 535 911 l 549 871 l 576 1000 l 686 1000 l 686 660 l 549 660 q 539 744 549 701 q 507 822 529 788 q 451 879 485 857 q 368 901 417 901 q 310 892 338 901 q 263 864 283 882 q 230 820 242 846 q 218 761 218 794 q 254 667 218 701 q 344 608 290 633 q 460 560 397 583 q 577 502 524 538 q 667 410 631 467 q 703 260 703 353 q 626 58 703 131 q 411 -15 550 -15 l 388 -72 q 421 -67 403 -68 q 449 -65 439 -65 q 522 -87 494 -65 q 550 -158 550 -110 q 485 -262 550 -226 q 274 -299 421 -299 l 288 -244 z "},"Ŧ":{"ha":861,"x_min":39,"x_max":824,"o":"m 694 896 l 500 896 l 500 567 l 689 567 l 689 479 l 500 479 l 500 111 l 643 83 l 643 0 l 219 0 l 219 83 l 363 111 l 363 479 l 169 479 l 169 567 l 363 567 l 363 896 l 167 896 l 149 688 l 39 688 l 39 1000 l 824 1000 l 824 688 l 714 688 l 694 896 z "},"Ṭ":{"ha":860,"x_min":38,"x_max":822,"o":"m 693 896 l 499 896 l 499 111 l 642 83 l 642 0 l 218 0 l 218 83 l 361 111 l 361 896 l 165 896 l 147 688 l 38 688 l 38 1000 l 822 1000 l 822 688 l 713 688 l 693 896 m 429 -299 q 365 -274 390 -299 q 340 -210 340 -249 q 365 -147 340 -171 q 429 -122 390 -122 q 493 -147 468 -122 q 518 -210 518 -171 q 493 -274 518 -249 q 429 -299 468 -299 z "},"Ț":{"ha":860,"x_min":38,"x_max":822,"o":"m 693 896 l 499 896 l 499 111 l 642 83 l 642 0 l 218 0 l 218 83 l 361 111 l 361 896 l 165 896 l 147 688 l 38 688 l 38 1000 l 822 1000 l 822 688 l 713 688 l 693 896 m 363 -60 l 500 -60 l 500 -186 l 469 -299 l 390 -299 l 407 -186 l 363 -186 l 363 -60 z "},"Ţ":{"ha":860,"x_min":38,"x_max":822,"o":"m 693 896 l 499 896 l 499 111 l 642 83 l 642 0 l 458 0 l 428 -72 q 461 -67 443 -68 q 489 -65 479 -65 q 563 -87 535 -65 q 590 -158 590 -110 q 526 -262 590 -226 q 314 -299 461 -299 l 328 -244 q 435 -224 403 -244 q 468 -175 468 -203 q 425 -140 468 -140 q 383 -154 401 -140 l 324 -154 l 389 0 l 218 0 l 218 83 l 361 111 l 361 896 l 165 896 l 147 688 l 38 688 l 38 1000 l 822 1000 l 822 688 l 713 688 l 693 896 z "},"Ť":{"ha":860,"x_min":38,"x_max":822,"o":"m 693 896 l 499 896 l 499 111 l 642 83 l 642 0 l 218 0 l 218 83 l 361 111 l 361 896 l 165 896 l 147 688 l 38 688 l 38 1000 l 822 1000 l 822 688 l 713 688 l 693 896 m 515 1099 l 344 1099 l 199 1272 l 311 1272 l 429 1171 l 549 1272 l 661 1272 l 515 1099 z "},"Ų":{"ha":983,"x_min":11,"x_max":972,"o":"m 843 889 l 843 443 q 833 284 843 363 q 792 142 824 206 q 699 37 760 79 q 538 -14 639 -6 q 494 -87 506 -53 q 482 -142 482 -122 q 496 -180 482 -164 q 542 -196 510 -196 q 585 -189 567 -196 q 604 -181 594 -185 l 604 -276 q 575 -285 590 -281 q 513 -292 547 -292 q 461 -285 486 -292 q 417 -262 436 -278 q 388 -222 399 -246 q 376 -164 376 -197 q 396 -85 376 -118 q 451 -14 415 -51 q 285 35 347 -7 q 192 142 224 78 q 150 285 160 206 q 140 446 140 364 l 140 889 l 11 917 l 11 1000 l 407 1000 l 407 917 l 278 889 l 278 443 q 284 314 278 378 q 312 199 290 250 q 376 117 333 149 q 490 85 418 85 q 606 117 563 85 q 671 201 649 150 q 699 316 693 253 q 706 440 706 379 l 706 889 l 576 917 l 576 1000 l 972 1000 l 972 917 l 843 889 z "},"Ụ":{"ha":983,"x_min":11,"x_max":972,"o":"m 843 889 l 843 443 q 832 276 843 358 q 784 130 821 194 q 678 25 747 65 q 490 -15 608 -15 q 303 25 372 -15 q 197 131 233 65 q 151 278 161 196 q 140 446 140 361 l 140 889 l 11 917 l 11 1000 l 407 1000 l 407 917 l 278 889 l 278 443 q 284 314 278 378 q 312 199 290 250 q 376 117 333 149 q 490 85 418 85 q 606 117 563 85 q 671 201 649 150 q 699 316 693 253 q 706 440 706 379 l 706 889 l 576 917 l 576 1000 l 972 1000 l 972 917 l 843 889 m 490 -299 q 426 -274 451 -299 q 401 -210 401 -249 q 426 -147 401 -171 q 490 -122 451 -122 q 554 -147 529 -122 q 579 -210 579 -171 q 554 -274 579 -249 q 490 -299 529 -299 z "},"Ü":{"ha":983,"x_min":11,"x_max":972,"o":"m 843 889 l 843 443 q 832 276 843 358 q 784 130 821 194 q 678 25 747 65 q 490 -15 608 -15 q 303 25 372 -15 q 197 131 233 65 q 151 278 161 196 q 140 446 140 361 l 140 889 l 11 917 l 11 1000 l 407 1000 l 407 917 l 278 889 l 278 443 q 284 314 278 378 q 312 199 290 250 q 376 117 333 149 q 490 85 418 85 q 606 117 563 85 q 671 201 649 150 q 699 316 693 253 q 706 440 706 379 l 706 889 l 576 917 l 576 1000 l 972 1000 l 972 917 l 843 889 m 349 1099 q 290 1122 313 1099 q 267 1181 267 1144 q 290 1240 267 1217 q 349 1263 313 1263 q 408 1240 385 1263 q 432 1181 432 1217 q 408 1122 432 1144 q 349 1099 385 1099 m 635 1099 q 576 1122 599 1099 q 553 1181 553 1144 q 576 1240 553 1217 q 635 1263 599 1263 q 694 1240 671 1263 q 718 1181 718 1217 q 694 1122 718 1144 q 635 1099 671 1099 z "},"Ú":{"ha":983,"x_min":11,"x_max":972,"o":"m 843 889 l 843 443 q 832 276 843 358 q 784 130 821 194 q 678 25 747 65 q 490 -15 608 -15 q 303 25 372 -15 q 197 131 233 65 q 151 278 161 196 q 140 446 140 361 l 140 889 l 11 917 l 11 1000 l 407 1000 l 407 917 l 278 889 l 278 443 q 284 314 278 378 q 312 199 290 250 q 376 117 333 149 q 490 85 418 85 q 606 117 563 85 q 671 201 649 150 q 699 316 693 253 q 706 440 706 379 l 706 889 l 576 917 l 576 1000 l 972 1000 l 972 917 l 843 889 m 567 1272 l 738 1272 l 547 1099 l 435 1099 l 567 1272 z "},"Ù":{"ha":983,"x_min":11,"x_max":972,"o":"m 843 889 l 843 443 q 832 276 843 358 q 784 130 821 194 q 678 25 747 65 q 490 -15 608 -15 q 303 25 372 -15 q 197 131 233 65 q 151 278 161 196 q 140 446 140 361 l 140 889 l 11 917 l 11 1000 l 407 1000 l 407 917 l 278 889 l 278 443 q 284 314 278 378 q 312 199 290 250 q 376 117 333 149 q 490 85 418 85 q 606 117 563 85 q 671 201 649 150 q 699 316 693 253 q 706 440 706 379 l 706 889 l 576 917 l 576 1000 l 972 1000 l 972 917 l 843 889 m 549 1099 l 436 1099 l 274 1272 l 444 1272 l 549 1099 z "},"Ũ":{"ha":983,"x_min":11,"x_max":972,"o":"m 843 889 l 843 443 q 832 276 843 358 q 784 130 821 194 q 678 25 747 65 q 490 -15 608 -15 q 303 25 372 -15 q 197 131 233 65 q 151 278 161 196 q 140 446 140 361 l 140 889 l 11 917 l 11 1000 l 407 1000 l 407 917 l 278 889 l 278 443 q 284 314 278 378 q 312 199 290 250 q 376 117 333 149 q 490 85 418 85 q 606 117 563 85 q 671 201 649 150 q 699 316 693 253 q 706 440 706 379 l 706 889 l 576 917 l 576 1000 l 972 1000 l 972 917 l 843 889 m 750 1283 q 740 1212 750 1246 q 710 1153 731 1178 q 662 1113 690 1128 q 596 1099 633 1099 q 527 1113 556 1099 q 475 1144 499 1128 q 431 1176 451 1161 q 389 1190 411 1190 q 366 1186 378 1190 q 343 1173 354 1182 q 325 1149 332 1164 q 318 1113 318 1133 l 233 1113 q 242 1176 233 1144 q 268 1232 250 1207 q 315 1272 286 1257 q 383 1288 343 1288 q 452 1273 425 1288 q 501 1242 479 1258 q 542 1210 522 1225 q 588 1196 561 1196 q 643 1219 619 1196 q 667 1283 667 1243 l 750 1283 z "},"Ŭ":{"ha":983,"x_min":11,"x_max":972,"o":"m 843 889 l 843 443 q 832 276 843 358 q 784 130 821 194 q 678 25 747 65 q 490 -15 608 -15 q 303 25 372 -15 q 197 131 233 65 q 151 278 161 196 q 140 446 140 361 l 140 889 l 11 917 l 11 1000 l 407 1000 l 407 917 l 278 889 l 278 443 q 284 314 278 378 q 312 199 290 250 q 376 117 333 149 q 490 85 418 85 q 606 117 563 85 q 671 201 649 150 q 699 316 693 253 q 706 440 706 379 l 706 889 l 576 917 l 576 1000 l 972 1000 l 972 917 l 843 889 m 711 1279 q 701 1209 711 1242 q 667 1151 692 1176 q 599 1113 642 1126 q 490 1099 556 1099 q 383 1113 425 1099 q 317 1151 342 1126 q 282 1209 292 1176 q 272 1279 272 1242 l 388 1279 q 413 1213 388 1242 q 493 1183 439 1183 q 572 1213 547 1183 q 597 1279 597 1242 l 711 1279 z "},"Ū":{"ha":983,"x_min":11,"x_max":972,"o":"m 843 889 l 843 443 q 832 276 843 358 q 784 130 821 194 q 678 25 747 65 q 490 -15 608 -15 q 303 25 372 -15 q 197 131 233 65 q 151 278 161 196 q 140 446 140 361 l 140 889 l 11 917 l 11 1000 l 407 1000 l 407 917 l 278 889 l 278 443 q 284 314 278 378 q 312 199 290 250 q 376 117 333 149 q 490 85 418 85 q 606 117 563 85 q 671 201 649 150 q 699 316 693 253 q 706 440 706 379 l 706 889 l 576 917 l 576 1000 l 972 1000 l 972 917 l 843 889 m 301 1228 l 682 1228 l 682 1140 l 301 1140 l 301 1228 z "},"Û":{"ha":983,"x_min":11,"x_max":972,"o":"m 843 889 l 843 443 q 832 276 843 358 q 784 130 821 194 q 678 25 747 65 q 490 -15 608 -15 q 303 25 372 -15 q 197 131 233 65 q 151 278 161 196 q 140 446 140 361 l 140 889 l 11 917 l 11 1000 l 407 1000 l 407 917 l 278 889 l 278 443 q 284 314 278 378 q 312 199 290 250 q 376 117 333 149 q 490 85 418 85 q 606 117 563 85 q 671 201 649 150 q 699 316 693 253 q 706 440 706 379 l 706 889 l 576 917 l 576 1000 l 972 1000 l 972 917 l 843 889 m 725 1099 l 613 1099 l 493 1199 l 375 1099 l 263 1099 l 408 1272 l 579 1272 l 725 1099 z "},"Ů":{"ha":983,"x_min":11,"x_max":972,"o":"m 843 889 l 843 443 q 832 276 843 358 q 784 130 821 194 q 678 25 747 65 q 490 -15 608 -15 q 303 25 372 -15 q 197 131 233 65 q 151 278 161 196 q 140 446 140 361 l 140 889 l 11 917 l 11 1000 l 407 1000 l 407 917 l 278 889 l 278 443 q 284 314 278 378 q 312 199 290 250 q 376 117 333 149 q 490 85 418 85 q 606 117 563 85 q 671 201 649 150 q 699 316 693 253 q 706 440 706 379 l 706 889 l 576 917 l 576 1000 l 972 1000 l 972 917 l 843 889 m 492 1099 q 421 1127 449 1099 q 393 1197 393 1156 q 421 1269 393 1242 q 492 1296 449 1296 q 564 1269 536 1296 q 592 1197 592 1242 q 564 1127 592 1156 q 492 1099 536 1099 m 492 1163 q 516 1172 507 1163 q 525 1197 525 1182 q 516 1221 525 1213 q 492 1229 507 1229 q 467 1221 476 1229 q 458 1197 458 1213 q 467 1172 458 1182 q 492 1163 476 1163 z "},"Ẅ":{"ha":1332,"x_min":-6,"x_max":1338,"o":"m 111 889 l -6 917 l -6 1000 l 375 1000 l 375 917 l 250 889 l 404 107 l 575 1000 l 756 1000 l 928 107 l 1082 889 l 958 917 l 958 1000 l 1338 1000 l 1338 917 l 1221 889 l 1025 0 l 817 0 l 665 808 l 515 0 l 307 0 l 111 889 m 524 1099 q 465 1122 488 1099 q 442 1181 442 1144 q 465 1240 442 1217 q 524 1263 488 1263 q 583 1240 560 1263 q 607 1181 607 1217 q 583 1122 607 1144 q 524 1099 560 1099 m 810 1099 q 751 1122 774 1099 q 728 1181 728 1144 q 751 1240 728 1217 q 810 1263 774 1263 q 869 1240 846 1263 q 893 1181 893 1217 q 869 1122 893 1144 q 810 1099 846 1099 z "},"Ẃ":{"ha":1332,"x_min":-6,"x_max":1338,"o":"m 111 889 l -6 917 l -6 1000 l 375 1000 l 375 917 l 250 889 l 404 107 l 575 1000 l 756 1000 l 928 107 l 1082 889 l 958 917 l 958 1000 l 1338 1000 l 1338 917 l 1221 889 l 1025 0 l 817 0 l 665 808 l 515 0 l 307 0 l 111 889 m 742 1272 l 913 1272 l 722 1099 l 610 1099 l 742 1272 z "},"Ẁ":{"ha":1332,"x_min":-6,"x_max":1338,"o":"m 111 889 l -6 917 l -6 1000 l 375 1000 l 375 917 l 250 889 l 404 107 l 575 1000 l 756 1000 l 928 107 l 1082 889 l 958 917 l 958 1000 l 1338 1000 l 1338 917 l 1221 889 l 1025 0 l 817 0 l 665 808 l 515 0 l 307 0 l 111 889 m 724 1099 l 611 1099 l 449 1272 l 619 1272 l 724 1099 z "},"Ŵ":{"ha":1332,"x_min":-6,"x_max":1338,"o":"m 111 889 l -6 917 l -6 1000 l 375 1000 l 375 917 l 250 889 l 404 107 l 575 1000 l 756 1000 l 928 107 l 1082 889 l 958 917 l 958 1000 l 1338 1000 l 1338 917 l 1221 889 l 1025 0 l 817 0 l 665 808 l 515 0 l 307 0 l 111 889 m 900 1099 l 788 1099 l 668 1199 l 550 1099 l 438 1099 l 583 1272 l 754 1272 l 900 1099 z "},"Ÿ":{"ha":924,"x_min":-4,"x_max":926,"o":"m 113 889 l -4 917 l -4 1000 l 386 1000 l 386 917 l 256 889 l 461 454 l 667 889 l 538 917 l 538 1000 l 926 1000 l 926 917 l 810 889 l 531 347 l 531 111 l 660 83 l 660 0 l 264 0 l 264 83 l 393 111 l 393 347 l 113 889 m 318 1099 q 259 1122 282 1099 q 236 1181 236 1144 q 259 1240 236 1217 q 318 1263 282 1263 q 378 1240 354 1263 q 401 1181 401 1217 q 378 1122 401 1144 q 318 1099 354 1099 m 604 1099 q 545 1122 568 1099 q 522 1181 522 1144 q 545 1240 522 1217 q 604 1263 568 1263 q 664 1240 640 1263 q 688 1181 688 1217 q 664 1122 688 1144 q 604 1099 640 1099 z "},"Ý":{"ha":924,"x_min":-4,"x_max":926,"o":"m 113 889 l -4 917 l -4 1000 l 386 1000 l 386 917 l 256 889 l 461 454 l 667 889 l 538 917 l 538 1000 l 926 1000 l 926 917 l 810 889 l 531 347 l 531 111 l 660 83 l 660 0 l 264 0 l 264 83 l 393 111 l 393 347 l 113 889 m 536 1272 l 707 1272 l 517 1099 l 404 1099 l 536 1272 z "},"Ỳ":{"ha":924,"x_min":-4,"x_max":926,"o":"m 113 889 l -4 917 l -4 1000 l 386 1000 l 386 917 l 256 889 l 461 454 l 667 889 l 538 917 l 538 1000 l 926 1000 l 926 917 l 810 889 l 531 347 l 531 111 l 660 83 l 660 0 l 264 0 l 264 83 l 393 111 l 393 347 l 113 889 m 518 1099 l 406 1099 l 243 1272 l 414 1272 l 518 1099 z "},"Ỹ":{"ha":924,"x_min":-4,"x_max":926,"o":"m 113 889 l -4 917 l -4 1000 l 386 1000 l 386 917 l 256 889 l 461 454 l 667 889 l 538 917 l 538 1000 l 926 1000 l 926 917 l 810 889 l 531 347 l 531 111 l 660 83 l 660 0 l 264 0 l 264 83 l 393 111 l 393 347 l 113 889 m 719 1283 q 710 1212 719 1246 q 680 1153 700 1178 q 631 1113 660 1128 q 565 1099 603 1099 q 497 1113 525 1099 q 444 1144 468 1128 q 401 1176 421 1161 q 358 1190 381 1190 q 335 1186 347 1190 q 313 1173 324 1182 q 294 1149 301 1164 q 288 1113 288 1133 l 203 1113 q 211 1176 203 1144 q 238 1232 219 1207 q 284 1272 256 1257 q 353 1288 313 1288 q 422 1273 394 1288 q 470 1242 449 1258 q 511 1210 492 1225 q 557 1196 531 1196 q 613 1219 589 1196 q 636 1283 636 1243 l 719 1283 z "},"Ŷ":{"ha":924,"x_min":-4,"x_max":926,"o":"m 113 889 l -4 917 l -4 1000 l 386 1000 l 386 917 l 256 889 l 461 454 l 667 889 l 538 917 l 538 1000 l 926 1000 l 926 917 l 810 889 l 531 347 l 531 111 l 660 83 l 660 0 l 264 0 l 264 83 l 393 111 l 393 347 l 113 889 m 694 1099 l 582 1099 l 463 1199 l 344 1099 l 232 1099 l 378 1272 l 549 1272 l 694 1099 z "},"Ẓ":{"ha":804,"x_min":50,"x_max":743,"o":"m 78 1000 l 726 1000 l 726 882 l 210 104 l 614 104 l 633 339 l 743 339 l 743 0 l 50 0 l 50 118 l 571 896 l 206 896 l 188 688 l 78 688 l 78 1000 m 393 -299 q 329 -274 354 -299 q 304 -210 304 -249 q 329 -147 304 -171 q 393 -122 354 -122 q 457 -147 432 -122 q 482 -210 482 -171 q 457 -274 482 -249 q 393 -299 432 -299 z "},"Ż":{"ha":804,"x_min":50,"x_max":743,"o":"m 78 1000 l 726 1000 l 726 882 l 210 104 l 614 104 l 633 339 l 743 339 l 743 0 l 50 0 l 50 118 l 571 896 l 206 896 l 188 688 l 78 688 l 78 1000 m 403 1099 q 339 1124 364 1099 q 314 1188 314 1149 q 339 1251 314 1226 q 403 1275 364 1275 q 467 1251 442 1275 q 492 1188 492 1226 q 467 1124 492 1149 q 403 1099 442 1099 z "},"Ź":{"ha":804,"x_min":50,"x_max":743,"o":"m 78 1000 l 726 1000 l 726 882 l 210 104 l 614 104 l 633 339 l 743 339 l 743 0 l 50 0 l 50 118 l 571 896 l 206 896 l 188 688 l 78 688 l 78 1000 m 476 1272 l 647 1272 l 457 1099 l 344 1099 l 476 1272 z "},"Ž":{"ha":804,"x_min":50,"x_max":743,"o":"m 78 1000 l 726 1000 l 726 882 l 210 104 l 614 104 l 633 339 l 743 339 l 743 0 l 50 0 l 50 118 l 571 896 l 206 896 l 188 688 l 78 688 l 78 1000 m 489 1099 l 318 1099 l 172 1272 l 285 1272 l 403 1171 l 522 1272 l 635 1272 l 489 1099 z "},"@":{"ha":1119,"x_min":54,"x_max":1075,"o":"m 492 113 q 547 124 522 113 q 590 157 572 136 q 619 205 608 178 q 635 263 631 232 l 650 388 q 651 401 651 396 q 651 408 651 406 q 627 498 651 463 q 551 533 603 533 q 473 501 501 533 q 430 424 444 468 q 411 331 415 379 q 407 254 407 283 q 424 147 407 182 q 492 113 442 113 m 631 47 l 619 135 q 556 58 600 82 q 454 35 511 35 q 373 51 404 35 q 324 97 342 68 q 300 163 307 125 q 293 246 293 201 q 302 358 293 294 q 337 479 311 422 q 409 575 363 536 q 531 614 456 614 q 620 591 583 614 q 665 515 657 568 l 699 603 l 824 603 l 815 536 l 771 514 l 722 115 l 793 115 q 873 139 839 115 q 930 203 907 163 q 965 299 953 244 q 976 415 976 353 q 943 594 976 526 q 858 700 910 663 q 742 750 806 738 q 619 763 679 763 q 417 726 504 763 q 271 626 329 689 q 183 476 213 563 q 153 292 153 390 q 242 17 153 115 q 496 -81 332 -81 q 633 -65 557 -81 l 644 -125 q 472 -158 558 -158 q 313 -130 389 -158 q 180 -45 238 -101 q 88 95 122 11 q 54 290 54 179 q 93 507 54 406 q 206 683 132 608 q 385 802 279 758 q 625 846 490 846 q 801 822 719 846 q 944 747 883 799 q 1040 615 1006 696 q 1075 418 1075 533 q 1061 285 1075 351 q 1012 166 1047 219 q 917 80 976 113 q 769 47 858 47 l 631 47 z "},"&":{"ha":942,"x_min":68,"x_max":929,"o":"m 639 792 q 623 708 639 746 q 580 640 607 671 q 519 582 553 608 q 447 531 485 556 l 621 317 q 667 461 651 390 q 689 575 682 532 l 892 575 l 892 492 l 792 464 q 748 333 769 394 q 701 217 726 271 l 788 111 l 929 83 l 929 0 l 711 0 l 629 97 q 523 13 585 43 q 372 -17 461 -17 q 231 9 289 -17 q 136 75 172 35 q 84 165 100 115 q 68 263 68 214 q 84 353 68 313 q 126 426 100 393 q 185 487 151 460 q 257 538 219 514 q 169 660 203 603 q 136 789 136 717 q 145 858 136 819 q 181 932 154 897 q 257 990 208 967 q 386 1014 306 1014 q 515 991 465 1014 q 592 935 564 968 q 629 863 619 901 q 639 792 639 824 m 371 99 q 472 124 428 99 q 549 192 515 150 l 329 451 q 243 366 278 413 q 208 254 208 319 q 222 186 208 215 q 257 138 235 157 q 308 108 279 118 q 371 99 338 99 m 278 788 q 307 690 278 733 q 374 610 336 647 q 466 687 428 646 q 504 786 504 728 q 476 867 504 833 q 389 900 447 900 q 304 866 331 900 q 278 788 278 832 z "},"©":{"ha":1135,"x_min":53,"x_max":1082,"o":"m 53 360 q 93 560 53 467 q 203 724 133 654 q 366 835 272 794 q 567 875 460 875 q 767 835 674 875 q 931 724 861 794 q 1042 560 1001 654 q 1082 360 1082 467 q 1042 159 1082 253 q 931 -4 1001 65 q 767 -114 861 -74 q 567 -154 674 -154 q 366 -114 460 -154 q 203 -4 272 -74 q 93 159 133 65 q 53 360 53 253 m 156 360 q 188 199 156 274 q 276 69 219 125 q 406 -19 332 13 q 567 -51 481 -51 q 727 -19 651 -51 q 858 69 803 13 q 947 199 914 125 q 979 360 979 274 q 947 520 979 444 q 858 651 914 596 q 727 740 803 707 q 567 772 651 772 q 406 740 481 772 q 276 651 332 707 q 188 520 219 596 q 156 360 156 444 m 556 43 q 443 65 488 43 q 373 128 399 88 q 338 227 347 169 q 328 356 328 285 q 338 474 328 419 q 371 568 347 529 q 436 629 394 607 q 542 651 478 651 q 629 633 593 651 q 676 567 665 615 l 682 567 l 704 640 l 769 640 l 769 450 l 669 450 q 665 492 669 471 q 648 531 660 514 q 616 560 636 549 q 565 571 596 571 q 501 552 525 571 q 466 503 478 533 q 451 436 454 474 q 449 361 449 399 q 452 266 449 311 q 467 187 456 221 q 501 133 478 153 q 561 114 524 114 q 612 127 592 114 q 644 163 632 140 q 660 213 656 185 q 665 269 665 240 l 768 269 q 758 181 768 222 q 723 110 747 140 q 658 61 699 79 q 556 43 617 43 z "},"®":{"ha":1135,"x_min":53,"x_max":1082,"o":"m 53 360 q 93 560 53 467 q 203 724 133 654 q 366 835 272 794 q 567 875 460 875 q 767 835 674 875 q 931 724 861 794 q 1042 560 1001 654 q 1082 360 1082 467 q 1042 159 1082 253 q 931 -4 1001 65 q 767 -114 861 -74 q 567 -154 674 -154 q 366 -114 460 -154 q 203 -4 272 -74 q 93 159 133 65 q 53 360 53 253 m 156 360 q 188 199 156 274 q 276 69 219 125 q 406 -19 332 13 q 567 -51 481 -51 q 727 -19 651 -51 q 858 69 803 13 q 947 199 914 125 q 979 360 979 274 q 947 520 979 444 q 858 651 914 596 q 727 740 803 707 q 567 772 651 772 q 406 740 481 772 q 276 651 332 707 q 188 520 219 596 q 156 360 156 444 m 613 122 l 660 126 l 540 315 l 507 315 l 507 138 l 568 122 l 568 74 l 340 74 l 340 122 l 414 138 l 414 572 l 340 588 l 340 650 l 589 650 q 678 637 644 650 q 731 601 713 624 q 756 549 750 579 q 763 486 763 519 q 758 428 763 456 q 740 380 753 401 q 706 342 728 358 q 647 319 683 326 l 767 138 l 811 122 l 811 74 l 613 74 l 613 122 m 575 389 q 624 396 606 389 q 653 415 643 403 q 665 445 663 428 q 668 483 668 463 q 665 522 668 504 q 653 551 663 539 q 624 570 643 564 q 575 576 606 576 l 507 576 l 507 389 l 575 389 z "},"⁰":{"ha":394,"x_min":49,"x_max":346,"o":"m 197 610 q 119 624 149 610 q 74 664 90 638 q 53 726 58 690 q 49 808 49 763 q 53 890 49 854 q 74 953 58 926 q 119 993 90 979 q 196 1007 147 1007 q 274 992 244 1007 q 319 952 303 978 q 340 890 335 926 q 346 808 346 853 q 340 727 346 764 q 319 664 335 690 q 274 624 304 638 q 197 610 244 610 m 199 676 q 253 711 239 676 q 268 807 268 746 q 253 904 268 868 q 199 940 239 940 q 142 906 158 940 q 126 808 126 871 q 142 710 126 744 q 199 676 158 676 z "},"¹":{"ha":261,"x_min":44,"x_max":222,"o":"m 171 682 l 222 671 l 222 617 l 44 617 l 44 671 l 103 682 l 103 940 l 44 940 l 44 992 l 171 1003 l 171 682 z "}}}
